<svg width="30" height="30" viewBox="0 0 30 30" fill="none" xmlns="http://www.w3.org/2000/svg">
<rect width="30" height="30" rx="5" fill="#ECECEC"/>
<path d="M21.932 11.3231C21.9979 10.9881 21.8528 10.8003 21.5097 10.8003H19.7813C19.3855 10.8003 19.2403 10.9745 19.1216 11.2292C19.1216 11.2292 18.2056 13.3511 17.0685 14.6259C16.7035 15.038 16.6395 15.162 16.438 15.162C16.2754 15.162 16.2005 15.0244 16.2005 14.6526V11.3952C16.2005 10.9394 16.1484 10.8003 15.7783 10.8003H13.0272C12.8149 10.8003 12.6732 10.9178 12.6732 11.0879C12.6732 11.5172 13.3197 11.614 13.3197 12.7771V15.1765C13.3197 15.6592 13.2933 15.8468 13.069 15.8468C12.4753 15.8468 10.9335 13.7814 10.1419 11.422C9.98352 10.9394 9.8128 10.8003 9.36276 10.8003H7.63883C7.38813 10.8003 7.19971 10.9795 7.19971 11.2342C7.19971 11.7034 7.74057 13.8751 9.86484 16.7841C11.2897 18.7412 13.2847 19.8003 14.9734 19.8003C16.0026 19.8003 16.2005 19.6188 16.2005 19.1763V17.6749C16.2005 17.2996 16.3456 17.1387 16.5567 17.1387C16.7942 17.1387 17.1447 17.2236 18.1241 18.2051C19.2851 19.3311 19.3643 19.8003 19.9977 19.8003H21.937C22.135 19.8003 22.3197 19.7064 22.3197 19.3713C22.3197 18.9288 21.7523 18.138 20.8815 17.1996C20.5254 16.717 19.9447 16.1943 19.7601 15.953C19.4962 15.6714 19.5754 15.5105 19.7601 15.2157C19.7601 15.2157 21.734 12.2615 21.932 11.3231Z" fill="#9E9E9E"/>
</svg>
