<svg width="30" height="30" viewBox="0 0 30 30" fill="none" xmlns="http://www.w3.org/2000/svg">
<rect width="30" height="30" rx="5" fill="#ECECEC"/>
<rect x="7" y="7" width="16" height="16" rx="3" fill="#9E9E9E"/>
<path d="M20.9192 10.358C20.9192 10.8879 20.4896 11.3175 19.9595 11.3175C19.4297 11.3175 19 10.8879 19 10.358C19 9.82797 19.4297 9.39844 19.9595 9.39844C20.4896 9.39844 20.9192 9.82797 20.9192 10.358Z" fill="#ECECEC"/>
<path d="M15.1102 11C12.8411 11 11 12.8409 11 15.1102C11 17.3794 12.8411 19.2204 15.1102 19.2204C17.3794 19.2204 19.2204 17.3794 19.2204 15.1102C19.2204 12.8409 17.3794 11 15.1102 11ZM15.1102 17.7763C13.6381 17.7763 12.444 16.5824 12.444 15.1102C12.444 13.638 13.6381 12.444 15.1102 12.444C16.5824 12.444 17.7763 13.638 17.7763 15.1102C17.7763 16.5824 16.5824 17.7763 15.1102 17.7763Z" fill="#ECECEC"/>
</svg>
