<?xml version="1.0" standalone="no"?>
<!DOCTYPE svg PUBLIC "-//W3C//DTD SVG 1.1//EN" "http://www.w3.org/Graphics/SVG/1.1/DTD/svg11.dtd" >
<svg>
<metadata>
Created by FontForge 20090914 at Fri Feb 26 22:41:55 2021
 By www-data
Copyright &#194;&#169; 2018 by Russian Fonts. All rights reserved.
</metadata>
<defs>
<font id="RFDewiExtended-Bold" horiz-adv-x="807" >
  <font-face 
    font-family="RF Dewi Extended"
    font-weight="700"
    font-stretch="semi-expanded"
    units-per-em="1000"
    panose-1="0 0 8 5 0 0 0 0 0 0"
    ascent="800"
    descent="-200"
    x-height="524"
    cap-height="700"
    bbox="-222 -233.001 1373 952"
    underline-thickness="50"
    underline-position="-150"
    unicode-range="U+0020-U+277E"
  />
<missing-glyph horiz-adv-x="600" 
 />
    <glyph glyph-name="f_f.liga" unicode="ff" horiz-adv-x="799" 
d="M721 638c-32 0 -54.3359 -6.16699 -67.0029 -18.5s-19 -32.5 -19 -60.5v-35h135v-106h-135v-418h-141v418h-217v-418h-141v417h-116v107h116v37c0 64.667 14.667 110 44 136s74.333 39 135 39c22.667 0 51.334 -1.66699 86.001 -5v-109
c-21.333 2.66699 -39.666 4 -54.999 4c-26 0 -44 -5.66699 -54 -17s-15 -31.333 -15 -60v-25h217v49c0 64.667 15.833 110 47.5 136s80.5 39 146.5 39c28.667 0 60.334 -1.66699 95.001 -5v-109c-22 2.66699 -42.667 4 -62 4z" />
    <glyph glyph-name="f_f_i.liga" unicode="ffi" horiz-adv-x="1081" 
d="M494 573c0 64.667 14.998 110 44.998 136s76 39 138 39c28 0 58 -1.66699 90 -5v-109c-20.667 2.66699 -39 4 -55 4c-28 0 -47.833 -6.16699 -59.5 -18.5s-17.5 -32.5 -17.5 -60.5v-35h132v-106h-132v-418h-141v418h-217v-418h-141v417h-116v107h116v37
c0 64.667 14.667 110 44 136s74.333 39 135 39c22.667 0 51.334 -1.66699 86.001 -5v-109c-21.333 2.66699 -39.666 4 -54.999 4c-26 0 -44 -5.66699 -54 -17s-15 -31.333 -15 -60v-25h217v49zM871.998 728h150v-132h-150v132zM875.998 0v524h141v-524h-141z" />
    <glyph glyph-name="f_i.liga" unicode="fi" horiz-adv-x="722" 
d="M136 573c0 64.667 15 110 45 136s76 39 138 39c26.667 0 56.667 -1.66699 90 -5v-109c-21.333 2.66699 -40 4 -56 4c-28 0 -47.667 -6 -59 -18s-17 -32.333 -17 -61v-35h132v-106h-132v-418h-141v418h-116v106h116v49zM512 728h150v-132h-150v132zM517 0v524h141v-524
h-141z" />
    <glyph glyph-name="f_l.liga" unicode="fl" horiz-adv-x="719" 
d="M136 573c0 64.667 15 110 45 136s76 39 138 39c26.667 0 56.667 -1.66699 90 -5v-109c-21.333 2.66699 -40 4 -56 4c-28 0 -47.667 -6 -59 -18s-17 -32.333 -17 -61v-35h132v-106h-132v-418h-141v418h-116v106h116v49zM514 736h141v-736h-141v736z" />
    <glyph glyph-name=".notdef" horiz-adv-x="600" 
 />
    <glyph glyph-name="space" unicode=" " horiz-adv-x="265" 
 />
    <glyph glyph-name="exclam" unicode="!" horiz-adv-x="323" 
d="M220 231h-117l-15 469h147zM83 0v154h157v-154h-157z" />
    <glyph glyph-name="quotedbl" unicode="&#x22;" horiz-adv-x="418" 
d="M67 445l-11 255h121l-11 -255h-99zM252 445l-11 255h121l-11 -255h-99z" />
    <glyph glyph-name="numbersign" unicode="#" horiz-adv-x="665" 
d="M646 428h-126l-19 -155h115v-85h-125l-23 -190h-112l23 190h-131l-23 -190h-112l23 190h-118v85h129l18 155h-116v85h127l21 175h112l-21 -175h130l21 175h112l-21 -175h116v-85zM389 273l19 155h-131l-18 -155h130z" />
    <glyph glyph-name="dollar" unicode="$" horiz-adv-x="692" 
d="M656 193c0 -64.667 -24.167 -114.002 -72.5 -148.002s-115.5 -52.667 -201.5 -56v-85h-69v85c-89.333 4.66699 -157.833 27.167 -205.5 67.5s-73.5 96.833 -77.5 169.5l133 5c6 -78 56 -121.667 150 -131v193l-88 25c-110.667 32 -166 94.333 -166 187
c0 62.667 23.833 110.334 71.5 143.001s108.5 50.334 182.5 53.001v84h69v-86c72 -7.33301 130.333 -29.5 175 -66.5s69.667 -86.5 75 -148.5l-134 -8c-2 28 -12.667 52 -32 72s-47.333 33 -84 39v-178l89 -25c62.667 -18 109.167 -41.667 139.5 -71s45.5 -69.333 45.5 -120
zM302 431.998l11 -3v162c-36.667 -2 -64.5 -9.66699 -83.5 -23s-28.5 -31 -28.5 -53c0 -19.333 8.16699 -35.5 24.5 -48.5s41.833 -24.5 76.5 -34.5zM382 98.998c88 6 132 33.667 132 83c0 20 -9.16699 36.667 -27.5 50s-47.833 26 -88.5 38l-16 4v-175z" />
    <glyph glyph-name="percent" unicode="%" horiz-adv-x="952" 
d="M30 531c0 54 18 96.667 54 128s84.333 47 145 47c61.333 0 109.833 -15.667 145.5 -47s53.5 -74 53.5 -128s-17.833 -96.833 -53.5 -128.5s-84.167 -47.5 -145.5 -47.5c-60.667 0 -109 15.833 -145 47.5s-54 74.5 -54 128.5zM147 0l565 700h92l-564 -700h-93zM130 531
c0 -30 8.99902 -53.501 26.999 -70.501s42 -25.5 72 -25.5s54 8.33301 72 25s27 40.334 27 71.001c0 30 -9 53.5 -27 70.5s-42 25.5 -72 25.5c-29.333 0 -53.166 -8.5 -71.499 -25.5s-27.5 -40.5 -27.5 -70.5zM523.999 169.999c0 53.333 17.833 95.833 53.5 127.5
s83.834 47.5 144.501 47.5c61.333 0 109.833 -15.833 145.5 -47.5s53.5 -74.167 53.5 -127.5c0 -54 -17.833 -96.833 -53.5 -128.5s-84.167 -47.5 -145.5 -47.5c-60.667 0 -108.834 15.833 -144.501 47.5s-53.5 74.5 -53.5 128.5zM621.999 169.999
c0 -30 9.16699 -53.667 27.5 -71s42.5 -26 72.5 -26s54.167 8.5 72.5 25.5s27.5 40.833 27.5 71.5c0 30 -9.16699 53.5 -27.5 70.5s-42.5 25.5 -72.5 25.5s-54.167 -8.5 -72.5 -25.5s-27.5 -40.5 -27.5 -70.5z" />
    <glyph glyph-name="ampersand" unicode="&#x26;" horiz-adv-x="757" 
d="M752 0l-153 -0.00195312l-56 58c-60 -46.667 -137.667 -70 -233 -70c-91.333 0 -159.333 16.5 -204 49.5s-67 77.167 -67 132.5c0 24 3.66699 45.333 11 64s20.5 36.334 39.5 53.001s35.833 29.834 50.5 39.501s38 23.5 70 41.5l23 13l-11 12
c-35.333 37.333 -60.333 68.666 -75 93.999s-22 49.666 -22 72.999c0 47.333 19.667 84.5 59 111.5s91.666 40.5 156.999 40.5c66.667 0 118.834 -14.333 156.501 -43s56.5 -68.667 56.5 -120c0 -32.667 -9.5 -61.5 -28.5 -86.5s-50.5 -50.5 -94.5 -76.5l-34 -19l145 -150
c16 30.667 27 66.334 33 107.001h108c-12 -71.333 -34 -132.666 -66 -183.999zM322 443.998l8 -8l27 16c50.667 28.667 76 59.334 76 92.001c0 22 -8.5 39.333 -25.5 52s-39.167 19 -66.5 19c-25.333 0 -46.5 -5.33301 -63.5 -16s-25.5 -26.334 -25.5 -47.001
c0 -14.667 5 -29 15 -43s28.333 -35.667 55 -65zM317 89.998c62.667 0 114.333 14.334 155 43.001l-171 177l-37 -21c-29.333 -16.667 -51 -33.5 -65 -50.5s-21 -36.5 -21 -58.5c0 -26.667 11.333 -48.334 34 -65.001s57.667 -25 105 -25z" />
    <glyph glyph-name="quotesingle" unicode="'" horiz-adv-x="233" 
d="M67 445l-11 255h121l-11 -255h-99z" />
    <glyph glyph-name="parenleft" unicode="(" horiz-adv-x="376" 
d="M367 736c-116.667 -111.333 -175.001 -259.333 -175.001 -444c0 -184 58.333 -331.667 175 -443h-120c-51.333 42.667 -95.166 101 -131.499 175s-54.5 163.333 -54.5 268c0 105.333 18 195 54 269s80 132.333 132 175h120z" />
    <glyph glyph-name="parenright" unicode=")" horiz-adv-x="376" 
d="M129 736c51.333 -43.333 95.166 -101.833 131.499 -175.5s54.5 -163.167 54.5 -268.5c0 -104.667 -18.167 -194 -54.5 -268s-80.166 -132.333 -131.499 -175h-120c116.667 111.333 175 259 175 443c0 184.667 -58.333 332.667 -175 444h120z" />
    <glyph glyph-name="asterisk" unicode="*" horiz-adv-x="404" 
d="M250 528l77 -29l57 -33l-37 -64l-57 33l-64 51l13 -80v-66h-74v66l13 80l-64 -51l-57 -33l-37 64l57 33l76 29l-76 30l-57 33l37 64l57 -33l64 -52l-13 81v66h74v-66l-13 -81l64 52l57 33l37 -64l-57 -33z" />
    <glyph glyph-name="plus" unicode="+" horiz-adv-x="533" 
d="M477 376v-94h-162v-147h-97v147h-163v94h163v148h97v-148h162z" />
    <glyph glyph-name="comma" unicode="," horiz-adv-x="285" 
d="M64 -130v284h157v-96l-94 -188h-63z" />
    <glyph glyph-name="hyphen" unicode="-" horiz-adv-x="426" 
d="M55 353h316v-109h-316v109z" />
    <glyph glyph-name="period" unicode="." horiz-adv-x="285" 
d="M64 0v154h157v-154h-157z" />
    <glyph glyph-name="slash" unicode="/" horiz-adv-x="453" 
d="M293 732h127l-276 -793h-127z" />
    <glyph glyph-name="zero" unicode="0" horiz-adv-x="731" 
d="M48 350c0 112 28.167 200.333 84.5 265s134.166 97 233.499 97s177 -32.167 233 -96.5s84 -152.833 84 -265.5s-28 -201.167 -84 -265.5s-133.667 -96.5 -233 -96.5s-177.166 32.333 -233.499 97s-84.5 153 -84.5 265zM191 350c0 -78 15.667 -138.5 47 -181.5
s74 -64.5 128 -64.5s96.5 21.5 127.5 64.5s46.5 103.5 46.5 181.5s-15.5 138.5 -46.5 181.5s-73.5 64.5 -127.5 64.5s-96.667 -21.5 -128 -64.5s-47 -103.5 -47 -181.5z" />
    <glyph glyph-name="one" unicode="1" horiz-adv-x="468" 
d="M250 700h116v-700h-143v547l-184 -104v138z" />
    <glyph glyph-name="two" unicode="2" horiz-adv-x="634" 
d="M219 116l386.003 -0.00195312v-116h-590v107l296 225l69.5 59c15 13.333 29 30.333 42 51s19.5 41 19.5 61c0 30 -11 53 -33 69s-51 24 -87 24c-88.667 0 -138.334 -47.667 -149.001 -143l-138 10c7.33301 84 36.666 146.5 87.999 187.5s117.333 61.5 198 61.5
c77.333 0 140.666 -17.5 189.999 -52.5s74 -85.833 74 -152.5c0 -41.333 -12.167 -79.666 -36.5 -114.999s-66.833 -75.666 -127.5 -120.999z" />
    <glyph glyph-name="three" unicode="3" horiz-adv-x="664" 
d="M381 430c83.333 -4.66699 145.668 -25.167 187.001 -61.5s62 -86.166 62 -149.499c0 -76.667 -28.833 -134.334 -86.5 -173.001s-131.834 -58 -222.501 -58c-84 0 -152.833 18.333 -206.5 55s-84.834 90.667 -93.501 162l138 9c13.333 -73.333 67.333 -110 162 -110
c50.667 0 91 10 121 30s45 48.333 45 85c0 34.667 -13.667 62.167 -41 82.5s-67.666 30.5 -120.999 30.5c-35.333 0 -76 -4.33301 -122 -13v97l211 168h-352v116h544v-104z" />
    <glyph glyph-name="four" unicode="4" horiz-adv-x="717" 
d="M690 268v-116h-124v-152h-143v152h-401v107l313 441h231v-432h124zM169 268h254v358z" />
    <glyph glyph-name="five" unicode="5" horiz-adv-x="672" 
d="M374 470c78 0 141.166 -20.832 189.499 -62.499s72.5 -99.5 72.5 -173.5c0 -78.667 -28 -139.334 -84 -182.001s-129.667 -64 -221 -64c-80.667 0 -149 17.5 -205 52.5s-89.667 84.833 -101 149.5l140 9c8.66699 -30.667 28.167 -54.167 58.5 -70.5
s65.5 -24.5 105.5 -24.5c48.667 0 88.167 11.5 118.5 34.5s45.5 54.833 45.5 95.5c0 42 -15.167 74 -45.5 96s-69.5 33 -117.5 33c-72 0 -125 -21.333 -159 -64l-126 11l34 390h510v-116h-405l-16 -188c50.667 49.333 119.334 74 206.001 74z" />
    <glyph glyph-name="six" unicode="6" horiz-adv-x="710" 
d="M406 460c78 0 142 -20.667 192 -62s75 -98.333 75 -171c0 -74.667 -27.167 -133.167 -81.5 -175.5s-127.833 -63.5 -220.5 -63.5c-215.333 0 -323 117.333 -323 352c0 123.333 28.5 216.166 85.5 278.499s136.833 93.5 239.5 93.5c78 0 141 -17.167 189 -51.5
s75.333 -83.166 82 -146.499l-137 -9c-4 26.667 -17.833 48.5 -41.5 65.5s-54.5 25.5 -92.5 25.5c-55.333 0 -99 -19.5 -131 -58.5s-49 -96.167 -51 -171.5c43.333 62.667 115 94 215 94zM370 104c48.667 0 87.667 11.167 117 33.5s44 52.166 44 89.499s-14.667 67 -44 89
s-68.333 33 -117 33s-87.334 -11 -116.001 -33s-43 -51.667 -43 -89s14.333 -67.166 43 -89.499s67.334 -33.5 116.001 -33.5z" />
    <glyph glyph-name="seven" unicode="7" horiz-adv-x="644" 
d="M30 700l587 -0.000976562v-98c-158 -197.333 -260.333 -398 -307 -602h-153c48.667 198.667 153 393.334 313 584.001h-440v116z" />
    <glyph glyph-name="eight" unicode="8" horiz-adv-x="705" 
d="M483 366c56.667 -12.667 101.333 -34.333 134 -65s49 -69 49 -115c0 -42.667 -14.833 -79.334 -44.5 -110.001s-67.667 -53 -114 -67s-98.166 -21 -155.499 -21s-109.166 7 -155.499 21s-84.333 36.333 -114 67s-44.5 67.334 -44.5 110.001
c0 46.667 16.667 85.167 50 115.5s78.666 51.833 135.999 64.5c-52.667 12 -93.334 31.833 -122.001 59.5s-43 62.167 -43 103.5c0 59.333 27.833 104.666 83.5 135.999s125.5 47 209.5 47s154 -15.667 210 -47s84 -76.666 84 -135.999c0 -82.667 -54.333 -137 -163 -163z
M196.999 509.001c0 -28.667 14 -51.167 42 -67.5s65.667 -24.5 113 -24.5s85 8.16699 113 24.5s42 38.833 42 67.5c0 28 -14 50.167 -42 66.5s-65.667 24.5 -113 24.5c-46.667 0 -84.167 -8.16699 -112.5 -24.5s-42.5 -38.5 -42.5 -66.5zM351.999 100.001
c51.333 0 93.5 9.16699 126.5 27.5s49.5 43.833 49.5 76.5s-16.5 58 -49.5 76s-75.167 27 -126.5 27s-93.333 -9 -126 -27s-49 -43.333 -49 -76s16.333 -58.167 49 -76.5s74.667 -27.5 126 -27.5z" />
    <glyph glyph-name="nine" unicode="9" horiz-adv-x="710" 
d="M338 712c216 0 324.001 -117.332 324.001 -351.999c0 -124.667 -27.833 -217.834 -83.5 -279.501s-135.5 -92.5 -239.5 -92.5c-78 0 -141 17 -189 51s-76 82.667 -84 146l137 9c6 -26.667 20.5 -48.334 43.5 -65.001s53.833 -25 92.5 -25c55.333 0 99 19.833 131 59.5
s48.333 97.834 49 174.501c-42.667 -61.333 -114.334 -92 -215.001 -92c-78 0 -142 20.5 -192 61.5s-75 97.167 -75 168.5c0 73.333 27.333 131 82 173s127.667 63 219 63zM341.001 357.001c48.667 0 87.334 10.833 116.001 32.5s43 50.5 43 86.5
c0 36.667 -14.333 65.834 -43 87.501s-67.334 32.5 -116.001 32.5s-87.667 -10.833 -117 -32.5s-44 -50.834 -44 -87.501c0 -36 14.667 -64.833 44 -86.5s68.333 -32.5 117 -32.5z" />
    <glyph glyph-name="colon" unicode=":" horiz-adv-x="285" 
d="M64 358v154h157v-154h-157zM64 0v154h157v-154h-157z" />
    <glyph glyph-name="semicolon" unicode=";" horiz-adv-x="285" 
d="M64 358v154h157v-154h-157zM64 -130v284h157v-96l-94 -188h-63z" />
    <glyph glyph-name="less" unicode="&#x3c;" horiz-adv-x="519" 
d="M449 552v-114l-297 -107l297 -100v-113l-398 151v119z" />
    <glyph glyph-name="equal" unicode="=" horiz-adv-x="537" 
d="M57 458h422v-94h-422v94zM57 281h422v-94h-422v94z" />
    <glyph glyph-name="greater" unicode="&#x3e;" horiz-adv-x="518" 
d="M70 552l398 -164v-119l-398 -151v113l297 100l-297 107v114z" />
    <glyph glyph-name="question" unicode="?" horiz-adv-x="603" 
d="M19 474c6.66699 79.333 36.1621 138.832 88.4951 178.499s119.5 59.5 201.5 59.5c75.333 0 137.666 -15.833 186.999 -47.5s74 -78.834 74 -141.501c0 -39.333 -10.667 -73 -32 -101s-55.666 -56 -102.999 -84c-34 -20 -56.5 -35.833 -67.5 -47.5
s-16.5 -27.167 -16.5 -46.5v-10h-135v16c0 37.333 7 66.5 21 87.5s39.667 41.5 77 61.5c18.667 10.667 33.334 19.334 44.001 26.001s22.334 15.167 35.001 25.5s21.834 20.833 27.501 31.5s8.5 22.334 8.5 35.001c0 26 -11.167 45.833 -33.5 59.5
s-51.166 20.5 -86.499 20.5c-93.333 0 -145.666 -43.667 -156.999 -131zM204.995 -0.000976562v154h157v-154h-157z" />
    <glyph glyph-name="at" unicode="@" horiz-adv-x="915" 
d="M539 465l105 -0.000976562v-234c0 -32.667 5.33301 -56.667 16 -72s28.667 -23 54 -23c62.667 0 94 46 94 138c0 91.333 -32 167.666 -96 228.999s-148.667 92 -254 92c-99.333 0 -182.666 -31.667 -249.999 -95s-101 -142 -101 -236c0 -102 32.667 -182.833 98 -242.5
s153 -89.5 263 -89.5c84 0 154.333 15.667 211 47l33 -47c-66.667 -36.667 -148 -55 -244 -55c-128.667 0 -231.167 34.333 -307.5 103s-114.5 163.334 -114.5 284.001c0 112.667 39.333 205.167 118 277.5s176.667 108.5 294 108.5c122 0 221 -35 297 -105
s114 -159.333 114 -268c0 -69.333 -15.5 -122.333 -46.5 -159s-74.833 -55 -131.5 -55c-70.667 0 -117 26.667 -139 80c-15.333 -30 -36 -52.5 -62 -67.5s-54.333 -22.5 -85 -22.5c-50 0 -91.667 19 -125 57s-50 89.333 -50 154s16.833 115.834 50.5 153.501
s75.5 56.5 125.5 56.5c59.333 0 103.666 -23.667 132.999 -71v62zM437 135.999c31.333 0 56.166 11.667 74.499 35s27.5 54.333 27.5 93s-9.16699 69.667 -27.5 93s-43.166 35 -74.499 35s-56.166 -11.667 -74.499 -35s-27.5 -54.333 -27.5 -93s9.16699 -69.667 27.5 -93
s43.166 -35 74.499 -35z" />
    <glyph glyph-name="A" unicode="A" horiz-adv-x="800" 
d="M634 0l-60 160h-353l-60 -160h-146l274 700h221l276 -700h-152zM264 272h268l-134 357z" />
    <glyph glyph-name="B" unicode="B" horiz-adv-x="783" 
d="M527 359c68 -5.33301 121.167 -21.999 159.5 -49.999s57.5 -68.333 57.5 -121c0 -60 -24.5 -106.333 -73.5 -139s-115.5 -49 -199.5 -49h-387v700h383c76 0 137 -15.5 183 -46.5s69 -75.5 69 -133.5c0 -94.667 -64 -148.334 -192 -161.001zM572 498.001
c0 27.333 -10.167 48.833 -30.5 64.5s-48.833 23.5 -85.5 23.5h-224v-176h224c36 0 64.333 7.83301 85 23.5s31 37.167 31 64.5zM457 114.001c92.667 0 139 31.333 139 94c0 62 -43.667 93 -131 93h-233v-187h225z" />
    <glyph glyph-name="C" unicode="C" horiz-adv-x="796" 
d="M44 350c0 110.667 32.167 198.667 96.5 264s154.5 98 270.5 98c94.667 0 172 -21.5 232 -64.5s96 -101.167 108 -174.5l-142 -11c-8.66699 39.333 -31.167 70.833 -67.5 94.5s-79.833 35.5 -130.5 35.5c-71.333 0 -125.666 -22.833 -162.999 -68.5s-56 -103.5 -56 -173.5
c0 -72 20 -130.333 60 -175s96 -67 168 -67c55.333 0 100.166 13.167 134.499 39.5s55.833 60.166 64.5 101.499l143 -9c-12 -79.333 -47 -141.166 -105 -185.499s-137 -66.5 -237 -66.5c-119.333 0 -211.833 32.667 -277.5 98s-98.5 153.333 -98.5 264z" />
    <glyph glyph-name="D" unicode="D" horiz-adv-x="818" 
d="M406 700c116 0 206.333 -31 271 -93s97 -147.667 97 -257s-32.333 -195 -97 -257s-155 -93 -271 -93h-322v700h322zM390 121c76.667 0 135.167 20.333 175.5 61s60.5 96.667 60.5 168s-20.167 127.333 -60.5 168s-98.833 61 -175.5 61h-158v-458h158z" />
    <glyph glyph-name="E" unicode="E" horiz-adv-x="726" 
d="M232 116h450v-116h-598v700h581v-116h-433v-173h341v-110h-341v-185z" />
    <glyph glyph-name="F" unicode="F" horiz-adv-x="691" 
d="M650 579h-418v-179h336v-118h-336v-282h-148v700h566v-121z" />
    <glyph glyph-name="G" unicode="G" horiz-adv-x="814" 
d="M419 372h345.001v-316c-106.667 -45.333 -214 -68 -322 -68c-127.333 0 -225.5 32.5 -294.5 97.5s-103.5 153.167 -103.5 264.5c0 110.667 32.167 198.667 96.5 264s154.166 98 269.499 98c91.333 0 166.666 -20.167 225.999 -60.5s96.333 -94.833 111 -163.5l-142 -11
c-12 34.667 -35.667 62.5 -71 83.5s-76.666 31.5 -123.999 31.5c-70.667 0 -124.667 -22.833 -162 -68.5s-56 -103.5 -56 -173.5c0 -72.667 21.833 -131.167 65.5 -175.5s106.5 -66.5 188.5 -66.5c58.667 0 119.667 10 183 30v135h-210v99z" />
    <glyph glyph-name="H" unicode="H" horiz-adv-x="839" 
d="M607 700h148v-700h-148v296h-375v-296h-148v700h148v-283h375v283z" />
    <glyph glyph-name="I" unicode="I" horiz-adv-x="316" 
d="M84 0v700h148v-700h-148z" />
    <glyph glyph-name="J" unicode="J" horiz-adv-x="673" 
d="M441 700h147.998v-467c0 -81.333 -24.167 -142.5 -72.5 -183.5s-116.166 -61.5 -203.499 -61.5c-88.667 0 -156.667 20.5 -204 61.5s-71 99.167 -71 174.5v66h136v-63c0 -39.333 11.833 -69 35.5 -89s56.834 -30 99.501 -30c88 0 132 45 132 135v457z" />
    <glyph glyph-name="K" unicode="K" horiz-adv-x="792" 
d="M592 0l-257 296h-103v-296h-148v700h148v-291h100l242 291h175l-301 -339l326 -361h-182z" />
    <glyph glyph-name="L" unicode="L" horiz-adv-x="655" 
d="M232 121h390v-121h-538v700h148v-579z" />
    <glyph glyph-name="M" unicode="M" horiz-adv-x="1068" 
d="M728 700h256l-1 -700h-141v619l-208 -619h-201l-208 618v-618h-141v700h258l194 -617z" />
    <glyph glyph-name="N" unicode="N" horiz-adv-x="855" 
d="M630 700h141v-700h-249l-297 614v-614h-141v700h250l296 -614v614z" />
    <glyph glyph-name="O" unicode="O" horiz-adv-x="852" 
d="M44 350c0 111.333 33.333 199.5 100 264.5s160.667 97.5 282 97.5s215.5 -32.5 282.5 -97.5s100.5 -153.167 100.5 -264.5s-33.5 -199.5 -100.5 -264.5s-161.167 -97.5 -282.5 -97.5s-215.333 32.5 -282 97.5s-100 153.167 -100 264.5zM192 350
c0 -72 20.5 -130.333 61.5 -175s98.5 -67 172.5 -67s131.667 22.333 173 67s62 103 62 175s-20.667 130.333 -62 175s-99 67 -173 67s-131.5 -22.333 -172.5 -67s-61.5 -103 -61.5 -175z" />
    <glyph glyph-name="P" unicode="P" horiz-adv-x="757" 
d="M458 700c76 0 138.667 -18.499 188 -55.499s74 -93.167 74 -168.5c0 -74.667 -23.833 -129.334 -71.5 -164.001s-110.5 -52 -188.5 -52h-228v-260h-148v700h374zM445 373.001c40 0 71.167 8.66699 93.5 26s33.5 43 33.5 77c0 34.667 -11.167 60.5 -33.5 77.5
s-53.5 25.5 -93.5 25.5h-213v-206h213z" />
    <glyph glyph-name="Q" unicode="Q" horiz-adv-x="852" 
d="M809 350c0 -134 -47.333 -233.333 -142 -298l72 -86l-98 -63l-84 101c-38 -10.667 -81.667 -16 -131 -16c-121.333 0 -215.333 32.5 -282 97.5s-100 153.167 -100 264.5s33.333 199.5 100 264.5s160.667 97.5 282 97.5s215.5 -32.5 282.5 -97.5
s100.5 -153.167 100.5 -264.5zM426 108c14 0 28 1.00098 42 3.00098l-50 60l97 63l64 -77c54.667 43.333 82 107.666 82 192.999c0 72 -20.667 130.333 -62 175s-99 67 -173 67s-131.5 -22.333 -172.5 -67s-61.5 -103 -61.5 -175s20.5 -130.333 61.5 -175
s98.5 -67 172.5 -67z" />
    <glyph glyph-name="R" unicode="R" horiz-adv-x="783" 
d="M581 0l-215 268h-134v-268h-148v700h384c76 0 138.667 -18.333 188 -55s74 -91.667 74 -165c0 -63.333 -18.167 -112 -54.5 -146s-85.5 -55 -147.5 -63l235 -271h-182zM232 582v-203.001h223c39.333 0 70.333 8.66699 93 26s34 42.333 34 75s-11.333 57.834 -34 75.501
s-53.667 26.5 -93 26.5h-223z" />
    <glyph glyph-name="S" unicode="S" horiz-adv-x="722" 
d="M169 233c3.33301 -40 20.9971 -71.9951 52.9971 -95.9951s80.333 -36 145 -36c30.667 0 58.334 2.5 83.001 7.5s45.834 14 63.501 27s26.5 29.5 26.5 49.5c0 20.667 -9 37.5 -27 50.5s-47.333 25.167 -88 36.5l-190 52c-116.667 31.333 -175 93.666 -175 186.999
c0 67.333 27.167 117.666 81.5 150.999s122.833 50 205.5 50c88.667 0 161.5 -19.167 218.5 -57.5s88.833 -92.5 95.5 -162.5l-139 -7c-4 33.333 -20.833 60.666 -50.5 81.999s-72.167 32 -127.5 32c-42.667 0 -76.167 -6.83301 -100.5 -20.5s-36.5 -32.834 -36.5 -57.501
c0 -36.667 34 -64.334 102 -83.001l183 -49c65.333 -17.333 114.166 -40.833 146.499 -70.5s48.5 -70.167 48.5 -121.5c0 -70 -28.667 -122.333 -86 -157s-135.666 -52 -234.999 -52c-106 0 -187.167 20.5 -243.5 61.5s-87.166 100.833 -92.499 179.5z" />
    <glyph glyph-name="T" unicode="T" horiz-adv-x="702" 
d="M678 700v-121h-253v-579h-148v579h-253v121h654z" />
    <glyph glyph-name="U" unicode="U" horiz-adv-x="844" 
d="M422 -12c-112 0 -196.333 24.833 -253 74.5s-85 122.167 -85 217.5v420h148v-407c0 -122.667 63.333 -184 190 -184s190 61.333 190 184v407h148v-420c0 -95.333 -28.333 -167.833 -85 -217.5s-141 -74.5 -253 -74.5z" />
    <glyph glyph-name="V" unicode="V" horiz-adv-x="772" 
d="M603 700h152l-262 -700h-217l-259 700h156l214 -620z" />
    <glyph glyph-name="W" unicode="W" horiz-adv-x="1143" 
d="M966 700h154l-190 -700h-219l-139 598l-143 -598h-221l-185 700h158l144 -595l144 595h208l141 -596z" />
    <glyph glyph-name="X" unicode="X" horiz-adv-x="773" 
d="M750 0h-172l-196 259l-196 -259h-165l279 357l-258 343h173l171 -241l174 241h165l-255 -338z" />
    <glyph glyph-name="Y" unicode="Y" horiz-adv-x="789" 
d="M775 700l-307 -427v-273h-147v273l-307 427h172l210 -313l213 313h166z" />
    <glyph glyph-name="Z" unicode="Z" horiz-adv-x="696" 
d="M216 121h456v-121h-652v103l445 476h-416v121h611v-103z" />
    <glyph glyph-name="bracketleft" unicode="[" horiz-adv-x="352" 
d="M330 624h-114v-664h114v-110h-242v886h242v-112z" />
    <glyph glyph-name="backslash" unicode="\" horiz-adv-x="453" 
d="M160 732l276 -793h-127l-276 793h127z" />
    <glyph glyph-name="bracketright" unicode="]" horiz-adv-x="352" 
d="M264 736v-886h-242v110h114v664h-114v112h242z" />
    <glyph glyph-name="asciicircum" unicode="^" horiz-adv-x="444" 
d="M421 452h-106l-93 194l-93 -194h-107l137 248h126z" />
    <glyph glyph-name="underscore" unicode="_" horiz-adv-x="470" 
d="M13 -30h444v-93h-444v93z" />
    <glyph glyph-name="grave" unicode="`" horiz-adv-x="315" 
d="M275 588h-109l-126 147h145z" />
    <glyph glyph-name="a" unicode="a" horiz-adv-x="658" 
d="M333 536c86 0 151.832 -18.835 197.499 -56.502s68.5 -94.167 68.5 -169.5v-310h-132v101c-45.333 -75.333 -120.666 -113 -225.999 -113c-66 0 -116 14.333 -150 43s-51 66.334 -51 113.001c0 51.333 21.167 90 63.5 116s105.166 42.333 188.499 49l166 13v18
c0 29.333 -10.333 52.833 -31 70.5s-52 26.834 -94 27.501c-77.333 0 -120.333 -25.333 -129 -76h-131c2.66699 42 16.834 76.333 42.501 103s56.5 45.167 92.5 55.5s77.667 15.5 125 15.5zM282.999 85.998c52.667 0 95 12.667 127 38s48 56.666 48 93.999v21l-148 -12
c-86.667 -7.33301 -130 -32.666 -130 -75.999c0 -20 8.66699 -35.833 26 -47.5s43 -17.5 77 -17.5z" />
    <glyph glyph-name="b" unicode="b" horiz-adv-x="702" 
d="M404 536c76.667 0 139.001 -24.5 187.001 -73.5s72 -115.833 72 -200.5s-24 -151.5 -72 -200.5s-110 -73.5 -186 -73.5c-44.667 0 -85.5 9.5 -122.5 28.5s-66.167 46.833 -87.5 83.5v-100h-131v736h141v-295c43.333 63.333 109.666 95 198.999 95zM361.001 97
c50 0 89.667 15 119 45s44 70 44 120s-14.667 90 -44 120s-69 45 -119 45s-89.5 -15 -118.5 -45s-43.5 -70 -43.5 -120s14.5 -90 43.5 -120s68.5 -45 118.5 -45z" />
    <glyph glyph-name="c" unicode="c" horiz-adv-x="656" 
d="M624 189c-9.33301 -64 -39.8311 -113.5 -91.498 -148.5s-116.167 -52.5 -193.5 -52.5c-93.333 0 -166.833 23.667 -220.5 71s-80.5 115 -80.5 203c0 87.333 26.667 154.833 80 202.5s125.666 71.5 216.999 71.5c75.333 0 138.666 -17 189.999 -51
s81.666 -81.667 90.999 -143l-136 -10c-8 30.667 -25.167 54.167 -51.5 70.5s-57.5 24.5 -93.5 24.5c-47.333 0 -85.333 -14.833 -114 -44.5s-43 -69.834 -43 -120.501c0 -51.333 14.5 -91.666 43.5 -120.999s68.167 -44 117.5 -44c38.667 0 70.834 8.66699 96.501 26
s42.5 42.333 50.5 75z" />
    <glyph glyph-name="d" unicode="d" horiz-adv-x="702" 
d="M497 736h141v-736h-132v100c-20.667 -36.667 -49.5 -64.5 -86.5 -83.5s-78.167 -28.5 -123.5 -28.5c-76 0 -138 24.5 -186 73.5s-72 115.833 -72 200.5s24 151.5 72 200.5s110.333 73.5 187 73.5c90 0 156.667 -31.667 200 -95v295zM340 97c50 0 89.667 15 119 45
s44 70 44 120s-14.667 90 -44 120s-69 45 -119 45c-49.333 0 -88.666 -15 -117.999 -45s-44 -70 -44 -120s14.667 -90 44 -120s68.666 -45 117.999 -45z" />
    <glyph glyph-name="e" unicode="e" horiz-adv-x="674" 
d="M638 236l-0.00195312 -16h-458c13.333 -89.333 71 -134 173 -134c66 0 112.667 21.333 140 64l137 -7c-16.667 -49.333 -48.667 -87.5 -96 -114.5s-107.666 -40.5 -180.999 -40.5c-97.333 0 -174.166 22.833 -230.499 68.5s-84.5 114.167 -84.5 205.5
c0 90.667 27.833 159 83.5 205s130.5 69 224.5 69c194.667 0 292 -100 292 -300zM345.998 438c-44.667 0 -81.5 -10.668 -110.5 -32.001s-47.167 -53.666 -54.5 -96.999h318c-3.33301 40 -18.333 71.5 -45 94.5s-62.667 34.5 -108 34.5z" />
    <glyph glyph-name="f" unicode="f" horiz-adv-x="441" 
d="M362 638c-31.333 0 -53.333 -6.16699 -66 -18.5s-19 -32.5 -19 -60.5v-35h134v-106h-134v-418h-141v418h-116v106h116v49c0 65.333 15.667 110.833 47 136.5s80.333 38.5 147 38.5c28 0 59.667 -1.66699 95 -5v-109c-24 2.66699 -45 4 -63 4z" />
    <glyph glyph-name="g" unicode="g" horiz-adv-x="697" 
d="M501 524l132.003 -0.000976562v-446c0 -101.333 -23.333 -175 -70 -221s-119.334 -69 -218.001 -69c-79.333 0 -142.5 15.167 -189.5 45.5s-72.833 75.833 -77.5 136.5h132c10.667 -50 55.667 -75 135 -75c52 0 89.5 12 112.5 36s34.5 61 34.5 111v59
c-44.667 -58.667 -109.334 -88 -194.001 -88c-77.333 0 -140 23.833 -188 71.5s-72 111.167 -72 190.5c0 78.667 24.167 141.834 72.5 189.501s111.166 71.5 188.499 71.5c92.667 0 160 -33.333 202 -100v88zM340.003 116.999c49.333 0 88.833 14.167 118.5 42.5
s44.5 65.5 44.5 111.5s-14.833 83.5 -44.5 112.5s-69.167 43.5 -118.5 43.5c-48.667 0 -87.834 -14.5 -117.501 -43.5s-44.5 -66.5 -44.5 -112.5s14.833 -83.167 44.5 -111.5s68.834 -42.5 117.501 -42.5z" />
    <glyph glyph-name="h" unicode="h" horiz-adv-x="680" 
d="M410 536c68.667 0 120.999 -18.832 156.999 -56.499s54 -92.834 54 -165.501v-314h-141v271c0 49.333 -9.66699 86.5 -29 111.5s-50.666 37.5 -93.999 37.5c-48.667 0 -86.167 -15.167 -112.5 -45.5s-39.5 -71.5 -39.5 -123.5v-251h-141v736h141v-300
c42.667 66.667 111 100 205 100z" />
    <glyph glyph-name="i" unicode="i" horiz-adv-x="269" 
d="M59 596v132h151v-132h-151zM64 0v524h141v-524h-141z" />
    <glyph glyph-name="j" unicode="j" horiz-adv-x="269" 
d="M59 596v132h151v-132h-151zM64 524h141v-570c0 -60 -12.167 -102.667 -36.5 -128s-65.833 -38 -124.5 -38c-16 0 -44.667 1.33301 -86 4v114c21.333 -1.33301 34 -2 38 -2c24.667 0 42.167 5.5 52.5 16.5s15.5 33.167 15.5 66.5v537z" />
    <glyph glyph-name="k" unicode="k" horiz-adv-x="653" 
d="M462 0l-187 209h-70v-209h-141v736h141v-417h70l181 205h171l-252 -248l268 -276h-181z" />
    <glyph glyph-name="l" unicode="l" horiz-adv-x="269" 
d="M64 736h141v-736h-141v736z" />
    <glyph glyph-name="m" unicode="m" horiz-adv-x="1027" 
d="M774 536c61.333 0 109.164 -18.502 143.497 -55.502s51.5 -89.167 51.5 -156.5v-324h-141v288c0 40.667 -9.16699 72.834 -27.5 96.501s-45.166 35.5 -80.499 35.5c-40.667 0 -73 -14.833 -97 -44.5s-36 -71.167 -36 -124.5v-251h-141v288c0 40.667 -9 72.834 -27 96.501
s-45 35.5 -81 35.5c-40.667 0 -73 -14.833 -97 -44.5s-36 -71.167 -36 -124.5v-251h-141v524h131v-102c40.667 76 106.334 114 197.001 114c93.333 0 154 -40.333 182 -121c18.667 39.333 45.334 69.333 80.001 90s74.667 31 120 31z" />
    <glyph glyph-name="n" unicode="n" horiz-adv-x="680" 
d="M411 536c68.667 0 120.832 -18.832 156.499 -56.499s53.5 -92.834 53.5 -165.501v-314h-141v271c0 49.333 -9.66699 86.5 -29 111.5s-50.666 37.5 -93.999 37.5c-48.667 0 -86.167 -15.167 -112.5 -45.5s-39.5 -71.5 -39.5 -123.5v-251h-141v524h131v-104
c42 77.333 114 116 216 116z" />
    <glyph glyph-name="o" unicode="o" horiz-adv-x="690" 
d="M38 262c0 85.333 27.667 152.333 83 201s130 73 224 73s168.5 -24.333 223.5 -73s82.5 -115.667 82.5 -201s-27.5 -152.333 -82.5 -201s-129.5 -73 -223.5 -73s-168.667 24.333 -224 73s-83 115.667 -83 201zM178 262c0 -48.667 15 -88.334 45 -119.001
s70.667 -46 122 -46s92 15.333 122 46s45 70.334 45 119.001s-15 88.334 -45 119.001s-70.667 46 -122 46s-92 -15.333 -122 -46s-45 -70.334 -45 -119.001z" />
    <glyph glyph-name="p" unicode="p" horiz-adv-x="702" 
d="M404 536c76.667 0 138.999 -24.5 186.999 -73.5s72 -115.833 72 -200.5s-24 -151.5 -72 -200.5s-110 -73.5 -186 -73.5c-89.333 0 -156 32.333 -200 97v-285h-141v724h131v-98c42.667 73.333 112.334 110 209.001 110zM360.999 97c50 0 89.667 15 119 45s44 70 44 120
s-14.667 90 -44 120s-69 45 -119 45s-89.5 -15 -118.5 -45s-43.5 -70 -43.5 -120s14.5 -90 43.5 -120s68.5 -45 118.5 -45z" />
    <glyph glyph-name="q" unicode="q" horiz-adv-x="702" 
d="M506 524h132v-724h-141v285c-44 -64.667 -111 -97 -201 -97c-76 0 -138 24.5 -186 73.5s-72 115.833 -72 200.5s24 151.5 72 200.5s110.333 73.5 187 73.5c98 0 167.667 -36.667 209 -110v98zM340 97c50 0 89.667 15 119 45s44 70 44 120s-14.667 90 -44 120
s-69 45 -119 45c-49.333 0 -88.666 -15 -117.999 -45s-44 -70 -44 -120s14.667 -90 44 -120s68.666 -45 117.999 -45z" />
    <glyph glyph-name="r" unicode="r" horiz-adv-x="479" 
d="M376 535c21.333 0 44.333 -2.33301 69 -7v-125c-28 5.33301 -57.333 8 -88 8c-52 0 -90.333 -14.833 -115 -44.5s-37 -77.167 -37 -142.5v-224h-141l1 524h131v-112c36 82 96 123 180 123z" />
    <glyph glyph-name="s" unicode="s" horiz-adv-x="599" 
d="M425 365c-5.33301 23.333 -20.835 41.332 -46.502 53.999s-58.5 19 -98.5 19c-65.333 0 -98 -17 -98 -51c0 -26 25.333 -45 76 -57l147 -32c110 -24.667 165 -75.334 165 -152.001c0 -53.333 -24.5 -93 -73.5 -119s-115.5 -39 -199.5 -39c-171.333 0 -263 57 -275 171
l130 5c9.33301 -52 60 -78 152 -78c84.667 0 127 17.667 127 53c0 24.667 -29.667 44.334 -89 59.001l-151 33c-99.333 24 -149 74.333 -149 151c0 36 11.333 65.833 34 89.5s51.334 40.334 86.001 50.001s75 14.5 121 14.5c74.667 0 136.834 -13.5 186.501 -40.5
s78.167 -68.5 85.5 -124.5z" />
    <glyph glyph-name="t" unicode="t" horiz-adv-x="470" 
d="M435 418h-147v-229c0 -31.333 5.16699 -53 15.5 -65s30.5 -18 60.5 -18c15.333 0 39 2 71 6v-114c-33.333 -5.33301 -66.666 -8 -99.999 -8c-66 0 -113.833 13.5 -143.5 40.5s-44.5 72.833 -44.5 137.5v250h-128v104h94c15.333 0 26.166 2.83301 32.499 8.5
s9.5 15.167 9.5 28.5v88h133v-123h147v-106z" />
    <glyph glyph-name="u" unicode="u" horiz-adv-x="680" 
d="M475 524l141 0.000976562v-524h-131v112c-41.333 -82.667 -113 -124 -215 -124c-68 0 -120.167 19.667 -156.5 59s-54.5 95.666 -54.5 168.999v308h141v-265c0 -103.333 41.667 -155 125 -155c48 0 85 16.833 111 50.5s39 77.167 39 130.5v239z" />
    <glyph glyph-name="v" unicode="v" horiz-adv-x="655" 
d="M488 524h151l-207 -524h-212l-204 524h153l159 -446z" />
    <glyph glyph-name="w" unicode="w" horiz-adv-x="1012" 
d="M838 524h152l-174 -524h-199l-109 450l-112 -450h-203l-171 524h155l124 -427l110 427h197l107 -417z" />
    <glyph glyph-name="x" unicode="x" horiz-adv-x="669" 
d="M649 0h-170l-147 181l-147 -181h-165l229 267l-217 257h171l132 -170l133 170h165l-216 -254z" />
    <glyph glyph-name="y" unicode="y" horiz-adv-x="662" 
d="M493 524h151.999l-206 -564c-23.333 -66 -52.166 -111.167 -86.499 -135.5s-85.5 -36.5 -153.5 -36.5c-26.667 0 -53.334 1.33301 -80.001 4v109c24.667 -2 48.334 -3 71.001 -3c33.333 0 58.333 5.16699 75 15.5s30.667 30.833 42 61.5l9 25h-74l-224 524h153l178 -459z
" />
    <glyph glyph-name="z" unicode="z" horiz-adv-x="584" 
d="M206 110h355v-110h-541v97l344 317h-321v110h508v-97z" />
    <glyph glyph-name="braceleft" unicode="{" horiz-adv-x="372" 
d="M254 437c0 -84 -42.001 -131.332 -126.001 -141.999v-4c84 -12 126 -59.333 126 -142v-110c0 -32.667 7.33301 -56.334 22 -71.001s36.334 -22 65.001 -22h9v-96h-14c-66 0 -116.167 13.333 -150.5 40s-51.5 74 -51.5 142v102c0 73.333 -30.667 110 -92 110h-9v97h9
c61.333 0 92 37 92 111v101c0 68 17.167 115.5 51.5 142.5s84.5 40.5 150.5 40.5h14v-96h-9c-58 0 -87 -31.333 -87 -94v-109z" />
    <glyph glyph-name="bar" unicode="|" horiz-adv-x="271" 
d="M84 736h103v-857h-103v857z" />
    <glyph glyph-name="braceright" unicode="}" horiz-adv-x="372" 
d="M238 452c0 -74 30.667 -110.999 92 -110.999h9v-97h-9c-61.333 0 -92 -36.667 -92 -110v-102c0 -68 -17.167 -115.333 -51.5 -142s-84.5 -40 -150.5 -40h-14v96h9c29.333 0 51.166 7.16699 65.499 21.5s21.5 38.166 21.5 71.499v110c0 82.667 42.333 130 127 142v4
c-84.667 10.667 -127 58 -127 142v109c0 33.333 -7.16699 57.333 -21.5 72s-36.166 22 -65.499 22h-9v96h14c66 0 116.167 -13.5 150.5 -40.5s51.5 -74.5 51.5 -142.5v-101z" />
    <glyph glyph-name="asciitilde" unicode="~" horiz-adv-x="612" 
d="M456 408l82.999 0.000976562c0 -44 -9.66699 -80.667 -29 -110s-51.666 -44 -96.999 -44c-22.667 0 -44.667 4.16699 -66 12.5s-38.5 17.666 -51.5 27.999s-27.333 19.666 -43 27.999s-30.167 12.5 -43.5 12.5c-16.667 0 -29.667 -6 -39 -18s-14 -27.667 -14 -47h-83
c0 44 9.66699 80.5 29 109.5s51.666 43.5 96.999 43.5c29.333 0 56.833 -6.66699 82.5 -20s48.334 -26.666 68.001 -39.999s37.5 -20 53.5 -20c17.333 0 30.5 5.83301 39.5 17.5s13.5 27.5 13.5 47.5z" />
    <glyph glyph-name="uni00A0" unicode="&#xa0;" horiz-adv-x="265" 
 />
    <glyph glyph-name="exclamdown" unicode="&#xa1;" horiz-adv-x="323" 
d="M83 524h157v-154h-157v154zM220 293l15 -469h-147l15 469h117z" />
    <glyph glyph-name="cent" unicode="&#xa2;" horiz-adv-x="643" 
d="M611 181c-10 -58 -37.1689 -103.499 -81.502 -136.499s-100.166 -51.5 -167.499 -55.5v-75h-63v75c-81.333 6 -145.166 32.5 -191.499 79.5s-69.5 111.5 -69.5 193.5s23.333 146.667 70 194s110.334 73.666 191.001 78.999v75h63v-75
c64.667 -5.33301 118.667 -23.833 162 -55.5s70 -75.167 80 -130.5l-128 -11c-15.333 51.333 -53.333 82 -114 92v-337c65.333 8.66699 105.666 41 120.999 97zM168.998 262.001c0 -46.667 11.5 -84.668 34.5 -114.001s54.833 -47.333 95.5 -54v336
c-40 -6 -71.667 -23.667 -95 -53s-35 -67.666 -35 -114.999z" />
    <glyph glyph-name="sterling" unicode="&#xa3;" horiz-adv-x="635" 
d="M157 117h460.999v-117h-600v102c74 52.667 111 109.667 111 171c0 11.333 -1.66699 24.333 -5 39h-92v77h72c-10 37.333 -15 71.333 -15 102c0 68 22.667 119.833 68 155.5s108.333 53.5 189 53.5c80 0 139.667 -18 179 -54s62.333 -88.333 69 -157l-136 -9
c-7.33301 68.667 -44.666 103 -111.999 103c-36.667 0 -65 -9.33301 -85 -28s-30 -46 -30 -82c0 -24.667 4.66699 -52.667 14 -84h216v-77h-195c3.33301 -18 5 -33.333 5 -46c0 -59.333 -38 -109 -114 -149z" />
    <glyph glyph-name="currency" unicode="&#xa4;" horiz-adv-x="654" 
d="M621 98l-74 -73l-79 74c-41.333 -22.667 -88.333 -34 -141 -34s-99.667 11.333 -141 34l-77 -73l-74 74l75 72c-24 37.333 -36 81.333 -36 132c0 51.333 12 95.666 36 132.999l-76 74l73 73l79 -75c41.333 22.667 88.333 34 141 34c53.333 0 100 -11.333 140 -34l78 74
l74 -75l-75 -71c24 -37.333 36 -81.666 36 -132.999c0 -50.667 -12 -94.667 -36 -132zM191 304c0 -39.333 12.333 -70.666 37 -93.999s57.667 -35 99 -35s74.333 11.667 99 35s37 54.666 37 93.999c0 40 -12.333 71.667 -37 95s-57.667 35 -99 35s-74.333 -11.667 -99 -35
s-37 -55 -37 -95z" />
    <glyph glyph-name="yen" unicode="&#xa5;" horiz-adv-x="747" 
d="M444 312v-4h214v-68h-214v-55h214v-69h-214v-116h-142v116h-214v69h214v55h-214v68h214v6l-288 374h164l196 -278l200 278h158z" />
    <glyph glyph-name="brokenbar" unicode="&#xa6;" horiz-adv-x="271" 
d="M84 736h103v-347h-103v347zM84 242h103v-363h-103v363z" />
    <glyph glyph-name="section" unicode="&#xa7;" horiz-adv-x="549" 
d="M423 198c57.333 -29.333 86.002 -74.667 86.002 -136c0 -54 -20.5 -94.167 -61.5 -120.5s-95.5 -39.5 -163.5 -39.5c-67.333 0 -122.5 14.333 -165.5 43s-66.5 72.667 -70.5 132l119 4c3.33301 -28 15.166 -49.167 35.499 -63.5s47.5 -21.5 81.5 -21.5
c27.333 0 50.166 5 68.499 15s27.5 24.667 27.5 44c0 16 -6 29 -18 39s-33 19.333 -63 28l-128 34c-44.667 11.333 -78.5 30 -101.5 56s-34.5 55.333 -34.5 88c0 54.667 32.667 95.667 98 123c-52.667 29.333 -79 74.333 -79 135c0 52.667 19.667 91.5 59 116.5
s89 37.5 149 37.5c60.667 0 112.667 -14 156 -42s68.333 -70 75 -126l-121 -6c-4 26 -16.167 45.833 -36.5 59.5s-44.833 20.5 -73.5 20.5c-24.667 0 -44 -5 -58 -15s-21 -23.667 -21 -41c0 -30.667 25.333 -52.667 76 -66l117 -31c44.667 -12 79.5 -30.5 104.5 -55.5
s37.5 -55.167 37.5 -90.5c0 -54 -31.667 -94.333 -95 -121zM244.002 249.999l83 -21.001c46 12.667 69 34.334 69 65.001c0 32.667 -29 57 -87 73l-79 22c-48 -14 -72 -36.333 -72 -67c0 -33.333 28.667 -57.333 86 -72z" />
    <glyph glyph-name="dieresis" unicode="&#xa8;" horiz-adv-x="417" 
d="M40 598v118h126v-118h-126zM251 598v118h126v-118h-126z" />
    <glyph glyph-name="copyright" unicode="&#xa9;" horiz-adv-x="811" 
d="M44 350c0 108.667 34 196.167 102 262.5s154.667 99.5 260 99.5s192 -33.167 260 -99.5s102 -153.833 102 -262.5s-34 -196.167 -102 -262.5s-154.667 -99.5 -260 -99.5s-192 33.167 -260 99.5s-102 153.833 -102 262.5zM119 350c0 -84 26.833 -154 80.5 -210
s122.5 -84 206.5 -84s152.833 28 206.5 84s80.5 126 80.5 210s-26.833 154 -80.5 210s-122.5 84 -206.5 84s-152.833 -28 -206.5 -84s-80.5 -126 -80.5 -210zM233 350c0 64.667 15.6689 114.498 47.002 149.498s74 52.5 128 52.5c45.333 0 83.333 -12.5 114 -37.5
s48.334 -59.833 53.001 -104.5l-92 -8c-8 49.333 -33 74 -75 74c-24 0 -43.167 -11.167 -57.5 -33.5s-21.5 -53.166 -21.5 -92.499s7.33301 -70.166 22 -92.499s34.667 -33.5 60 -33.5c43.333 0 68.666 26.333 75.999 79l93 -6c-4.66699 -47.333 -22.334 -84 -53.001 -110
s-69.334 -39 -116.001 -39c-55.333 0 -98.833 17.667 -130.5 53s-47.5 85 -47.5 149z" />
    <glyph glyph-name="guillemotleft" unicode="&#xab;" horiz-adv-x="578" 
d="M310 465l-172 -185l172 -185h-136l-146 159v52l146 159h136zM538 465l-172 -185l172 -185h-136l-146 159v52l146 159h136z" />
    <glyph glyph-name="logicalnot" unicode="&#xac;" horiz-adv-x="549" 
d="M63 380h412v-218h-101v122h-311v96z" />
    <glyph glyph-name="registered" unicode="&#xae;" horiz-adv-x="571" 
d="M286 712c70 0 129.167 -23.5 177.5 -70.5s72.5 -106.833 72.5 -179.5s-24.167 -132.5 -72.5 -179.5s-107.5 -70.5 -177.5 -70.5c-70.667 0 -130 23.5 -178 70.5s-72 106.833 -72 179.5s24 132.5 72 179.5s107.333 70.5 178 70.5zM286 258
c58.667 0 106.834 19.333 144.501 58s56.5 87.334 56.5 146.001s-18.833 107.334 -56.5 146.001s-85.834 58 -144.501 58c-59.333 0 -107.833 -19.333 -145.5 -58s-56.5 -87.334 -56.5 -146.001s18.833 -107.334 56.5 -146.001s86.167 -58 145.5 -58zM376 516
c0 -43.333 -15.667 -68.667 -47 -76l55 -103h-56l-47 101h-23v-101h-49v259h93c20.667 0 38.167 -6.66699 52.5 -20s21.5 -33.333 21.5 -60zM295 474.999c22 0 33 13.667 33 41c0 26.667 -10.667 40 -32 40h-38v-81h37z" />
    <glyph glyph-name="macron" unicode="&#xaf;" horiz-adv-x="439" 
d="M40 610v92h359v-92h-359z" />
    <glyph glyph-name="degree" unicode="&#xb0;" horiz-adv-x="412" 
d="M25 536c0 53.333 17.333 96 52 128s77.667 48 129 48c52 0 95.167 -16 129.5 -48s51.5 -74.667 51.5 -128s-17.167 -95.833 -51.5 -127.5s-77.5 -47.5 -129.5 -47.5s-95.167 15.833 -129.5 47.5s-51.5 74.167 -51.5 127.5zM114 536c0 -26.667 8.66699 -48.5 26 -65.5
s39.333 -25.5 66 -25.5s48.667 8.5 66 25.5s26 38.833 26 65.5s-8.66699 48.5 -26 65.5s-39.333 25.5 -66 25.5s-48.667 -8.5 -66 -25.5s-26 -38.833 -26 -65.5z" />
    <glyph glyph-name="plusminus" unicode="&#xb1;" horiz-adv-x="561" 
d="M329 434h162v-94h-162v-120h-97v120h-163v94h163v134h97v-134zM69 66v94h422v-94h-422z" />
    <glyph glyph-name="uni00B2" unicode="&#xb2;" horiz-adv-x="419" 
d="M173 419h220.999v-88h-376v80l162 119c32.667 24 56.167 43.667 70.5 59s21.5 31.333 21.5 48c0 15.333 -5.5 27.333 -16.5 36s-25.5 13 -43.5 13c-44 0 -69.333 -26.333 -76 -79l-105 8c4 54 22.333 94 55 120s74.667 39 126 39c48 0 88 -11.333 120 -34
s48 -55.667 48 -99c0 -25.333 -7.66699 -49.333 -23 -72s-42.666 -48 -81.999 -76z" />
    <glyph glyph-name="uni00B3" unicode="&#xb3;" horiz-adv-x="436" 
d="M254 597c100.667 -8 150.999 -51 150.999 -129c0 -48 -18.833 -83.667 -56.5 -107s-85.167 -35 -142.5 -35c-54 0 -98.333 11.667 -133 35s-55 57.666 -61 102.999l106 7c6.66699 -38 36 -57 88 -57c28 0 50 5.16699 66 15.5s24 24.833 24 43.5
c0 16.667 -7.5 30.334 -22.5 41.001s-37.167 16 -66.5 16c-23.333 0 -48.666 -2.33301 -75.999 -7v67l120 86h-212v88h351v-78z" />
    <glyph glyph-name="acute" unicode="&#xb4;" horiz-adv-x="315" 
d="M40 588l89 147h146l-126 -147h-109z" />
    <glyph glyph-name="paragraph" unicode="&#xb6;" horiz-adv-x="617" 
d="M52 503c0 59.333 20 107 60 143s93.333 54 160 54h72v-794h-86v400c-62 0 -111.833 18.333 -149.5 55s-56.5 84 -56.5 142zM435 700h86v-794h-86v794z" />
    <glyph glyph-name="periodcentered" unicode="&#xb7;" horiz-adv-x="285" 
d="M64 234v154h157v-154h-157z" />
    <glyph glyph-name="cedilla" unicode="&#xb8;" horiz-adv-x="331" 
d="M190 -48c26 0 49.333 -6.66602 70 -19.999s31 -33.666 31 -60.999c0 -30.667 -12.167 -52.834 -36.5 -66.501s-53.833 -20.5 -88.5 -20.5s-63.167 6.5 -85.5 19.5s-35.833 31.833 -40.5 56.5l61 3c6.66699 -19.333 24 -29 52 -29c33.333 0 50 12.333 50 37
c0 11.333 -4.33301 20.166 -13 26.499s-19.667 9.5 -33 9.5c-15.333 0 -31 -3.66699 -47 -11l-50 21l53 83h56l-40 -62c22.667 9.33301 43 14 61 14z" />
    <glyph glyph-name="uni00B9" unicode="&#xb9;" horiz-adv-x="326" 
d="M147 764h90v-431h-109v314l-91 -65v106z" />
    <glyph glyph-name="guillemotright" unicode="&#xbb;" horiz-adv-x="578" 
d="M322 306v-52l-146 -159h-136l172 185l-172 185h136zM404 465l146 -159v-52l-146 -159h-136l172 185l-172 185h136z" />
    <glyph glyph-name="onequarter" unicode="&#xbc;" horiz-adv-x="820" 
d="M117 340v257l-87 -48v93l105 58h74v-360h-92zM584 700h101l-523 -700h-101zM800 149v-75h-68v-74h-92v74h-217v68l161 218h148v-211h68zM518 149h122v170z" />
    <glyph glyph-name="onehalf" unicode="&#xbd;" horiz-adv-x="828" 
d="M116 340v257l-88 -48v93l105 58h74v-360h-91zM582 700h101l-523 -700h-102zM609 74h192.999v-74h-324v68l142 99c28 19.333 48.167 35.5 60.5 48.5s18.5 26.833 18.5 41.5c0 12 -5 21.833 -15 29.5s-23.333 11.5 -40 11.5c-39.333 0 -61.333 -22 -66 -66l-89 7
c4 44.667 20 78 48 100s63.667 33 107 33c42 0 76.833 -9.5 104.5 -28.5s41.5 -46.833 41.5 -83.5c0 -22 -6.66699 -42.5 -20 -61.5s-36.666 -39.5 -69.999 -61.5z" />
    <glyph glyph-name="threequarters" unicode="&#xbe;" horiz-adv-x="925" 
d="M366 451c0 -42 -16.6689 -73 -50.002 -93s-75.666 -30 -126.999 -30c-104.667 0 -161.667 39 -171 117l91 6c4.66699 -34 31.334 -51 80.001 -51c26 0 46.667 4.5 62 13.5s23 21.5 23 37.5c0 14.667 -7 26.5 -21 35.5s-34.667 13.5 -62 13.5c-20 0 -43.333 -2 -70 -6v60
l114 74h-194v72h312v-65l-125 -74c92 -8 138 -44.667 138 -110zM687.998 700h102l-524 -700h-101zM903.998 149v-75h-67v-74h-92v74h-218v68l161 218h149v-211h67zM621.998 149h123v170z" />
    <glyph glyph-name="questiondown" unicode="&#xbf;" horiz-adv-x="602" 
d="M397 524v-154h-157v154h157zM583 50c-7.33301 -79.333 -36.998 -138.832 -88.998 -178.499s-119 -59.5 -201 -59.5c-75.333 0 -137.5 15.833 -186.5 47.5s-73.5 78.834 -73.5 141.501c0 39.333 10.667 73 32 101s55.333 56 102 84c34 20 56.5 35.833 67.5 47.5
s16.5 27.167 16.5 46.5v10h135v-16c0 -37.333 -7 -66.5 -21 -87.5s-39.667 -41.5 -77 -61.5c-18.667 -10.667 -33.167 -19.334 -43.5 -26.001s-21.833 -15.167 -34.5 -25.5s-21.834 -20.833 -27.501 -31.5s-8.5 -22.334 -8.5 -35.001c0 -26 11 -45.833 33 -59.5
s50.667 -20.5 86 -20.5c93.333 0 145.666 43.667 156.999 131z" />
    <glyph glyph-name="Agrave" unicode="&#xc0;" horiz-adv-x="800" 
d="M467 760h-110l-136 122h145zM634 0l-60 160h-353l-60 -160h-146l274 700h221l276 -700h-152zM264 272h268l-134 357z" />
    <glyph glyph-name="Aacute" unicode="&#xc1;" horiz-adv-x="800" 
d="M579 882l-135 -122h-110l101 122h144zM634 0l-60 160h-353l-60 -160h-146l274 700h221l276 -700h-152zM264 272h268l-134 357z" />
    <glyph glyph-name="Acircumflex" unicode="&#xc2;" horiz-adv-x="800" 
d="M401 844l-93 -82h-105l119 121h158l117 -121h-104zM634 0l-60 160h-353l-60 -160h-146l274 700h221l276 -700h-152zM264 272h268l-134 357z" />
    <glyph glyph-name="Atilde" unicode="&#xc3;" horiz-adv-x="800" 
d="M328 806c-24.667 0 -37 -13.668 -37 -41.001h-73c0 78 33.667 117 101 117c28.667 0 58.5 -8.5 89.5 -25.5s52.167 -25.5 63.5 -25.5c12 0 21.333 3.83301 28 11.5s10 17.834 10 30.501h73c0 -78 -33.667 -117 -101 -117c-28.667 0 -58.5 8.33301 -89.5 25
s-52.5 25 -64.5 25zM634 -0.000976562l-60 160h-353l-60 -160h-146l274 700h221l276 -700h-152zM264 271.999h268l-134 357z" />
    <glyph glyph-name="Adieresis" unicode="&#xc4;" horiz-adv-x="800" 
d="M353 873v-112h-140v112h140zM588 873v-112h-140v112h140zM634 0l-60 160h-353l-60 -160h-146l274 700h221l276 -700h-152zM264 272h268l-134 357z" />
    <glyph glyph-name="Aring" unicode="&#xc5;" horiz-adv-x="800" 
d="M400 744c-35.333 0 -65.166 9 -89.499 27s-36.5 43.667 -36.5 77s12.167 59 36.5 77s54.166 27 89.499 27s65.333 -9 90 -27s37 -43.667 37 -77s-12.333 -59 -37 -77s-54.667 -27 -90 -27zM400 893c-17.333 0 -31.666 -4.16602 -42.999 -12.499s-17 -19.166 -17 -32.499
c0 -14 5.66699 -25 17 -33s25.666 -12 42.999 -12s31.833 4.16699 43.5 12.5s17.5 19.166 17.5 32.499s-5.83301 24.166 -17.5 32.499s-26.167 12.5 -43.5 12.5zM634 0.000976562l-60 160h-353l-60 -160h-146l274 700h221l276 -700h-152zM264 272.001h268l-134 357z" />
    <glyph glyph-name="AE" unicode="&#xc6;" horiz-adv-x="1199" 
d="M704 116h451v-116h-599v160h-292l-92 -160h-162l420 700h708v-116h-434v-173h341v-110h-341v-185zM329 272h227v312h-48z" />
    <glyph glyph-name="Ccedilla" unicode="&#xc7;" horiz-adv-x="796" 
d="M420 -12c-11.333 0 -20 0.333984 -26 1.00098l-33 -51c22.667 9.33301 43.334 14 62.001 14c26 0 49.167 -6.66699 69.5 -20s30.5 -33.666 30.5 -60.999c0 -30.667 -12.167 -52.834 -36.5 -66.501s-53.833 -20.5 -88.5 -20.5s-63.167 6.5 -85.5 19.5
s-35.833 31.833 -40.5 56.5l61 3c6.66699 -19.333 24 -29 52 -29c34 0 51 12.333 51 37c0 11.333 -4.5 20.166 -13.5 26.499s-19.833 9.5 -32.5 9.5c-15.333 0 -31 -3.66699 -47 -11l-50 21l48 77c-94.667 14 -167.834 52.5 -219.501 115.5s-77.5 143.167 -77.5 240.5
c0 110.667 32.167 198.667 96.5 264s154.5 98 270.5 98c94.667 0 172 -21.5 232 -64.5s96 -101.167 108 -174.5l-142 -11c-8.66699 39.333 -31.167 70.833 -67.5 94.5s-79.833 35.5 -130.5 35.5c-71.333 0 -125.666 -22.833 -162.999 -68.5s-56 -103.5 -56 -173.5
c0 -72 20 -130.333 60 -175s96 -67 168 -67c55.333 0 100.166 13.167 134.499 39.5s55.833 60.166 64.5 101.499l143 -9c-12 -79.333 -47 -141.166 -105 -185.499s-137 -66.5 -237 -66.5z" />
    <glyph glyph-name="Egrave" unicode="&#xc8;" horiz-adv-x="726" 
d="M433 760h-110l-135 122h144zM232 116h450v-116h-598v700h581v-116h-433v-173h341v-110h-341v-185z" />
    <glyph glyph-name="Eacute" unicode="&#xc9;" horiz-adv-x="726" 
d="M538 882l-135 -122h-110l101 122h144zM232 116h450v-116h-598v700h581v-116h-433v-173h341v-110h-341v-185z" />
    <glyph glyph-name="Ecircumflex" unicode="&#xca;" horiz-adv-x="726" 
d="M364 844l-93 -82h-104l118 121h158l117 -121h-103zM232 116h450v-116h-598v700h581v-116h-433v-173h341v-110h-341v-185z" />
    <glyph glyph-name="Edieresis" unicode="&#xcb;" horiz-adv-x="726" 
d="M316 873v-112h-140v112h140zM551 873v-112h-140v112h140zM232 116h450v-116h-598v700h581v-116h-433v-173h341v-110h-341v-185z" />
    <glyph glyph-name="Igrave" unicode="&#xcc;" horiz-adv-x="315" 
d="M216 760h-106l-123 122h143zM84 0v700h148v-700h-148z" />
    <glyph glyph-name="Iacute" unicode="&#xcd;" horiz-adv-x="315" 
d="M99 760l86 122h142l-123 -122h-105zM84 0v700h148v-700h-148z" />
    <glyph glyph-name="Icircumflex" unicode="&#xce;" horiz-adv-x="316" 
d="M238 883l117 -121h-103l-93 82l-93 -82h-104l118 121h158zM84 0v700h148v-700h-148z" />
    <glyph glyph-name="Idieresis" unicode="&#xcf;" horiz-adv-x="315" 
d="M-7 761v112h127v-112h-127zM195 761v112h127v-112h-127zM83 0v700h148v-700h-148z" />
    <glyph glyph-name="Eth" unicode="&#xd0;" horiz-adv-x="842" 
d="M430 700c116 0 206.333 -31 271 -93s97 -147.667 97 -257s-32.333 -195 -97 -257s-155 -93 -271 -93h-322v298h-78v104h78v298h322zM414 121c76.667 0 135.167 20.333 175.5 61s60.5 96.667 60.5 168s-20.167 127.333 -60.5 168s-98.833 61 -175.5 61h-158v-177h202v-104
h-202v-177h158z" />
    <glyph glyph-name="Ntilde" unicode="&#xd1;" horiz-adv-x="855" 
d="M356 806c-24.667 0 -37 -13.667 -37 -41h-73c0 78 33.333 117 100 117c28.667 0 58.667 -8.5 90 -25.5s52.666 -25.5 63.999 -25.5c24.667 0 37 14 37 42h73c0 -78 -33.333 -117 -100 -117c-28.667 0 -58.667 8.33301 -90 25s-52.666 25 -63.999 25zM630 700h141v-700
h-249l-297 614v-614h-141v700h250l296 -614v614z" />
    <glyph glyph-name="Ograve" unicode="&#xd2;" horiz-adv-x="852" 
d="M496 760h-110l-135 122h144zM44 350c0 111.333 33.333 199.5 100 264.5s160.667 97.5 282 97.5s215.5 -32.5 282.5 -97.5s100.5 -153.167 100.5 -264.5s-33.5 -199.5 -100.5 -264.5s-161.167 -97.5 -282.5 -97.5s-215.333 32.5 -282 97.5s-100 153.167 -100 264.5z
M192 350c0 -72 20.5 -130.333 61.5 -175s98.5 -67 172.5 -67s131.667 22.333 173 67s62 103 62 175s-20.667 130.333 -62 175s-99 67 -173 67s-131.5 -22.333 -172.5 -67s-61.5 -103 -61.5 -175z" />
    <glyph glyph-name="Oacute" unicode="&#xd3;" horiz-adv-x="852" 
d="M356 760l101 122h144l-135 -122h-110zM44 350c0 111.333 33.333 199.5 100 264.5s160.667 97.5 282 97.5s215.5 -32.5 282.5 -97.5s100.5 -153.167 100.5 -264.5s-33.5 -199.5 -100.5 -264.5s-161.167 -97.5 -282.5 -97.5s-215.333 32.5 -282 97.5
s-100 153.167 -100 264.5zM192 350c0 -72 20.5 -130.333 61.5 -175s98.5 -67 172.5 -67s131.667 22.333 173 67s62 103 62 175s-20.667 130.333 -62 175s-99 67 -173 67s-131.5 -22.333 -172.5 -67s-61.5 -103 -61.5 -175z" />
    <glyph glyph-name="Ocircumflex" unicode="&#xd4;" horiz-adv-x="852" 
d="M427 844l-93 -82h-104l118 121h158l117 -121h-104zM426 712c121.333 0 215.5 -32.5 282.5 -97.5s100.5 -153.167 100.5 -264.5s-33.5 -199.5 -100.5 -264.5s-161.167 -97.5 -282.5 -97.5s-215.333 32.5 -282 97.5s-100 153.167 -100 264.5s33.333 199.5 100 264.5
s160.667 97.5 282 97.5zM426 108c74 0 131.667 22.333 173 67s62 103 62 175s-20.667 130.333 -62 175s-99 67 -173 67s-131.5 -22.333 -172.5 -67s-61.5 -103 -61.5 -175s20.5 -130.333 61.5 -175s98.5 -67 172.5 -67z" />
    <glyph glyph-name="Otilde" unicode="&#xd5;" horiz-adv-x="852" 
d="M244 765c0 78 33.667 117 101 117c28.667 0 58.5 -8.5 89.5 -25.5s52.5 -25.5 64.5 -25.5c24.667 0 37 14 37 42h73c0 -78 -33.667 -117 -101 -117c-28.667 0 -58.5 8.33301 -89.5 25s-52.5 25 -64.5 25c-24.667 0 -37 -13.667 -37 -41h-73zM44 350
c0 111.333 33.333 199.5 100 264.5s160.667 97.5 282 97.5s215.5 -32.5 282.5 -97.5s100.5 -153.167 100.5 -264.5s-33.5 -199.5 -100.5 -264.5s-161.167 -97.5 -282.5 -97.5s-215.333 32.5 -282 97.5s-100 153.167 -100 264.5zM192 350c0 -72 20.5 -130.333 61.5 -175
s98.5 -67 172.5 -67s131.667 22.333 173 67s62 103 62 175s-20.667 130.333 -62 175s-99 67 -173 67s-131.5 -22.333 -172.5 -67s-61.5 -103 -61.5 -175z" />
    <glyph glyph-name="Odieresis" unicode="&#xd6;" horiz-adv-x="852" 
d="M239 761v112h140v-112h-140zM474 761v112h140v-112h-140zM44 350c0 111.333 33.333 199.5 100 264.5s160.667 97.5 282 97.5s215.5 -32.5 282.5 -97.5s100.5 -153.167 100.5 -264.5s-33.5 -199.5 -100.5 -264.5s-161.167 -97.5 -282.5 -97.5s-215.333 32.5 -282 97.5
s-100 153.167 -100 264.5zM192 350c0 -72 20.5 -130.333 61.5 -175s98.5 -67 172.5 -67s131.667 22.333 173 67s62 103 62 175s-20.667 130.333 -62 175s-99 67 -173 67s-131.5 -22.333 -172.5 -67s-61.5 -103 -61.5 -175z" />
    <glyph glyph-name="multiply" unicode="&#xd7;" horiz-adv-x="548" 
d="M486 464l-142 -134l142 -134l-67 -68l-144 136l-144 -136l-68 68l142 134l-142 134l68 67l144 -136l144 136z" />
    <glyph glyph-name="Oslash" unicode="&#xd8;" horiz-adv-x="852" 
d="M714 608c63.333 -64.667 95 -150.667 95 -258c0 -111.333 -33.5 -199.5 -100.5 -264.5s-161.167 -97.5 -282.5 -97.5c-84.667 0 -156.667 16.333 -216 49l-63 -70l-74 51l65 74c-62.667 64 -94 150 -94 258c0 111.333 33.333 199.5 100 264.5s160.667 97.5 282 97.5
c85.333 0 157.333 -16.667 216 -50l63 71l74 -51zM192 350c0 -59.333 13.667 -109.333 41 -150l320 361c-36 20.667 -78.333 31 -127 31c-74 0 -131.5 -22.333 -172.5 -67s-61.5 -103 -61.5 -175zM426 108c74 0 131.667 22.333 173 67s62 103 62 175
c0 58.667 -14 108.667 -42 150l-320 -361c36 -20.667 78.333 -31 127 -31z" />
    <glyph glyph-name="Ugrave" unicode="&#xd9;" horiz-adv-x="844" 
d="M492 760h-110l-135 122h144zM422 -12c-112 0 -196.333 24.833 -253 74.5s-85 122.167 -85 217.5v420h148v-407c0 -122.667 63.333 -184 190 -184s190 61.333 190 184v407h148v-420c0 -95.333 -28.333 -167.833 -85 -217.5s-141 -74.5 -253 -74.5z" />
    <glyph glyph-name="Uacute" unicode="&#xda;" horiz-adv-x="844" 
d="M352 760l101 122h144l-135 -122h-110zM422 -12c-112 0 -196.333 24.833 -253 74.5s-85 122.167 -85 217.5v420h148v-407c0 -122.667 63.333 -184 190 -184s190 61.333 190 184v407h148v-420c0 -95.333 -28.333 -167.833 -85 -217.5s-141 -74.5 -253 -74.5z" />
    <glyph glyph-name="Ucircumflex" unicode="&#xdb;" horiz-adv-x="844" 
d="M423 844l-93 -82h-105l119 121h158l117 -121h-104zM612 700h148v-420c0 -95.333 -28.333 -167.833 -85 -217.5s-141 -74.5 -253 -74.5s-196.333 24.833 -253 74.5s-85 122.167 -85 217.5v420h148v-407c0 -122.667 63.333 -184 190 -184s190 61.333 190 184v407z" />
    <glyph glyph-name="Udieresis" unicode="&#xdc;" horiz-adv-x="844" 
d="M235 761v112h140v-112h-140zM470 761v112h140v-112h-140zM422 -12c-112 0 -196.333 24.833 -253 74.5s-85 122.167 -85 217.5v420h148v-407c0 -122.667 63.333 -184 190 -184s190 61.333 190 184v407h148v-420c0 -95.333 -28.333 -167.833 -85 -217.5
s-141 -74.5 -253 -74.5z" />
    <glyph glyph-name="Yacute" unicode="&#xdd;" horiz-adv-x="789" 
d="M569 882l-135 -122h-110l101 122h144zM775 700l-307 -427v-273h-147v273l-307 427h172l210 -313l213 313h166z" />
    <glyph glyph-name="Thorn" unicode="&#xde;" horiz-adv-x="757" 
d="M457 590c76 0 138.667 -18.334 188 -55.001s74 -92 74 -166c0 -73.333 -23.667 -127.166 -71 -161.499s-110 -51.5 -188 -51.5h-228v-156h-148v700h148v-110h225zM445 269.999c84 0 126 33 126 99s-42 99 -126 99h-213v-198h213z" />
    <glyph glyph-name="germandbls" unicode="&#xdf;" horiz-adv-x="673" 
d="M411 420c151.333 -14 227 -82.665 227 -205.998c0 -72.667 -24.333 -127.5 -73 -164.5s-111.334 -55.5 -188.001 -55.5c-20.667 0 -46.334 2 -77.001 6v114c28.667 -3.33301 48 -5 58 -5c40.667 0 74 9.66699 100 29s39 50 39 92c0 86.667 -57.333 130 -172 130l-32 1
v108h24c40 0 70.667 8.66699 92 26s32 41.333 32 72c0 30 -10.333 53.167 -31 69.5s-50 24.5 -88 24.5c-39.333 0 -68.666 -9.5 -87.999 -28.5s-29 -49.833 -29 -92.5v-540h-141v558c0 68 22.5 119.667 67.5 155s108.5 53 190.5 53c34.667 0 66.834 -3.33301 96.501 -10
s57 -16.834 82 -30.501s44.833 -32.834 59.5 -57.501s22 -53.667 22 -87c0 -91.333 -57 -145 -171 -161z" />
    <glyph glyph-name="agrave" unicode="&#xe0;" horiz-adv-x="658" 
d="M415 588h-109l-126 147h145zM333 536c86 0 151.832 -18.835 197.499 -56.502s68.5 -94.167 68.5 -169.5v-310h-132v101c-45.333 -75.333 -120.666 -113 -225.999 -113c-66 0 -116 14.333 -150 43s-51 66.334 -51 113.001c0 51.333 21.167 90 63.5 116
s105.166 42.333 188.499 49l166 13v18c0 29.333 -10.333 52.833 -31 70.5s-52 26.834 -94 27.501c-77.333 0 -120.333 -25.333 -129 -76h-131c2.66699 42 16.834 76.333 42.501 103s56.5 45.167 92.5 55.5s77.667 15.5 125 15.5zM282.999 85.998c52.667 0 95 12.667 127 38
s48 56.666 48 93.999v21l-148 -12c-86.667 -7.33301 -130 -32.666 -130 -75.999c0 -20 8.66699 -35.833 26 -47.5s43 -17.5 77 -17.5z" />
    <glyph glyph-name="aacute" unicode="&#xe1;" horiz-adv-x="658" 
d="M493 735l-125 -147h-109l89 147h145zM333 536c86 0 151.832 -18.835 197.499 -56.502s68.5 -94.167 68.5 -169.5v-310h-132v101c-45.333 -75.333 -120.666 -113 -225.999 -113c-66 0 -116 14.333 -150 43s-51 66.334 -51 113.001c0 51.333 21.167 90 63.5 116
s105.166 42.333 188.499 49l166 13v18c0 29.333 -10.333 52.833 -31 70.5s-52 26.834 -94 27.501c-77.333 0 -120.333 -25.333 -129 -76h-131c2.66699 42 16.834 76.333 42.501 103s56.5 45.167 92.5 55.5s77.667 15.5 125 15.5zM282.999 85.998c52.667 0 95 12.667 127 38
s48 56.666 48 93.999v21l-148 -12c-86.667 -7.33301 -130 -32.666 -130 -75.999c0 -20 8.66699 -35.833 26 -47.5s43 -17.5 77 -17.5z" />
    <glyph glyph-name="acircumflex" unicode="&#xe2;" horiz-adv-x="658" 
d="M337 690l-86 -102h-98l111 147h146l111 -147h-98zM333 536c86 0 151.832 -18.835 197.499 -56.502s68.5 -94.167 68.5 -169.5v-310h-132v101c-45.333 -75.333 -120.666 -113 -225.999 -113c-66 0 -116 14.333 -150 43s-51 66.334 -51 113.001
c0 51.333 21.167 90 63.5 116s105.166 42.333 188.499 49l166 13v18c0 29.333 -10.333 52.833 -31 70.5s-52 26.834 -94 27.501c-77.333 0 -120.333 -25.333 -129 -76h-131c2.66699 42 16.834 76.333 42.501 103s56.5 45.167 92.5 55.5s77.667 15.5 125 15.5z
M282.999 85.998c52.667 0 95 12.667 127 38s48 56.666 48 93.999v21l-148 -12c-86.667 -7.33301 -130 -32.666 -130 -75.999c0 -20 8.66699 -35.833 26 -47.5s43 -17.5 77 -17.5z" />
    <glyph glyph-name="atilde" unicode="&#xe3;" horiz-adv-x="658" 
d="M261 639c-25.333 0 -38 -14.667 -38 -44h-76c0 78.667 35 118 105 118c30 0 61.167 -8.66699 93.5 -26s54.5 -26 66.5 -26c26 0 39 14.333 39 43h76c0 -78.667 -35 -118 -105 -118c-30 0 -61.167 8.83301 -93.5 26.5s-54.833 26.5 -67.5 26.5zM333 536
c86 0 151.832 -18.835 197.499 -56.502s68.5 -94.167 68.5 -169.5v-310h-132v101c-45.333 -75.333 -120.666 -113 -225.999 -113c-66 0 -116 14.333 -150 43s-51 66.334 -51 113.001c0 51.333 21.167 90 63.5 116s105.166 42.333 188.499 49l166 13v18
c0 29.333 -10.333 52.833 -31 70.5s-52 26.834 -94 27.501c-77.333 0 -120.333 -25.333 -129 -76h-131c2.66699 42 16.834 76.333 42.501 103s56.5 45.167 92.5 55.5s77.667 15.5 125 15.5zM282.999 85.998c52.667 0 95 12.667 127 38s48 56.666 48 93.999v21l-148 -12
c-86.667 -7.33301 -130 -32.666 -130 -75.999c0 -20 8.66699 -35.833 26 -47.5s43 -17.5 77 -17.5z" />
    <glyph glyph-name="adieresis" unicode="&#xe4;" horiz-adv-x="658" 
d="M295 716v-118h-126v118h126zM505 716v-118h-126v118h126zM333 536c86 0 151.832 -18.835 197.499 -56.502s68.5 -94.167 68.5 -169.5v-310h-132v101c-45.333 -75.333 -120.666 -113 -225.999 -113c-66 0 -116 14.333 -150 43s-51 66.334 -51 113.001
c0 51.333 21.167 90 63.5 116s105.166 42.333 188.499 49l166 13v18c0 29.333 -10.333 52.833 -31 70.5s-52 26.834 -94 27.501c-77.333 0 -120.333 -25.333 -129 -76h-131c2.66699 42 16.834 76.333 42.501 103s56.5 45.167 92.5 55.5s77.667 15.5 125 15.5z
M282.999 85.998c52.667 0 95 12.667 127 38s48 56.666 48 93.999v21l-148 -12c-86.667 -7.33301 -130 -32.666 -130 -75.999c0 -20 8.66699 -35.833 26 -47.5s43 -17.5 77 -17.5z" />
    <glyph glyph-name="aring" unicode="&#xe5;" horiz-adv-x="658" 
d="M337 582c-36 0 -66.167 9 -90.5 27s-36.5 44 -36.5 78c0 33.333 12.167 59 36.5 77s54.5 27 90.5 27s66.167 -9 90.5 -27s36.5 -43.667 36.5 -77c0 -34 -12.167 -60 -36.5 -78s-54.5 -27 -90.5 -27zM337 734c-17.333 0 -31.666 -4.16699 -42.999 -12.5
s-17 -19.833 -17 -34.5s5.66699 -26.334 17 -35.001s25.666 -13 42.999 -13s31.666 4.33301 42.999 13s17 20.334 17 35.001s-5.66699 26.167 -17 34.5s-25.666 12.5 -42.999 12.5zM333 536c86 0 151.832 -18.835 197.499 -56.502s68.5 -94.167 68.5 -169.5v-310h-132v101
c-45.333 -75.333 -120.666 -113 -225.999 -113c-66 0 -116 14.333 -150 43s-51 66.334 -51 113.001c0 51.333 21.167 90 63.5 116s105.166 42.333 188.499 49l166 13v18c0 29.333 -10.333 52.833 -31 70.5s-52 26.834 -94 27.501c-77.333 0 -120.333 -25.333 -129 -76h-131
c2.66699 42 16.834 76.333 42.501 103s56.5 45.167 92.5 55.5s77.667 15.5 125 15.5zM282.999 85.998c52.667 0 95 12.667 127 38s48 56.666 48 93.999v21l-148 -12c-86.667 -7.33301 -130 -32.666 -130 -75.999c0 -20 8.66699 -35.833 26 -47.5s43 -17.5 77 -17.5z" />
    <glyph glyph-name="ae" unicode="&#xe6;" horiz-adv-x="1079" 
d="M1042 236l-0.00292969 -16.0039h-441c6.66699 -44.667 24.834 -78.167 54.501 -100.5s66.834 -33.5 111.501 -33.5c60 0 103.667 21.333 131 64l136 -7c-16 -48.667 -47.167 -86.667 -93.5 -114s-103.166 -41 -170.499 -41c-127.333 0 -211.666 43 -252.999 129
c-52 -86 -140.667 -129 -266 -129c-70 0 -122.667 14.333 -158 43s-53 66.334 -53 113.001c0 102.667 84 157.667 252 165l166 7v22c0 30.667 -10.333 54.834 -31 72.501s-52 26.834 -94 27.501c-77.333 0 -120.333 -25.333 -129 -76h-131
c4 60.667 29.667 104.834 77 132.501s106.333 41.5 177 41.5c106 0 177 -31 213 -93c46.667 62 121 93 223 93c89.333 0 158.166 -24.5 206.499 -73.5s72.5 -124.5 72.5 -226.5zM758.997 437.996c-40.667 0 -75.167 -10.668 -103.5 -32.001s-46.5 -53.666 -54.5 -96.999h303
c-3.33301 40 -17.833 71.5 -43.5 94.5s-59.5 34.5 -101.5 34.5zM282.997 85.9951c52.667 0 95 12.668 127 38.001s48 56.666 48 93.999v14l-148 -6c-86.667 -4 -130 -29 -130 -75c0 -20 8.66699 -35.833 26 -47.5s43 -17.5 77 -17.5z" />
    <glyph glyph-name="ccedilla" unicode="&#xe7;" horiz-adv-x="656" 
d="M339 -12h-2.99902l-33 -50c22.667 9.33301 43.334 14 62.001 14c26 0 49.167 -6.66699 69.5 -20s30.5 -33.666 30.5 -60.999c0 -30 -12.167 -52 -36.5 -66s-53.5 -21 -87.5 -21c-34.667 0 -63.167 6.5 -85.5 19.5s-35.833 31.833 -40.5 56.5l61 3
c6.66699 -19.333 23.667 -29 51 -29c34 0 51 12.333 51 37c0 11.333 -4.33301 20.166 -13 26.499s-19.667 9.5 -33 9.5c-15.333 0 -31 -3.66699 -47 -11l-50 21l47 74c-76.667 9.33301 -136.5 37.333 -179.5 84s-64.5 109 -64.5 187c0 87.333 26.667 154.833 80 202.5
s125.666 71.5 216.999 71.5c75.333 0 138.666 -17 189.999 -51s81.666 -81.667 90.999 -143l-136 -10c-8 30.667 -25.167 54.167 -51.5 70.5s-57.5 24.5 -93.5 24.5c-47.333 0 -85.333 -14.833 -114 -44.5s-43 -69.834 -43 -120.501c0 -51.333 14.5 -91.666 43.5 -120.999
s68.167 -44 117.5 -44c38.667 0 70.834 8.66699 96.501 26s42.5 42.333 50.5 75l138 -9c-9.33301 -64 -39.833 -113.5 -91.5 -148.5s-116.167 -52.5 -193.5 -52.5z" />
    <glyph glyph-name="egrave" unicode="&#xe8;" horiz-adv-x="674" 
d="M414 588h-109l-126 147h146zM638 236l-0.00195312 -16h-458c13.333 -89.333 71 -134 173 -134c66 0 112.667 21.333 140 64l137 -7c-16.667 -49.333 -48.667 -87.5 -96 -114.5s-107.666 -40.5 -180.999 -40.5c-97.333 0 -174.166 22.833 -230.499 68.5
s-84.5 114.167 -84.5 205.5c0 90.667 27.833 159 83.5 205s130.5 69 224.5 69c194.667 0 292 -100 292 -300zM345.998 438c-44.667 0 -81.5 -10.668 -110.5 -32.001s-47.167 -53.666 -54.5 -96.999h318c-3.33301 40 -18.333 71.5 -45 94.5s-62.667 34.5 -108 34.5z" />
    <glyph glyph-name="eacute" unicode="&#xe9;" horiz-adv-x="674" 
d="M493 735l-126 -147h-109l89 147h146zM638 236l-0.00195312 -16h-458c13.333 -89.333 71 -134 173 -134c66 0 112.667 21.333 140 64l137 -7c-16.667 -49.333 -48.667 -87.5 -96 -114.5s-107.666 -40.5 -180.999 -40.5c-97.333 0 -174.166 22.833 -230.499 68.5
s-84.5 114.167 -84.5 205.5c0 90.667 27.833 159 83.5 205s130.5 69 224.5 69c194.667 0 292 -100 292 -300zM345.998 438c-44.667 0 -81.5 -10.668 -110.5 -32.001s-47.167 -53.666 -54.5 -96.999h318c-3.33301 40 -18.333 71.5 -45 94.5s-62.667 34.5 -108 34.5z" />
    <glyph glyph-name="ecircumflex" unicode="&#xea;" horiz-adv-x="674" 
d="M336 690l-85 -102h-99l111 147h147l110 -147h-98zM638 236l-0.00195312 -16h-458c13.333 -89.333 71 -134 173 -134c66 0 112.667 21.333 140 64l137 -7c-16.667 -49.333 -48.667 -87.5 -96 -114.5s-107.666 -40.5 -180.999 -40.5
c-97.333 0 -174.166 22.833 -230.499 68.5s-84.5 114.167 -84.5 205.5c0 90.667 27.833 159 83.5 205s130.5 69 224.5 69c194.667 0 292 -100 292 -300zM345.998 438c-44.667 0 -81.5 -10.668 -110.5 -32.001s-47.167 -53.666 -54.5 -96.999h318
c-3.33301 40 -18.333 71.5 -45 94.5s-62.667 34.5 -108 34.5z" />
    <glyph glyph-name="edieresis" unicode="&#xeb;" horiz-adv-x="674" 
d="M294 716v-118h-126v118h126zM505 716v-118h-126v118h126zM638 236l-0.00195312 -16h-458c13.333 -89.333 71 -134 173 -134c66 0 112.667 21.333 140 64l137 -7c-16.667 -49.333 -48.667 -87.5 -96 -114.5s-107.666 -40.5 -180.999 -40.5
c-97.333 0 -174.166 22.833 -230.499 68.5s-84.5 114.167 -84.5 205.5c0 90.667 27.833 159 83.5 205s130.5 69 224.5 69c194.667 0 292 -100 292 -300zM345.998 438c-44.667 0 -81.5 -10.668 -110.5 -32.001s-47.167 -53.666 -54.5 -96.999h318
c-3.33301 40 -18.333 71.5 -45 94.5s-62.667 34.5 -108 34.5z" />
    <glyph glyph-name="igrave" unicode="&#xec;" horiz-adv-x="268" 
d="M191 588h-108l-107 147h146zM63 0v524h141v-524h-141z" />
    <glyph glyph-name="iacute" unicode="&#xed;" horiz-adv-x="272" 
d="M78 588l69 147h146l-107 -147h-108zM64 0v524h141v-524h-141z" />
    <glyph glyph-name="icircumflex" unicode="&#xee;" horiz-adv-x="274" 
d="M209 735l101 -147h-97l-76 100l-76 -100h-97l100 147h145zM64 0v524h141v-524h-141z" />
    <glyph glyph-name="idieresis" unicode="&#xef;" horiz-adv-x="271" 
d="M-17 598v118h120v-118h-120zM169 598v118h120v-118h-120zM63 0v524h141v-524h-141z" />
    <glyph glyph-name="eth" unicode="&#xf0;" horiz-adv-x="694" 
d="M468 660c122.667 -75.333 184.001 -190.999 184.001 -346.999c0 -110 -28.167 -191.667 -84.5 -245s-131.833 -80 -226.5 -80c-92.667 0 -166.334 23.167 -221.001 69.5s-82 109.5 -82 189.5c0 78 26 140.333 78 187s118.667 70 200 70
c56.667 0 104.5 -11.833 143.5 -35.5s67.5 -56.5 85.5 -98.5c-11.333 56.667 -33.333 103.167 -66 139.5s-77.667 65.5 -135 87.5l-141 -71l-27 49l92 46c-40 11.333 -88.333 20.666 -145 27.999l24 113c101.333 -14.667 188.333 -38 261 -70l110 56l27 -48zM344.001 97.001
c52.667 0 93.833 13.667 123.5 41s44.5 63.666 44.5 108.999c0 44.667 -15 80.667 -45 108s-71 41 -123 41s-92.667 -13.667 -122 -41s-44 -63.333 -44 -108c0 -45.333 14.667 -81.666 44 -108.999s70 -41 122 -41z" />
    <glyph glyph-name="ntilde" unicode="&#xf1;" horiz-adv-x="680" 
d="M265 639c-25.333 0 -38 -14.667 -38 -44h-76c0 78.667 35 118 105 118c30 0 61 -8.66699 93 -26s54 -26 66 -26c26.667 0 40 14.333 40 43h75c0 -78.667 -34.667 -118 -104 -118c-30 0 -61.167 8.83301 -93.5 26.5s-54.833 26.5 -67.5 26.5zM411 536
c68.667 0 120.832 -18.832 156.499 -56.499s53.5 -92.834 53.5 -165.501v-314h-141v271c0 49.333 -9.66699 86.5 -29 111.5s-50.666 37.5 -93.999 37.5c-48.667 0 -86.167 -15.167 -112.5 -45.5s-39.5 -71.5 -39.5 -123.5v-251h-141v524h131v-104c42 77.333 114 116 216 116
z" />
    <glyph glyph-name="ograve" unicode="&#xf2;" horiz-adv-x="690" 
d="M423 588h-109l-126 147h145zM38 262c0 85.333 27.667 152.333 83 201s130 73 224 73s168.5 -24.333 223.5 -73s82.5 -115.667 82.5 -201s-27.5 -152.333 -82.5 -201s-129.5 -73 -223.5 -73s-168.667 24.333 -224 73s-83 115.667 -83 201zM178 262
c0 -48.667 15 -88.334 45 -119.001s70.667 -46 122 -46s92 15.333 122 46s45 70.334 45 119.001s-15 88.334 -45 119.001s-70.667 46 -122 46s-92 -15.333 -122 -46s-45 -70.334 -45 -119.001z" />
    <glyph glyph-name="oacute" unicode="&#xf3;" horiz-adv-x="690" 
d="M267 588l89 147h145l-126 -147h-108zM38 262c0 85.333 27.667 152.333 83 201s130 73 224 73s168.5 -24.333 223.5 -73s82.5 -115.667 82.5 -201s-27.5 -152.333 -82.5 -201s-129.5 -73 -223.5 -73s-168.667 24.333 -224 73s-83 115.667 -83 201zM178 262
c0 -48.667 15 -88.334 45 -119.001s70.667 -46 122 -46s92 15.333 122 46s45 70.334 45 119.001s-15 88.334 -45 119.001s-70.667 46 -122 46s-92 -15.333 -122 -46s-45 -70.334 -45 -119.001z" />
    <glyph glyph-name="ocircumflex" unicode="&#xf4;" horiz-adv-x="690" 
d="M345 690l-86 -102h-98l111 147h146l111 -147h-98zM345 536c94 0 168.5 -24.333 223.5 -73s82.5 -115.667 82.5 -201s-27.5 -152.333 -82.5 -201s-129.5 -73 -223.5 -73s-168.667 24.333 -224 73s-83 115.667 -83 201s27.667 152.333 83 201s130 73 224 73zM345 97
c51.333 0 92 15.333 122 46s45 70.334 45 119.001s-15 88.334 -45 119.001s-70.667 46 -122 46s-92 -15.333 -122 -46s-45 -70.334 -45 -119.001s15 -88.334 45 -119.001s70.667 -46 122 -46z" />
    <glyph glyph-name="otilde" unicode="&#xf5;" horiz-adv-x="690" 
d="M155 595c0 78.667 35 118 105 118c30 0 61.167 -8.66699 93.5 -26s54.5 -26 66.5 -26c26 0 39 14.333 39 43h76c0 -78.667 -35 -118 -105 -118c-30 0 -61.167 8.83301 -93.5 26.5s-54.833 26.5 -67.5 26.5c-25.333 0 -38 -14.667 -38 -44h-76zM38 262
c0 85.333 27.667 152.333 83 201s130 73 224 73s168.5 -24.333 223.5 -73s82.5 -115.667 82.5 -201s-27.5 -152.333 -82.5 -201s-129.5 -73 -223.5 -73s-168.667 24.333 -224 73s-83 115.667 -83 201zM178 262c0 -48.667 15 -88.334 45 -119.001s70.667 -46 122 -46
s92 15.333 122 46s45 70.334 45 119.001s-15 88.334 -45 119.001s-70.667 46 -122 46s-92 -15.333 -122 -46s-45 -70.334 -45 -119.001z" />
    <glyph glyph-name="odieresis" unicode="&#xf6;" horiz-adv-x="690" 
d="M177 598v118h126v-118h-126zM387 598v118h126v-118h-126zM38 262c0 85.333 27.667 152.333 83 201s130 73 224 73s168.5 -24.333 223.5 -73s82.5 -115.667 82.5 -201s-27.5 -152.333 -82.5 -201s-129.5 -73 -223.5 -73s-168.667 24.333 -224 73s-83 115.667 -83 201z
M178 262c0 -48.667 15 -88.334 45 -119.001s70.667 -46 122 -46s92 15.333 122 46s45 70.334 45 119.001s-15 88.334 -45 119.001s-70.667 46 -122 46s-92 -15.333 -122 -46s-45 -70.334 -45 -119.001z" />
    <glyph glyph-name="divide" unicode="&#xf7;" horiz-adv-x="537" 
d="M268 435c-17.333 0 -32.166 6.16699 -44.499 18.5s-18.5 27.166 -18.5 44.499s6.16699 32.166 18.5 44.499s27.166 18.5 44.499 18.5c18 0 33.333 -6.16699 46 -18.5s19 -27.166 19 -44.499s-6.33301 -32.166 -19 -44.499s-28 -18.5 -46 -18.5zM57 378h422v-97h-422v97z
M268 97c-17.333 0 -32.166 6.16699 -44.499 18.5s-18.5 27.166 -18.5 44.499s6.16699 32.166 18.5 44.499s27.166 18.5 44.499 18.5c18 0 33.333 -6.16699 46 -18.5s19 -27.166 19 -44.499s-6.33301 -32.166 -19 -44.499s-28 -18.5 -46 -18.5z" />
    <glyph glyph-name="oslash" unicode="&#xf8;" horiz-adv-x="690" 
d="M568 463c55.333 -48 83 -115 83 -201c0 -85.333 -27.5 -152.333 -82.5 -201s-129.5 -73 -223.5 -73c-62 0 -115.667 11 -161 33l-51 -58l-62 41l50 58c-55.333 49.333 -83 116 -83 200c0 85.333 27.667 152.333 83 201s130 73 224 73c61.333 0 115 -10.667 161 -32l50 57
l62 -41zM178 262c0 -40.667 10.001 -74.332 30.001 -100.999l217 250c-24.667 10.667 -51.334 16 -80.001 16c-51.333 0 -92 -15.333 -122 -46s-45 -70.334 -45 -119.001zM345.001 97.002c51.333 0 92 15.3311 122 45.998s45 70.334 45 119.001
c0 38.667 -10 72.334 -30 101.001l-218 -250c24.667 -10.667 51.667 -16 81 -16z" />
    <glyph glyph-name="ugrave" unicode="&#xf9;" horiz-adv-x="680" 
d="M418 588h-109l-126 147h146zM475 524l141 0.000976562v-524h-131v112c-41.333 -82.667 -113 -124 -215 -124c-68 0 -120.167 19.667 -156.5 59s-54.5 95.666 -54.5 168.999v308h141v-265c0 -103.333 41.667 -155 125 -155c48 0 85 16.833 111 50.5s39 77.167 39 130.5
v239z" />
    <glyph glyph-name="uacute" unicode="&#xfa;" horiz-adv-x="680" 
d="M497 735l-126 -147h-109l89 147h146zM475 524l141 0.000976562v-524h-131v112c-41.333 -82.667 -113 -124 -215 -124c-68 0 -120.167 19.667 -156.5 59s-54.5 95.666 -54.5 168.999v308h141v-265c0 -103.333 41.667 -155 125 -155c48 0 85 16.833 111 50.5
s39 77.167 39 130.5v239z" />
    <glyph glyph-name="ucircumflex" unicode="&#xfb;" horiz-adv-x="680" 
d="M340 690l-85 -102h-98l110 147h147l111 -147h-99zM475 524l141 0.000976562v-524h-131v112c-41.333 -82.667 -113 -124 -215 -124c-68 0 -120.167 19.667 -156.5 59s-54.5 95.666 -54.5 168.999v308h141v-265c0 -103.333 41.667 -155 125 -155c48 0 85 16.833 111 50.5
s39 77.167 39 130.5v239z" />
    <glyph glyph-name="udieresis" unicode="&#xfc;" horiz-adv-x="680" 
d="M298 716v-118h-126v118h126zM509 716v-118h-126v118h126zM475 524l141 0.000976562v-524h-131v112c-41.333 -82.667 -113 -124 -215 -124c-68 0 -120.167 19.667 -156.5 59s-54.5 95.666 -54.5 168.999v308h141v-265c0 -103.333 41.667 -155 125 -155
c48 0 85 16.833 111 50.5s39 77.167 39 130.5v239z" />
    <glyph glyph-name="yacute" unicode="&#xfd;" horiz-adv-x="662" 
d="M486 735l-125 -147h-109l89 147h145zM493 524h151.999l-206 -564c-23.333 -66 -52.166 -111.167 -86.499 -135.5s-85.5 -36.5 -153.5 -36.5c-26.667 0 -53.334 1.33301 -80.001 4v109c24.667 -2 48.334 -3 71.001 -3c33.333 0 58.333 5.16699 75 15.5
s30.667 30.833 42 61.5l9 25h-74l-224 524h153l178 -459z" />
    <glyph glyph-name="thorn" unicode="&#xfe;" horiz-adv-x="702" 
d="M404 536c76.667 0 139.001 -24.5 187.001 -73.5s72 -115.833 72 -200.5s-24 -151.5 -72 -200.5s-110 -73.5 -186 -73.5c-90 0 -156.667 32 -200 96v-284h-141v936h141v-295c43.333 63.333 109.666 95 198.999 95zM361.001 97c50 0 89.667 15 119 45s44 70 44 120
s-14.667 90 -44 120s-69 45 -119 45s-89.5 -15 -118.5 -45s-43.5 -70 -43.5 -120s14.5 -90 43.5 -120s68.5 -45 118.5 -45z" />
    <glyph glyph-name="ydieresis" unicode="&#xff;" horiz-adv-x="662" 
d="M288 716v-118h-126v118h126zM498 716v-118h-126v118h126zM493 524h151.999l-206 -564c-23.333 -66 -52.166 -111.167 -86.499 -135.5s-85.5 -36.5 -153.5 -36.5c-26.667 0 -53.334 1.33301 -80.001 4v109c24.667 -2 48.334 -3 71.001 -3c33.333 0 58.333 5.16699 75 15.5
s30.667 30.833 42 61.5l9 25h-74l-224 524h153l178 -459z" />
    <glyph glyph-name="Amacron" unicode="&#x100;" horiz-adv-x="800" 
d="M590 860v-96h-380v96h380zM634 0l-60 160h-353l-60 -160h-146l274 700h221l276 -700h-152zM264 272h268l-134 357z" />
    <glyph glyph-name="amacron" unicode="&#x101;" horiz-adv-x="658" 
d="M517 702v-92h-360v92h360zM333 536c86 0 151.832 -18.835 197.499 -56.502s68.5 -94.167 68.5 -169.5v-310h-132v101c-45.333 -75.333 -120.666 -113 -225.999 -113c-66 0 -116 14.333 -150 43s-51 66.334 -51 113.001c0 51.333 21.167 90 63.5 116
s105.166 42.333 188.499 49l166 13v18c0 29.333 -10.333 52.833 -31 70.5s-52 26.834 -94 27.501c-77.333 0 -120.333 -25.333 -129 -76h-131c2.66699 42 16.834 76.333 42.501 103s56.5 45.167 92.5 55.5s77.667 15.5 125 15.5zM282.999 85.998c52.667 0 95 12.667 127 38
s48 56.666 48 93.999v21l-148 -12c-86.667 -7.33301 -130 -32.666 -130 -75.999c0 -20 8.66699 -35.833 26 -47.5s43 -17.5 77 -17.5z" />
    <glyph glyph-name="Abreve" unicode="&#x102;" horiz-adv-x="800" 
d="M400 756c-59.333 0 -104.166 12.833 -134.499 38.5s-46.5 60.5 -48.5 104.5h84c5.33301 -40.667 38.333 -61 99 -61c61.333 0 94.666 20.333 99.999 61h83c-2 -44 -18 -78.833 -48 -104.5s-75 -38.5 -135 -38.5zM634 0l-60 160h-353l-60 -160h-146l274 700h221l276 -700
h-152zM264 272h268l-134 357z" />
    <glyph glyph-name="abreve" unicode="&#x103;" horiz-adv-x="658" 
d="M337 586c-58.667 0 -102.833 13.833 -132.5 41.5s-45.167 64.5 -46.5 110.5h81c4 -46.667 36.667 -70 98 -70s94 23.333 98 70h81c-1.33301 -46 -17 -82.833 -47 -110.5s-74 -41.5 -132 -41.5zM333.001 536c86 0 151.832 -18.835 197.499 -56.502
s68.5 -94.167 68.5 -169.5v-310h-132v101c-45.333 -75.333 -120.666 -113 -225.999 -113c-66 0 -116 14.333 -150 43s-51 66.334 -51 113.001c0 51.333 21.167 90 63.5 116s105.166 42.333 188.499 49l166 13v18c0 29.333 -10.333 52.833 -31 70.5s-52 26.834 -94 27.501
c-77.333 0 -120.333 -25.333 -129 -76h-131c2.66699 42 16.834 76.333 42.501 103s56.5 45.167 92.5 55.5s77.667 15.5 125 15.5zM283 85.998c52.667 0 95 12.667 127 38s48 56.666 48 93.999v21l-148 -12c-86.667 -7.33301 -130 -32.666 -130 -75.999
c0 -20 8.66699 -35.833 26 -47.5s43 -17.5 77 -17.5z" />
    <glyph glyph-name="Aogonek" unicode="&#x104;" horiz-adv-x="800" 
d="M750 -102l53 -14c-7.33301 -27.333 -22 -48.833 -44 -64.5s-49.667 -23.5 -83 -23.5c-31.333 0 -56.833 7.16699 -76.5 21.5s-29.5 34.5 -29.5 60.5c0 51.333 46 92 138 122h-74l-60 160h-353l-60 -160h-146l274 700h221l276 -700c-40 -20.667 -71.167 -40 -93.5 -58
s-33.5 -37 -33.5 -57c0 -22 12.333 -33 37 -33c26.667 0 44.667 15.333 54 46zM264 272h268l-134 357z" />
    <glyph glyph-name="aogonek" unicode="&#x105;" horiz-adv-x="658" 
d="M563 -102l52.999 -14.002c-7.33301 -27.333 -22 -48.833 -44 -64.5s-49.667 -23.5 -83 -23.5c-31.333 0 -56.833 7.16699 -76.5 21.5s-29.5 34.5 -29.5 60.5c0 51.333 46 92 138 122h-54v101c-45.333 -75.333 -120.666 -113 -225.999 -113c-66 0 -116 14.333 -150 43
s-51 66.334 -51 113.001c0 51.333 21.167 90 63.5 116s105.166 42.333 188.499 49l166 13v18c0 29.333 -10.333 52.833 -31 70.5s-52 26.834 -94 27.501c-77.333 0 -120.333 -25.333 -129 -76h-131c2.66699 42 16.834 76.333 42.501 103s56.5 45.167 92.5 55.5
s77.667 15.5 125 15.5c86 0 151.833 -18.833 197.5 -56.5s68.5 -94.167 68.5 -169.5v-310c-40 -20.667 -71.167 -40 -93.5 -58s-33.5 -37 -33.5 -57c0 -22 12.667 -33 38 -33c27.333 0 45 15.333 53 46zM282.999 85.998c52.667 0 95 12.667 127 38s48 56.666 48 93.999v21
l-148 -12c-86.667 -7.33301 -130 -32.666 -130 -75.999c0 -20 8.66699 -35.833 26 -47.5s43 -17.5 77 -17.5z" />
    <glyph glyph-name="Cacute" unicode="&#x106;" horiz-adv-x="796" 
d="M327 760l101 122h144l-135 -122h-110zM44 350c0 110.667 32.167 198.667 96.5 264s154.5 98 270.5 98c94.667 0 172 -21.5 232 -64.5s96 -101.167 108 -174.5l-142 -11c-8.66699 39.333 -31.167 70.833 -67.5 94.5s-79.833 35.5 -130.5 35.5
c-71.333 0 -125.666 -22.833 -162.999 -68.5s-56 -103.5 -56 -173.5c0 -72 20 -130.333 60 -175s96 -67 168 -67c55.333 0 100.166 13.167 134.499 39.5s55.833 60.166 64.5 101.499l143 -9c-12 -79.333 -47 -141.166 -105 -185.499s-137 -66.5 -237 -66.5
c-119.333 0 -211.833 32.667 -277.5 98s-98.5 153.333 -98.5 264z" />
    <glyph glyph-name="cacute" unicode="&#x107;" horiz-adv-x="656" 
d="M249 588l90 147h145l-126 -147h-109zM624 189c-9.33301 -64 -39.8311 -113.5 -91.498 -148.5s-116.167 -52.5 -193.5 -52.5c-93.333 0 -166.833 23.667 -220.5 71s-80.5 115 -80.5 203c0 87.333 26.667 154.833 80 202.5s125.666 71.5 216.999 71.5
c75.333 0 138.666 -17 189.999 -51s81.666 -81.667 90.999 -143l-136 -10c-8 30.667 -25.167 54.167 -51.5 70.5s-57.5 24.5 -93.5 24.5c-47.333 0 -85.333 -14.833 -114 -44.5s-43 -69.834 -43 -120.501c0 -51.333 14.5 -91.666 43.5 -120.999s68.167 -44 117.5 -44
c38.667 0 70.834 8.66699 96.501 26s42.5 42.333 50.5 75z" />
    <glyph glyph-name="Cdotaccent" unicode="&#x10a;" horiz-adv-x="796" 
d="M319 758v115h156v-115h-156zM44 350c0 110.667 32.167 198.667 96.5 264s154.5 98 270.5 98c94.667 0 172 -21.5 232 -64.5s96 -101.167 108 -174.5l-142 -11c-8.66699 39.333 -31.167 70.833 -67.5 94.5s-79.833 35.5 -130.5 35.5
c-71.333 0 -125.666 -22.833 -162.999 -68.5s-56 -103.5 -56 -173.5c0 -72 20 -130.333 60 -175s96 -67 168 -67c55.333 0 100.166 13.167 134.499 39.5s55.833 60.166 64.5 101.499l143 -9c-12 -79.333 -47 -141.166 -105 -185.499s-137 -66.5 -237 -66.5
c-119.333 0 -211.833 32.667 -277.5 98s-98.5 153.333 -98.5 264z" />
    <glyph glyph-name="cdotaccent" unicode="&#x10b;" horiz-adv-x="656" 
d="M253 596v132h149v-132h-149zM624 189c-9.33301 -64 -39.8311 -113.5 -91.498 -148.5s-116.167 -52.5 -193.5 -52.5c-93.333 0 -166.833 23.667 -220.5 71s-80.5 115 -80.5 203c0 87.333 26.667 154.833 80 202.5s125.666 71.5 216.999 71.5
c75.333 0 138.666 -17 189.999 -51s81.666 -81.667 90.999 -143l-136 -10c-8 30.667 -25.167 54.167 -51.5 70.5s-57.5 24.5 -93.5 24.5c-47.333 0 -85.333 -14.833 -114 -44.5s-43 -69.834 -43 -120.501c0 -51.333 14.5 -91.666 43.5 -120.999s68.167 -44 117.5 -44
c38.667 0 70.834 8.66699 96.501 26s42.5 42.333 50.5 75z" />
    <glyph glyph-name="Ccaron" unicode="&#x10c;" horiz-adv-x="796" 
d="M478 759h-159l-118 121h104l93 -82l93 82h104zM619 249l143 -9c-12 -79.333 -47 -141.166 -105 -185.499s-137 -66.5 -237 -66.5c-119.333 0 -211.833 32.667 -277.5 98s-98.5 153.333 -98.5 264s32.167 198.667 96.5 264s154.5 98 270.5 98
c94.667 0 172 -21.5 232 -64.5s96 -101.167 108 -174.5l-142 -11c-8.66699 39.333 -31.167 70.833 -67.5 94.5s-79.833 35.5 -130.5 35.5c-71.333 0 -125.666 -22.833 -162.999 -68.5s-56 -103.5 -56 -173.5c0 -72 20 -130.333 60 -175s96 -67 168 -67
c55.333 0 100.166 13.167 134.499 39.5s55.833 60.166 64.5 101.499z" />
    <glyph glyph-name="ccaron" unicode="&#x10d;" horiz-adv-x="656" 
d="M401 585h-147l-110 147h98l85 -102l86 102h99zM486 198l138.002 -9c-9.33301 -64 -39.833 -113.5 -91.5 -148.5s-116.167 -52.5 -193.5 -52.5c-93.333 0 -166.833 23.667 -220.5 71s-80.5 115 -80.5 203c0 87.333 26.667 154.833 80 202.5s125.666 71.5 216.999 71.5
c75.333 0 138.666 -17 189.999 -51s81.666 -81.667 90.999 -143l-136 -10c-8 30.667 -25.167 54.167 -51.5 70.5s-57.5 24.5 -93.5 24.5c-47.333 0 -85.333 -14.833 -114 -44.5s-43 -69.834 -43 -120.501c0 -51.333 14.5 -91.666 43.5 -120.999s68.167 -44 117.5 -44
c38.667 0 70.834 8.66699 96.501 26s42.5 42.333 50.5 75z" />
    <glyph glyph-name="Dcaron" unicode="&#x10e;" horiz-adv-x="818" 
d="M490 759h-159l-118 121h104l93 -82l93 82h104zM406 700c116 0 206.333 -31 271 -93s97 -147.667 97 -257s-32.333 -195 -97 -257s-155 -93 -271 -93h-322v700h322zM390 121c76.667 0 135.167 20.333 175.5 61s60.5 96.667 60.5 168s-20.167 127.333 -60.5 168
s-98.833 61 -175.5 61h-158v-458h158z" />
    <glyph glyph-name="dcaron" unicode="&#x10f;" horiz-adv-x="744" 
d="M497 441v295h141v-736h-132v100c-20.667 -36.667 -49.5 -64.5 -86.5 -83.5s-78.167 -28.5 -123.5 -28.5c-76 0 -138 24.5 -186 73.5s-72 115.833 -72 200.5s24 151.5 72 200.5s110.333 73.5 187 73.5c90 0 156.667 -31.667 200 -95zM705 736h102v-70l-52 -105h-50v175z
M340 97c50 0 89.667 15 119 45s44 70 44 120s-14.667 90 -44 120s-69 45 -119 45c-49.333 0 -88.666 -15 -117.999 -45s-44 -70 -44 -120s14.667 -90 44 -120s68.666 -45 117.999 -45z" />
    <glyph glyph-name="Dcroat" unicode="&#x110;" horiz-adv-x="842" 
d="M430 700c116 0 206.333 -31 271 -93s97 -147.667 97 -257s-32.333 -195 -97 -257s-155 -93 -271 -93h-322v298h-78v104h78v298h322zM414 121c76.667 0 135.167 20.333 175.5 61s60.5 96.667 60.5 168s-20.167 127.333 -60.5 168s-98.833 61 -175.5 61h-158v-177h202v-104
h-202v-177h158z" />
    <glyph glyph-name="dcroat" unicode="&#x111;" horiz-adv-x="713" 
d="M708 656v-65h-70v-591h-132v100c-20.667 -36.667 -49.5 -64.5 -86.5 -83.5s-78.167 -28.5 -123.5 -28.5c-76 0 -138 24.5 -186 73.5s-72 115.833 -72 200.5s24 151.5 72 200.5s110.333 73.5 187 73.5c90 0 156.667 -31.667 200 -95v150h-211v65h211v80h141v-80h70z
M340 97c50 0 89.667 15 119 45s44 70 44 120s-14.667 90 -44 120s-69 45 -119 45c-49.333 0 -88.666 -15 -117.999 -45s-44 -70 -44 -120s14.667 -90 44 -120s68.666 -45 117.999 -45z" />
    <glyph glyph-name="Emacron" unicode="&#x112;" horiz-adv-x="726" 
d="M553 860v-96h-380v96h380zM232 116h450v-116h-598v700h581v-116h-433v-173h341v-110h-341v-185z" />
    <glyph glyph-name="emacron" unicode="&#x113;" horiz-adv-x="674" 
d="M516 702v-92h-359v92h359zM638 236l-0.00195312 -16h-458c13.333 -89.333 71 -134 173 -134c66 0 112.667 21.333 140 64l137 -7c-16.667 -49.333 -48.667 -87.5 -96 -114.5s-107.666 -40.5 -180.999 -40.5c-97.333 0 -174.166 22.833 -230.499 68.5
s-84.5 114.167 -84.5 205.5c0 90.667 27.833 159 83.5 205s130.5 69 224.5 69c194.667 0 292 -100 292 -300zM345.998 438c-44.667 0 -81.5 -10.668 -110.5 -32.001s-47.167 -53.666 -54.5 -96.999h318c-3.33301 40 -18.333 71.5 -45 94.5s-62.667 34.5 -108 34.5z" />
    <glyph glyph-name="Edotaccent" unicode="&#x116;" horiz-adv-x="726" 
d="M441 873v-115h-156v115h156zM232 116h450v-116h-598v700h581v-116h-433v-173h341v-110h-341v-185z" />
    <glyph glyph-name="edotaccent" unicode="&#x117;" horiz-adv-x="674" 
d="M411 728v-132h-149v132h149zM638 236l-0.00195312 -16h-458c13.333 -89.333 71 -134 173 -134c66 0 112.667 21.333 140 64l137 -7c-16.667 -49.333 -48.667 -87.5 -96 -114.5s-107.666 -40.5 -180.999 -40.5c-97.333 0 -174.166 22.833 -230.499 68.5
s-84.5 114.167 -84.5 205.5c0 90.667 27.833 159 83.5 205s130.5 69 224.5 69c194.667 0 292 -100 292 -300zM345.998 438c-44.667 0 -81.5 -10.668 -110.5 -32.001s-47.167 -53.666 -54.5 -96.999h318c-3.33301 40 -18.333 71.5 -45 94.5s-62.667 34.5 -108 34.5z" />
    <glyph glyph-name="Eogonek" unicode="&#x118;" horiz-adv-x="726" 
d="M663 0c-40 -20.667 -71.167 -40 -93.5 -58s-33.5 -37 -33.5 -57c0 -22 12.333 -33 37 -33c26.667 0 44.667 15.333 54 46l53 -14c-7.33301 -27.333 -22 -48.833 -44 -64.5s-49.667 -23.5 -83 -23.5c-31.333 0 -56.833 7.16699 -76.5 21.5s-29.5 34.5 -29.5 60.5
c0 51.333 46 92 138 122h-501v700h581v-116h-433v-173h341v-110h-341v-185h450v-116h-19z" />
    <glyph glyph-name="eogonek" unicode="&#x119;" horiz-adv-x="674" 
d="M638 236l-0.00195312 -15.999h-458c13.333 -89.333 71 -134 173 -134c66 0 112.667 21.333 140 64l137 -7c-17.333 -49.333 -49.333 -87.333 -96 -114h1c-68.667 -40 -114.667 -69.333 -138 -88s-35 -37.334 -35 -56.001c0 -22 12.333 -33 37 -33c28 0 46 15.333 54 46
l53 -14c-7.33301 -27.333 -22 -48.833 -44 -64.5s-49.667 -23.5 -83 -23.5c-32 0 -57.833 7.16699 -77.5 21.5s-29.5 34.5 -29.5 60.5c0 44.667 35.333 81.667 106 111c-5.33301 -0.666992 -13.666 -1 -24.999 -1c-97.333 0 -174.166 22.833 -230.499 68.5
s-84.5 114.167 -84.5 205.5c0 90.667 27.833 159 83.5 205s130.5 69 224.5 69c194.667 0 292 -100 292 -300zM345.998 438.001c-44.667 0 -81.5 -10.668 -110.5 -32.001s-47.167 -53.666 -54.5 -96.999h318c-3.33301 40 -18.333 71.5 -45 94.5s-62.667 34.5 -108 34.5z" />
    <glyph glyph-name="Ecaron" unicode="&#x11a;" horiz-adv-x="726" 
d="M443 759h-158l-118 121h104l93 -82l93 82h103zM232 116h450v-116h-598v700h581v-116h-433v-173h341v-110h-341v-185z" />
    <glyph glyph-name="ecaron" unicode="&#x11b;" horiz-adv-x="674" 
d="M410 585h-147l-111 147h99l85 -102l86 102h98zM638 236l-0.00195312 -16h-458c13.333 -89.333 71 -134 173 -134c66 0 112.667 21.333 140 64l137 -7c-16.667 -49.333 -48.667 -87.5 -96 -114.5s-107.666 -40.5 -180.999 -40.5c-97.333 0 -174.166 22.833 -230.499 68.5
s-84.5 114.167 -84.5 205.5c0 90.667 27.833 159 83.5 205s130.5 69 224.5 69c194.667 0 292 -100 292 -300zM345.998 438c-44.667 0 -81.5 -10.668 -110.5 -32.001s-47.167 -53.666 -54.5 -96.999h318c-3.33301 40 -18.333 71.5 -45 94.5s-62.667 34.5 -108 34.5z" />
    <glyph glyph-name="Gbreve" unicode="&#x11e;" horiz-adv-x="814" 
d="M407 756c-59.333 0 -104.167 12.833 -134.5 38.5s-46.5 60.5 -48.5 104.5h84c2 -17.333 10.833 -31.833 26.5 -43.5s39.834 -17.5 72.501 -17.5c33.333 0 57.666 5.83301 72.999 17.5s24 26.167 26 43.5h84c-2 -44 -18 -78.833 -48 -104.5s-75 -38.5 -135 -38.5z
M418.999 372h345.001v-316c-106.667 -45.333 -214 -68 -322 -68c-127.333 0 -225.5 32.5 -294.5 97.5s-103.5 153.167 -103.5 264.5c0 110.667 32.167 198.667 96.5 264s154.166 98 269.499 98c91.333 0 166.666 -20.167 225.999 -60.5s96.333 -94.833 111 -163.5l-142 -11
c-12 34.667 -35.667 62.5 -71 83.5s-76.666 31.5 -123.999 31.5c-70.667 0 -124.667 -22.833 -162 -68.5s-56 -103.5 -56 -173.5c0 -72.667 21.833 -131.167 65.5 -175.5s106.5 -66.5 188.5 -66.5c58.667 0 119.667 10 183 30v135h-210v99z" />
    <glyph glyph-name="gbreve" unicode="&#x11f;" horiz-adv-x="697" 
d="M349 586c-58.667 0 -102.836 13.833 -132.503 41.5s-45.167 64.5 -46.5 110.5h81c2.66699 -46.667 35.334 -70 98.001 -70c60 0 92.667 23.333 98 70h81c-1.33301 -46 -17.166 -82.833 -47.499 -110.5s-74.166 -41.5 -131.499 -41.5zM500.998 524l132.003 -0.000976562
v-446c0 -101.333 -23.333 -175 -70 -221s-119.334 -69 -218.001 -69c-79.333 0 -142.5 15.167 -189.5 45.5s-72.833 75.833 -77.5 136.5h132c10.667 -50 55.667 -75 135 -75c52 0 89.5 12 112.5 36s34.5 61 34.5 111v59c-44.667 -58.667 -109.334 -88 -194.001 -88
c-77.333 0 -140 23.833 -188 71.5s-72 111.167 -72 190.5c0 78.667 24.167 141.834 72.5 189.501s111.166 71.5 188.499 71.5c92.667 0 160 -33.333 202 -100v88zM340.001 116.999c49.333 0 88.833 14.167 118.5 42.5s44.5 65.5 44.5 111.5s-14.833 83.5 -44.5 112.5
s-69.167 43.5 -118.5 43.5c-48.667 0 -87.834 -14.5 -117.501 -43.5s-44.5 -66.5 -44.5 -112.5s14.833 -83.167 44.5 -111.5s68.834 -42.5 117.501 -42.5z" />
    <glyph glyph-name="Gdotaccent" unicode="&#x120;" horiz-adv-x="814" 
d="M485 873v-115h-156v115h156zM419 372h345.001v-316c-106.667 -45.333 -214 -68 -322 -68c-127.333 0 -225.5 32.5 -294.5 97.5s-103.5 153.167 -103.5 264.5c0 110.667 32.167 198.667 96.5 264s154.166 98 269.499 98c91.333 0 166.666 -20.167 225.999 -60.5
s96.333 -94.833 111 -163.5l-142 -11c-12 34.667 -35.667 62.5 -71 83.5s-76.666 31.5 -123.999 31.5c-70.667 0 -124.667 -22.833 -162 -68.5s-56 -103.5 -56 -173.5c0 -72.667 21.833 -131.167 65.5 -175.5s106.5 -66.5 188.5 -66.5c58.667 0 119.667 10 183 30v135h-210
v99z" />
    <glyph glyph-name="gdotaccent" unicode="&#x121;" horiz-adv-x="697" 
d="M423 728v-132h-149v132h149zM501 524l132.003 -0.000976562v-446c0 -101.333 -23.333 -175 -70 -221s-119.334 -69 -218.001 -69c-79.333 0 -142.5 15.167 -189.5 45.5s-72.833 75.833 -77.5 136.5h132c10.667 -50 55.667 -75 135 -75c52 0 89.5 12 112.5 36
s34.5 61 34.5 111v59c-44.667 -58.667 -109.334 -88 -194.001 -88c-77.333 0 -140 23.833 -188 71.5s-72 111.167 -72 190.5c0 78.667 24.167 141.834 72.5 189.501s111.166 71.5 188.499 71.5c92.667 0 160 -33.333 202 -100v88zM340.003 116.999
c49.333 0 88.833 14.167 118.5 42.5s44.5 65.5 44.5 111.5s-14.833 83.5 -44.5 112.5s-69.167 43.5 -118.5 43.5c-48.667 0 -87.834 -14.5 -117.501 -43.5s-44.5 -66.5 -44.5 -112.5s14.833 -83.167 44.5 -111.5s68.834 -42.5 117.501 -42.5z" />
    <glyph glyph-name="Gcommaaccent" unicode="&#x122;" horiz-adv-x="814" 
d="M419 372h345.001v-316c-106.667 -45.333 -214 -68 -322 -68c-127.333 0 -225.5 32.5 -294.5 97.5s-103.5 153.167 -103.5 264.5c0 110.667 32.167 198.667 96.5 264s154.166 98 269.499 98c91.333 0 166.666 -20.167 225.999 -60.5s96.333 -94.833 111 -163.5l-142 -11
c-12 34.667 -35.667 62.5 -71 83.5s-76.666 31.5 -123.999 31.5c-70.667 0 -124.667 -22.833 -162 -68.5s-56 -103.5 -56 -173.5c0 -72.667 21.833 -131.167 65.5 -175.5s106.5 -66.5 188.5 -66.5c58.667 0 119.667 10 183 30v135h-210v99zM345.001 -233v183h124v-77
l-66 -106h-58z" />
    <glyph glyph-name="gcommaaccent" unicode="&#x123;" horiz-adv-x="697" 
d="M411 786v-183h-124v77l66 106h58zM501 524l132.003 -0.000976562v-446c0 -101.333 -23.333 -175 -70 -221s-119.334 -69 -218.001 -69c-79.333 0 -142.5 15.167 -189.5 45.5s-72.833 75.833 -77.5 136.5h132c10.667 -50 55.667 -75 135 -75c52 0 89.5 12 112.5 36
s34.5 61 34.5 111v59c-44.667 -58.667 -109.334 -88 -194.001 -88c-77.333 0 -140 23.833 -188 71.5s-72 111.167 -72 190.5c0 78.667 24.167 141.834 72.5 189.501s111.166 71.5 188.499 71.5c92.667 0 160 -33.333 202 -100v88zM340.003 116.999
c49.333 0 88.833 14.167 118.5 42.5s44.5 65.5 44.5 111.5s-14.833 83.5 -44.5 112.5s-69.167 43.5 -118.5 43.5c-48.667 0 -87.834 -14.5 -117.501 -43.5s-44.5 -66.5 -44.5 -112.5s14.833 -83.167 44.5 -111.5s68.834 -42.5 117.501 -42.5z" />
    <glyph glyph-name="Hbar" unicode="&#x126;" horiz-adv-x="839" 
d="M832 603v-84h-77v-519h-148v296h-375v-296h-148v519h-77v84h77v97h148v-97h375v97h148v-97h77zM607 417v102h-375v-102h375z" />
    <glyph glyph-name="hbar" unicode="&#x127;" horiz-adv-x="687" 
d="M418 536c68.667 0 121 -18.832 157 -56.499s54 -92.834 54 -165.501v-314h-142v271c0 99.333 -40.667 149 -122 149c-49.333 0 -87 -15.167 -113 -45.5s-39 -71.5 -39 -123.5v-251h-141v591h-67v65h67v80h141v-80h214v-65h-214v-155c42.667 66.667 111 100 205 100z" />
    <glyph glyph-name="Imacron" unicode="&#x12a;" horiz-adv-x="315" 
d="M-20 764v96h355v-96h-355zM84 0v700h148v-700h-148z" />
    <glyph glyph-name="imacron" unicode="&#x12b;" horiz-adv-x="270" 
d="M-15 610v91h300v-91h-300zM62 0v524h141v-524h-141z" />
    <glyph glyph-name="Iogonek" unicode="&#x12e;" horiz-adv-x="314" 
d="M201 -102l53.001 -14c-7.33301 -27.333 -21.833 -48.833 -43.5 -64.5s-48.834 -23.5 -81.501 -23.5c-31.333 0 -56.833 7.33301 -76.5 22s-29.5 35 -29.5 61c0 52 43.333 92.333 130 121h-69v700h148v-700h-1c-79.333 -42 -119 -80 -119 -114
c0 -22.667 12.333 -34 37 -34c26.667 0 44 15.333 52 46z" />
    <glyph glyph-name="iogonek" unicode="&#x12f;" horiz-adv-x="269" 
d="M211 728v-132h-149v132h149zM178 -102l52.001 -14c-7.33301 -27.333 -21.833 -48.833 -43.5 -64.5s-48.834 -23.5 -81.501 -23.5c-31.333 0 -56.833 7.33301 -76.5 22s-29.5 35 -29.5 61c0 52 42.667 92.333 128 121h-63v524h141v-524
c-77.333 -42.667 -116 -80.667 -116 -114c0 -22.667 12 -34 36 -34c26 0 43.667 15.333 53 46z" />
    <glyph glyph-name="Idotaccent" unicode="&#x130;" horiz-adv-x="316" 
d="M80 758v115h156v-115h-156zM84 0v700h148v-700h-148z" />
    <glyph glyph-name="dotlessi" unicode="&#x131;" horiz-adv-x="269" 
d="M64 0v524h141v-524h-141z" />
    <glyph glyph-name="Kcommaaccent" unicode="&#x136;" horiz-adv-x="792" 
d="M448 361l326 -361h-182l-257 296h-103v-296h-148v700h148v-291h100l242 291h175zM334 -233v183h124v-77l-66 -106h-58z" />
    <glyph glyph-name="kcommaaccent" unicode="&#x137;" horiz-adv-x="653" 
d="M375 276l268 -276h-181l-187 209h-70v-209h-141v736h141v-417h70l181 205h171zM264 -233v183h124v-77l-66 -106h-58z" />
    <glyph glyph-name="Lacute" unicode="&#x139;" horiz-adv-x="655" 
d="M341 882l-135 -122h-110l101 122h144zM232 121h390v-121h-538v700h148v-579z" />
    <glyph glyph-name="lacute" unicode="&#x13a;" horiz-adv-x="273" 
d="M74 796l92 122h141l-123 -122h-110zM65 736h141v-736h-141v736z" />
    <glyph glyph-name="Lcommaaccent" unicode="&#x13b;" horiz-adv-x="655" 
d="M232 121h390v-121h-538v700h148v-579zM266 -233v183h123v-77l-65 -106h-58z" />
    <glyph glyph-name="lcommaaccent" unicode="&#x13c;" horiz-adv-x="269" 
d="M64 736h141v-736h-141v736zM73 -233v183h124v-77l-66 -106h-58z" />
    <glyph glyph-name="Lcaron" unicode="&#x13d;" horiz-adv-x="655" 
d="M232 121h390v-121h-538v700h148v-579zM432 630l-52 -105h-51v175h103v-70z" />
    <glyph glyph-name="lcaron" unicode="&#x13e;" horiz-adv-x="312" 
d="M64 736h141v-736h-141v736zM273 561v175h101v-70l-52 -105h-49z" />
    <glyph glyph-name="Ldot" unicode="&#x13f;" horiz-adv-x="655" 
d="M232 121h390v-121h-538v700h148v-579zM491 447v-154h-157v154h157z" />
    <glyph glyph-name="ldot" unicode="&#x140;" horiz-adv-x="443" 
d="M64 736h141v-736h-141v736zM272 234v154h157v-154h-157z" />
    <glyph glyph-name="Lslash" unicode="&#x141;" horiz-adv-x="655" 
d="M232 121h390v-121h-538v272l-83 -32v95l83 32v333h148v-277l229 87v-95l-229 -87v-207z" />
    <glyph glyph-name="lslash" unicode="&#x142;" horiz-adv-x="269" 
d="M268 530v-96l-63 -54v-380h-141v260l-62 -53v96l62 53v380h141v-259z" />
    <glyph glyph-name="Nacute" unicode="&#x143;" horiz-adv-x="855" 
d="M603 882l-135 -122h-110l101 122h144zM630 700h141v-700h-249l-297 614v-614h-141v700h250l296 -614v614z" />
    <glyph glyph-name="nacute" unicode="&#x144;" horiz-adv-x="680" 
d="M497 735l-126 -147h-108l89 147h145zM411 536c68.667 0 120.832 -18.832 156.499 -56.499s53.5 -92.834 53.5 -165.501v-314h-141v271c0 49.333 -9.66699 86.5 -29 111.5s-50.666 37.5 -93.999 37.5c-48.667 0 -86.167 -15.167 -112.5 -45.5s-39.5 -71.5 -39.5 -123.5
v-251h-141v524h131v-104c42 77.333 114 116 216 116z" />
    <glyph glyph-name="Ncommaaccent" unicode="&#x145;" horiz-adv-x="855" 
d="M630 700h141v-700h-249l-297 614v-614h-141v700h250l296 -614v614zM366 -233v183h124v-77l-66 -106h-58z" />
    <glyph glyph-name="ncommaaccent" unicode="&#x146;" horiz-adv-x="680" 
d="M411 536c68.667 0 120.832 -18.832 156.499 -56.499s53.5 -92.834 53.5 -165.501v-314h-141v271c0 49.333 -9.66699 86.5 -29 111.5s-50.666 37.5 -93.999 37.5c-48.667 0 -86.167 -15.167 -112.5 -45.5s-39.5 -71.5 -39.5 -123.5v-251h-141v524h131v-104
c42 77.333 114 116 216 116zM278.998 -232.999v183h124v-77l-66 -106h-58z" />
    <glyph glyph-name="Ncaron" unicode="&#x147;" horiz-adv-x="855" 
d="M508 759h-158l-119 121h105l93 -82l92 82h104zM630 700h141v-700h-249l-297 614v-614h-141v700h250l296 -614v614z" />
    <glyph glyph-name="ncaron" unicode="&#x148;" horiz-adv-x="680" 
d="M414 585h-147l-110 147h98l85 -102l87 102h98zM411 536c68.667 0 120.832 -18.832 156.499 -56.499s53.5 -92.834 53.5 -165.501v-314h-141v271c0 49.333 -9.66699 86.5 -29 111.5s-50.666 37.5 -93.999 37.5c-48.667 0 -86.167 -15.167 -112.5 -45.5
s-39.5 -71.5 -39.5 -123.5v-251h-141v524h131v-104c42 77.333 114 116 216 116z" />
    <glyph glyph-name="Eng" unicode="&#x14a;" horiz-adv-x="855" 
d="M630 700h141v-726c0 -126.667 -77.667 -190 -233 -190c-28 0 -59.333 1.66699 -94 5v116c28 -3.33301 51.667 -5 71 -5c76 0 114 28.333 114 85v15h-107l-297 614v-614h-141v700h250l296 -614v614z" />
    <glyph glyph-name="eng" unicode="&#x14b;" horiz-adv-x="680" 
d="M411 536c68.667 0 120.833 -18.832 156.5 -56.499s53.5 -92.834 53.5 -165.501v-360c0 -60 -12.167 -102.667 -36.5 -128s-65.833 -38 -124.5 -38c-14.667 0 -43.334 1.33301 -86.001 4v114c21.333 -1.33301 34.333 -2 39 -2c24.667 0 42 5.5 52 16.5s15 33.167 15 66.5
v284c0 49.333 -9.66699 86.5 -29 111.5s-50.666 37.5 -93.999 37.5c-48.667 0 -86.167 -15.167 -112.5 -45.5s-39.5 -71.5 -39.5 -123.5v-251h-141v524h131v-104c42 77.333 114 116 216 116z" />
    <glyph glyph-name="Omacron" unicode="&#x14c;" horiz-adv-x="852" 
d="M236 764v96h380v-96h-380zM44 350c0 111.333 33.333 199.5 100 264.5s160.667 97.5 282 97.5s215.5 -32.5 282.5 -97.5s100.5 -153.167 100.5 -264.5s-33.5 -199.5 -100.5 -264.5s-161.167 -97.5 -282.5 -97.5s-215.333 32.5 -282 97.5s-100 153.167 -100 264.5zM192 350
c0 -72 20.5 -130.333 61.5 -175s98.5 -67 172.5 -67s131.667 22.333 173 67s62 103 62 175s-20.667 130.333 -62 175s-99 67 -173 67s-131.5 -22.333 -172.5 -67s-61.5 -103 -61.5 -175z" />
    <glyph glyph-name="omacron" unicode="&#x14d;" horiz-adv-x="690" 
d="M165 610v92h360v-92h-360zM38 262c0 85.333 27.667 152.333 83 201s130 73 224 73s168.5 -24.333 223.5 -73s82.5 -115.667 82.5 -201s-27.5 -152.333 -82.5 -201s-129.5 -73 -223.5 -73s-168.667 24.333 -224 73s-83 115.667 -83 201zM178 262
c0 -48.667 15 -88.334 45 -119.001s70.667 -46 122 -46s92 15.333 122 46s45 70.334 45 119.001s-15 88.334 -45 119.001s-70.667 46 -122 46s-92 -15.333 -122 -46s-45 -70.334 -45 -119.001z" />
    <glyph glyph-name="Ohungarumlaut" unicode="&#x150;" horiz-adv-x="852" 
d="M247 760l89 122h122l-100 -122h-111zM453 760l90 122h122l-101 -122h-111zM44 350c0 111.333 33.333 199.5 100 264.5s160.667 97.5 282 97.5s215.5 -32.5 282.5 -97.5s100.5 -153.167 100.5 -264.5s-33.5 -199.5 -100.5 -264.5s-161.167 -97.5 -282.5 -97.5
s-215.333 32.5 -282 97.5s-100 153.167 -100 264.5zM192 350c0 -72 20.5 -130.333 61.5 -175s98.5 -67 172.5 -67s131.667 22.333 173 67s62 103 62 175s-20.667 130.333 -62 175s-99 67 -173 67s-131.5 -22.333 -172.5 -67s-61.5 -103 -61.5 -175z" />
    <glyph glyph-name="ohungarumlaut" unicode="&#x151;" horiz-adv-x="690" 
d="M185 588l83 147h110l-93 -147h-100zM367 588l84 147h109l-92 -147h-101zM38 262c0 85.333 27.667 152.333 83 201s130 73 224 73s168.5 -24.333 223.5 -73s82.5 -115.667 82.5 -201s-27.5 -152.333 -82.5 -201s-129.5 -73 -223.5 -73s-168.667 24.333 -224 73
s-83 115.667 -83 201zM178 262c0 -48.667 15 -88.334 45 -119.001s70.667 -46 122 -46s92 15.333 122 46s45 70.334 45 119.001s-15 88.334 -45 119.001s-70.667 46 -122 46s-92 -15.333 -122 -46s-45 -70.334 -45 -119.001z" />
    <glyph glyph-name="OE" unicode="&#x152;" horiz-adv-x="1208" 
d="M715 116h450v-116h-753c-116.667 0 -207.167 31 -271.5 93s-96.5 147.667 -96.5 257s32.167 195 96.5 257s154.833 93 271.5 93h736v-116h-433v-173h340v-110h-340v-185zM192 350c0 -71.333 20 -127.333 60 -168s98.333 -61 175 -61h140v458h-140
c-76.667 0 -135 -20.333 -175 -61s-60 -96.667 -60 -168z" />
    <glyph glyph-name="oe" unicode="&#x153;" horiz-adv-x="1148" 
d="M1111 236l0.000976562 -16h-458c14.667 -89.333 72.667 -134 174 -134c66.667 0 113 21.333 139 64l137 -7c-16 -48.667 -47.333 -86.667 -94 -114s-105.334 -41 -176.001 -41c-122.667 0 -207 38.333 -253 115c-47.333 -76.667 -127.666 -115 -240.999 -115
c-91.333 0 -164.333 24.333 -219 73s-82 115.667 -82 201s27.333 152.333 82 201s127.667 73 219 73c113.333 0 193.666 -38.333 240.999 -115c46 76.667 127.667 115 245 115c190.667 0 286 -100 286 -300zM819.001 438c-94.667 0 -149.667 -43 -165 -129h318
c-3.33301 40 -18.333 71.5 -45 94.5s-62.667 34.5 -108 34.5zM345.001 97c51.333 0 92 15.333 122 46s45 70.334 45 119.001s-15 88.334 -45 119.001s-70.667 46 -122 46s-92 -15.333 -122 -46s-45 -70.334 -45 -119.001s15 -88.334 45 -119.001s70.667 -46 122 -46z" />
    <glyph glyph-name="Racute" unicode="&#x154;" horiz-adv-x="783" 
d="M566 882l-135 -122h-110l101 122h144zM581 0l-215 268h-134v-268h-148v700h384c76 0 138.667 -18.333 188 -55s74 -91.667 74 -165c0 -63.333 -18.167 -112 -54.5 -146s-85.5 -55 -147.5 -63l235 -271h-182zM232 582v-203.001h223c39.333 0 70.333 8.66699 93 26
s34 42.333 34 75s-11.333 57.834 -34 75.501s-53.667 26.5 -93 26.5h-223z" />
    <glyph glyph-name="racute" unicode="&#x155;" horiz-adv-x="479" 
d="M406 735l-126 -147h-109l89 147h146zM376 535c21.333 0 44.333 -2.33301 69 -7v-125c-28 5.33301 -57.333 8 -88 8c-52 0 -90.333 -14.833 -115 -44.5s-37 -77.167 -37 -142.5v-224h-141l1 524h131v-112c36 82 96 123 180 123z" />
    <glyph glyph-name="Rcommaaccent" unicode="&#x156;" horiz-adv-x="783" 
d="M528 271l235 -271h-182l-215 268h-134v-268h-148v700h384c76 0 138.667 -18.333 188 -55s74 -91.667 74 -165c0 -63.333 -18.167 -112 -54.5 -146s-85.5 -55 -147.5 -63zM232 582v-203.001h223c39.333 0 70.333 8.66699 93 26s34 42.333 34 75s-11.333 57.834 -34 75.501
s-53.667 26.5 -93 26.5h-223zM329 -233.001v183h124v-77l-66 -106h-58z" />
    <glyph glyph-name="rcommaaccent" unicode="&#x157;" horiz-adv-x="479" 
d="M376 535c21.333 0 44.333 -2.33301 69 -7v-125c-28 5.33301 -57.333 8 -88 8c-52 0 -90.333 -14.833 -115 -44.5s-37 -77.167 -37 -142.5v-224h-141l1 524h131v-112c36 82 96 123 180 123zM72 -233v183h125v-77l-67 -106h-58z" />
    <glyph glyph-name="Rcaron" unicode="&#x158;" horiz-adv-x="783" 
d="M471 759h-158l-118 121h104l93 -82l93 82h103zM581 0l-215 268h-134v-268h-148v700h384c76 0 138.667 -18.333 188 -55s74 -91.667 74 -165c0 -63.333 -18.167 -112 -54.5 -146s-85.5 -55 -147.5 -63l235 -271h-182zM232 582v-203.001h223c39.333 0 70.333 8.66699 93 26
s34 42.333 34 75s-11.333 57.834 -34 75.501s-53.667 26.5 -93 26.5h-223z" />
    <glyph glyph-name="rcaron" unicode="&#x159;" horiz-adv-x="479" 
d="M323 585h-147l-111 147h98l86 -102l86 102h98zM376 535c21.333 0 44.333 -2.33301 69 -7v-125c-28 5.33301 -57.333 8 -88 8c-52 0 -90.333 -14.833 -115 -44.5s-37 -77.167 -37 -142.5v-224h-141l1 524h131v-112c36 82 96 123 180 123z" />
    <glyph glyph-name="Sacute" unicode="&#x15a;" horiz-adv-x="722" 
d="M292 760l101 122h144l-135 -122h-110zM169 233c3.33301 -40 20.9971 -71.9951 52.9971 -95.9951s80.333 -36 145 -36c30.667 0 58.334 2.5 83.001 7.5s45.834 14 63.501 27s26.5 29.5 26.5 49.5c0 20.667 -9 37.5 -27 50.5s-47.333 25.167 -88 36.5l-190 52
c-116.667 31.333 -175 93.666 -175 186.999c0 67.333 27.167 117.666 81.5 150.999s122.833 50 205.5 50c88.667 0 161.5 -19.167 218.5 -57.5s88.833 -92.5 95.5 -162.5l-139 -7c-4 33.333 -20.833 60.666 -50.5 81.999s-72.167 32 -127.5 32
c-42.667 0 -76.167 -6.83301 -100.5 -20.5s-36.5 -32.834 -36.5 -57.501c0 -36.667 34 -64.334 102 -83.001l183 -49c65.333 -17.333 114.166 -40.833 146.499 -70.5s48.5 -70.167 48.5 -121.5c0 -70 -28.667 -122.333 -86 -157s-135.666 -52 -234.999 -52
c-106 0 -187.167 20.5 -243.5 61.5s-87.166 100.833 -92.499 179.5z" />
    <glyph glyph-name="sacute" unicode="&#x15b;" horiz-adv-x="599" 
d="M222 588l89 147h145l-125 -147h-109zM425 365c-5.33301 23.333 -20.835 41.332 -46.502 53.999s-58.5 19 -98.5 19c-65.333 0 -98 -17 -98 -51c0 -26 25.333 -45 76 -57l147 -32c110 -24.667 165 -75.334 165 -152.001c0 -53.333 -24.5 -93 -73.5 -119
s-115.5 -39 -199.5 -39c-171.333 0 -263 57 -275 171l130 5c9.33301 -52 60 -78 152 -78c84.667 0 127 17.667 127 53c0 24.667 -29.667 44.334 -89 59.001l-151 33c-99.333 24 -149 74.333 -149 151c0 36 11.333 65.833 34 89.5s51.334 40.334 86.001 50.001
s75 14.5 121 14.5c74.667 0 136.834 -13.5 186.501 -40.5s78.167 -68.5 85.5 -124.5z" />
    <glyph glyph-name="Scedilla" unicode="&#x15e;" horiz-adv-x="722" 
d="M366 -12l-7.00391 0.00683594l-33 -50c22.667 9.33301 43.334 14 62.001 14c26 0 49.167 -6.66699 69.5 -20s30.5 -33.666 30.5 -60.999c0 -30.667 -12.167 -52.834 -36.5 -66.501s-53.833 -20.5 -88.5 -20.5s-63.167 6.5 -85.5 19.5s-35.833 31.833 -40.5 56.5l61 3
c6.66699 -19.333 24 -29 52 -29c34 0 51 12.333 51 37c0 11.333 -4.5 20.166 -13.5 26.499s-19.833 9.5 -32.5 9.5c-15.333 0 -31 -3.66699 -47 -11l-50 21l46 74c-173.333 15.333 -264.666 94.666 -273.999 237.999l139 4c3.33301 -40 21 -72 53 -96s80.333 -36 145 -36
c30.667 0 58.334 2.5 83.001 7.5s45.834 14 63.501 27s26.5 29.5 26.5 49.5c0 20.667 -9 37.5 -27 50.5s-47.333 25.167 -88 36.5l-190 52c-116.667 31.333 -175 93.666 -175 186.999c0 67.333 27.167 117.666 81.5 150.999s122.833 50 205.5 50
c88.667 0 161.5 -19.167 218.5 -57.5s88.833 -92.5 95.5 -162.5l-139 -7c-4 33.333 -20.833 60.666 -50.5 81.999s-72.167 32 -127.5 32c-42.667 0 -76.167 -6.83301 -100.5 -20.5s-36.5 -32.834 -36.5 -57.501c0 -36.667 34 -64.334 102 -83.001l183 -49
c65.333 -17.333 114.166 -40.833 146.499 -70.5s48.5 -70.167 48.5 -121.5c0 -70 -28.667 -122.333 -86 -157s-135.666 -52 -234.999 -52z" />
    <glyph glyph-name="scedilla" unicode="&#x15f;" horiz-adv-x="599" 
d="M570 146c0 -52 -23.502 -91 -70.502 -117s-110.5 -39.667 -190.5 -41l-33 -50c22.667 9.33301 43 14 61 14c26 0 49.333 -6.66699 70 -20s31 -33.666 31 -60.999c0 -30.667 -12.167 -52.834 -36.5 -66.501s-53.833 -20.5 -88.5 -20.5s-63.167 6.5 -85.5 19.5
s-35.833 31.833 -40.5 56.5l61 3c6.66699 -19.333 24 -29 52 -29c33.333 0 50 12.333 50 37c0 11.333 -4.33301 20.166 -13 26.499s-19.667 9.5 -33 9.5c-15.333 0 -31 -3.66699 -47 -11l-50 21l46 72c-142.667 10 -219.667 66.667 -231 170l130 5
c9.33301 -52 60 -78 152 -78c84.667 0 127 17.667 127 53c0 24.667 -29.667 44.334 -89 59.001l-151 33c-99.333 24 -149 74.333 -149 151c0 36 11.333 65.833 34 89.5s51.334 40.334 86.001 50.001s75 14.5 121 14.5c74.667 0 136.834 -13.5 186.501 -40.5
s78.167 -68.5 85.5 -124.5l-130 -6c-5.33301 23.333 -20.833 41.333 -46.5 54s-58.5 19 -98.5 19c-65.333 0 -98 -17 -98 -51c0 -26 25.333 -45 76 -57l147 -32c110 -24.667 165 -75.334 165 -152.001z" />
    <glyph glyph-name="Scaron" unicode="&#x160;" horiz-adv-x="722" 
d="M443 759h-159l-118 121h104l93 -82l93 82h104zM492 389c65.333 -17.333 114.163 -40.8281 146.496 -70.4951s48.5 -70.167 48.5 -121.5c0 -70 -28.667 -122.333 -86 -157s-135.666 -52 -234.999 -52c-106 0 -187.167 20.5 -243.5 61.5s-87.166 100.833 -92.499 179.5
l139 4c3.33301 -40 21 -72 53 -96s80.333 -36 145 -36c30.667 0 58.334 2.5 83.001 7.5s45.834 14 63.501 27s26.5 29.5 26.5 49.5c0 20.667 -9 37.5 -27 50.5s-47.333 25.167 -88 36.5l-190 52c-116.667 31.333 -175 93.666 -175 186.999
c0 67.333 27.167 117.666 81.5 150.999s122.833 50 205.5 50c88.667 0 161.5 -19.167 218.5 -57.5s88.833 -92.5 95.5 -162.5l-139 -7c-4 33.333 -20.833 60.666 -50.5 81.999s-72.167 32 -127.5 32c-42.667 0 -76.167 -6.83301 -100.5 -20.5s-36.5 -32.834 -36.5 -57.501
c0 -36.667 34 -64.334 102 -83.001z" />
    <glyph glyph-name="scaron" unicode="&#x161;" horiz-adv-x="599" 
d="M373 585h-146l-111 147h98l86 -102l86 102h98zM405 298c110 -24.667 164.998 -75.335 164.998 -152.002c0 -53.333 -24.5 -93 -73.5 -119s-115.5 -39 -199.5 -39c-171.333 0 -263 57 -275 171l130 5c9.33301 -52 60 -78 152 -78c84.667 0 127 17.667 127 53
c0 24.667 -29.667 44.334 -89 59.001l-151 33c-99.333 24 -149 74.333 -149 151c0 36 11.333 65.833 34 89.5s51.334 40.334 86.001 50.001s75 14.5 121 14.5c74.667 0 136.834 -13.5 186.501 -40.5s78.167 -68.5 85.5 -124.5l-130 -6
c-5.33301 23.333 -20.833 41.333 -46.5 54s-58.5 19 -98.5 19c-65.333 0 -98 -17 -98 -51c0 -26 25.333 -45 76 -57z" />
    <glyph glyph-name="uni0162" unicode="&#x162;" horiz-adv-x="702" 
d="M425 0l-50.001 0.000976562l-41 -62c22.667 9.33301 43.334 14 62.001 14c26 0 49.167 -6.66699 69.5 -20s30.5 -33.666 30.5 -60.999c0 -30.667 -12.167 -52.834 -36.5 -66.501s-53.833 -20.5 -88.5 -20.5s-63.167 6.5 -85.5 19.5s-35.833 31.833 -40.5 56.5l61 3
c6.66699 -19.333 24 -29 52 -29c34 0 51 12.333 51 37c0 11.333 -4.5 20.166 -13.5 26.499s-19.833 9.5 -32.5 9.5c-15.333 0 -31 -3.66699 -47 -11l-50 21l52 83h-41v579h-253v121h654v-121h-253v-579z" />
    <glyph glyph-name="uni0163" unicode="&#x163;" horiz-adv-x="470" 
d="M435 418l-147.001 0.000976562v-229c0 -31.333 5.16699 -53 15.5 -65s30.5 -18 60.5 -18c15.333 0 39 2 71 6v-114c-33.333 -5.33301 -66.666 -8 -99.999 -8c-13.333 0 -23.333 0.333008 -30 1l-35 -53c22.667 9.33301 43.334 14 62.001 14
c26 0 49.167 -6.66699 69.5 -20s30.5 -33.666 30.5 -60.999c0 -30.667 -12.167 -52.834 -36.5 -66.501s-53.833 -20.5 -88.5 -20.5s-63.167 6.5 -85.5 19.5s-35.833 31.833 -40.5 56.5l61 3c6.66699 -19.333 24 -29 52 -29c34 0 51 12.333 51 37
c0 11.333 -4.5 20.166 -13.5 26.499s-19.833 9.5 -32.5 9.5c-15.333 0 -31 -3.66699 -47 -11l-50 21l52 82c-37.333 9.33301 -64.5 27.333 -81.5 54s-25.5 65 -25.5 115v250h-128v104h94c15.333 0 26.166 2.83301 32.499 8.5s9.5 15.167 9.5 28.5v88h133v-123h147v-106z" />
    <glyph glyph-name="Tcaron" unicode="&#x164;" horiz-adv-x="702" 
d="M431 759h-159l-118 121h104l93 -82l93 82h104zM678 700v-121h-253v-579h-148v579h-253v121h654z" />
    <glyph glyph-name="tcaron" unicode="&#x165;" horiz-adv-x="469" 
d="M343 736h102v-65l-51 -104h-51v169zM288 647v-123h147v-106h-147v-229c0 -31.333 5.16699 -53 15.5 -65s30.5 -18 60.5 -18c15.333 0 39 2 71 6v-114c-33.333 -5.33301 -66.666 -8 -99.999 -8c-66 0 -113.833 13.5 -143.5 40.5s-44.5 72.833 -44.5 137.5v250h-128v104h94
c15.333 0 26.166 2.83301 32.499 8.5s9.5 15.167 9.5 28.5v88h133z" />
    <glyph glyph-name="Tbar" unicode="&#x166;" horiz-adv-x="702" 
d="M678 579h-253v-140h169v-85h-169v-354h-148v354h-168v85h168v140h-253v121h654v-121z" />
    <glyph glyph-name="tbar" unicode="&#x167;" horiz-adv-x="470" 
d="M435 418h-147v-98h131v-96h-131v-35c0 -31.333 5.16699 -53 15.5 -65s30.5 -18 60.5 -18c15.333 0 39 2 71 6v-114c-33.333 -5.33301 -66.666 -8 -99.999 -8c-66 0 -113.833 13.5 -143.5 40.5s-44.5 72.833 -44.5 137.5v56h-110v96h110v98h-128v104h94
c15.333 0 26.166 2.83301 32.499 8.5s9.5 15.167 9.5 28.5v88h133v-123h147v-106z" />
    <glyph glyph-name="Umacron" unicode="&#x16a;" horiz-adv-x="844" 
d="M232 764v96h380v-96h-380zM422 -12c-112 0 -196.333 24.833 -253 74.5s-85 122.167 -85 217.5v420h148v-407c0 -122.667 63.333 -184 190 -184s190 61.333 190 184v407h148v-420c0 -95.333 -28.333 -167.833 -85 -217.5s-141 -74.5 -253 -74.5z" />
    <glyph glyph-name="umacron" unicode="&#x16b;" horiz-adv-x="680" 
d="M520 702v-92h-359v92h359zM475 524l141 0.000976562v-524h-131v112c-41.333 -82.667 -113 -124 -215 -124c-68 0 -120.167 19.667 -156.5 59s-54.5 95.666 -54.5 168.999v308h141v-265c0 -103.333 41.667 -155 125 -155c48 0 85 16.833 111 50.5s39 77.167 39 130.5v239z
" />
    <glyph glyph-name="Uring" unicode="&#x16e;" horiz-adv-x="844" 
d="M296 848c0 33.333 12.167 59 36.5 77s54.166 27 89.499 27s65.333 -9 90 -27s37 -43.667 37 -77s-12.333 -59 -37 -77s-54.667 -27 -90 -27s-65.166 9 -89.499 27s-36.5 43.667 -36.5 77zM362 848c0 -14 5.66699 -24.999 17 -32.999s25.666 -12 42.999 -12
s31.833 4.16699 43.5 12.5s17.5 19.166 17.5 32.499s-5.83301 24.166 -17.5 32.499s-26.167 12.5 -43.5 12.5s-31.666 -4.16699 -42.999 -12.5s-17 -19.166 -17 -32.499zM422 -11.999c-112 0 -196.333 24.833 -253 74.5s-85 122.167 -85 217.5v420h148v-407
c0 -122.667 63.333 -184 190 -184s190 61.333 190 184v407h148v-420c0 -95.333 -28.333 -167.833 -85 -217.5s-141 -74.5 -253 -74.5z" />
    <glyph glyph-name="uring" unicode="&#x16f;" horiz-adv-x="680" 
d="M341 582c-36 0 -66.333 9 -91 27s-37 44 -37 78c0 33.333 12.333 59 37 77s55 27 91 27s66.167 -9 90.5 -27s36.5 -43.667 36.5 -77c0 -34 -12.167 -60 -36.5 -78s-54.5 -27 -90.5 -27zM341 734c-17.333 0 -31.666 -4.16699 -42.999 -12.5s-17 -19.833 -17 -34.5
s5.66699 -26.334 17 -35.001s25.666 -13 42.999 -13c16.667 0 30.667 4.33301 42 13s17 20.334 17 35.001s-5.5 26.167 -16.5 34.5s-25.167 12.5 -42.5 12.5zM475 524l141 0.000976562v-524h-131v112c-41.333 -82.667 -113 -124 -215 -124c-68 0 -120.167 19.667 -156.5 59
s-54.5 95.666 -54.5 168.999v308h141v-265c0 -103.333 41.667 -155 125 -155c48 0 85 16.833 111 50.5s39 77.167 39 130.5v239z" />
    <glyph glyph-name="Uhungarumlaut" unicode="&#x170;" horiz-adv-x="844" 
d="M243 760l89 122h122l-100 -122h-111zM449 760l89 122h123l-101 -122h-111zM422 -12c-112 0 -196.333 24.833 -253 74.5s-85 122.167 -85 217.5v420h148v-407c0 -122.667 63.333 -184 190 -184s190 61.333 190 184v407h148v-420c0 -95.333 -28.333 -167.833 -85 -217.5
s-141 -74.5 -253 -74.5z" />
    <glyph glyph-name="uhungarumlaut" unicode="&#x171;" horiz-adv-x="680" 
d="M373 735l-92 -147h-101l84 147h109zM463 588h-100l84 147h109zM475 524l141 0.000976562v-524h-131v112c-41.333 -82.667 -113 -124 -215 -124c-68 0 -120.167 19.667 -156.5 59s-54.5 95.666 -54.5 168.999v308h141v-265c0 -103.333 41.667 -155 125 -155
c48 0 85 16.833 111 50.5s39 77.167 39 130.5v239z" />
    <glyph glyph-name="Uogonek" unicode="&#x172;" horiz-adv-x="844" 
d="M612 700h148v-420c0 -154.667 -73 -248 -219 -280l-62 -36c-15.333 -9.33301 -29.833 -21.333 -43.5 -36s-20.5 -29 -20.5 -43c0 -22 12.667 -33 38 -33c27.333 0 45 15.333 53 46l53 -14c-7.33301 -27.333 -22 -48.833 -44 -64.5s-49.667 -23.5 -83 -23.5
c-31.333 0 -56.833 7.16699 -76.5 21.5s-29.5 34.5 -29.5 60.5c0 46 35 82.667 105 110h-9c-112 0 -196.333 24.833 -253 74.5s-85 122.167 -85 217.5v420h148v-407c0 -122.667 63.333 -184 190 -184s190 61.333 190 184v407z" />
    <glyph glyph-name="uogonek" unicode="&#x173;" horiz-adv-x="680" 
d="M580 -102l53 -13.999c-7.33301 -27.333 -22 -48.833 -44 -64.5s-49.667 -23.5 -83 -23.5c-31.333 0 -56.833 7.16699 -76.5 21.5s-29.5 34.5 -29.5 60.5c0 51.333 46 92 138 122h-53v112c-41.333 -82.667 -113 -124 -215 -124c-68 0 -120.167 19.667 -156.5 59
s-54.5 95.666 -54.5 168.999v308h141v-265c0 -103.333 41.667 -155 125 -155c48 0 85 16.833 111 50.5s39 77.167 39 130.5v239h141v-524c-40 -20.667 -71.167 -40 -93.5 -58s-33.5 -37 -33.5 -57c0 -22 12.667 -33 38 -33c27.333 0 45 15.333 53 46z" />
    <glyph glyph-name="Wcircumflex" unicode="&#x174;" horiz-adv-x="1143" 
d="M572 844l-93 -82h-104l118 121h159l117 -121h-104zM966 700h154l-190 -700h-219l-139 598l-143 -598h-221l-185 700h158l144 -595l144 595h208l141 -596z" />
    <glyph glyph-name="wcircumflex" unicode="&#x175;" horiz-adv-x="1012" 
d="M506 690l-85 -102h-99l111 147h147l110 -147h-98zM838 524h152l-174 -524h-199l-109 450l-112 -450h-203l-171 524h155l124 -427l110 427h197l107 -417z" />
    <glyph glyph-name="Ycircumflex" unicode="&#x176;" horiz-adv-x="789" 
d="M395 844l-93 -82h-104l118 121h159l117 -121h-104zM775 700l-307 -427v-273h-147v273l-307 427h172l210 -313l213 313h166z" />
    <glyph glyph-name="ycircumflex" unicode="&#x177;" horiz-adv-x="662" 
d="M330 690l-86 -102h-98l111 147h146l111 -147h-98zM493 524h151.999l-206 -564c-23.333 -66 -52.166 -111.167 -86.499 -135.5s-85.5 -36.5 -153.5 -36.5c-26.667 0 -53.334 1.33301 -80.001 4v109c24.667 -2 48.334 -3 71.001 -3c33.333 0 58.333 5.16699 75 15.5
s30.667 30.833 42 61.5l9 25h-74l-224 524h153l178 -459z" />
    <glyph glyph-name="Ydieresis" unicode="&#x178;" horiz-adv-x="789" 
d="M347 873v-112h-140v112h140zM582 873v-112h-140v112h140zM775 700l-307 -427v-273h-147v273l-307 427h172l210 -313l213 313h166z" />
    <glyph glyph-name="Zacute" unicode="&#x179;" horiz-adv-x="696" 
d="M523 882l-135 -122h-110l101 122h144zM216 121h456v-121h-652v103l445 476h-416v121h611v-103z" />
    <glyph glyph-name="zacute" unicode="&#x17a;" horiz-adv-x="584" 
d="M449 735l-126 -147h-109l89 147h146zM206 110h355v-110h-541v97l344 317h-321v110h508v-97z" />
    <glyph glyph-name="Zdotaccent" unicode="&#x17b;" horiz-adv-x="696" 
d="M426 873v-115h-156v115h156zM216 121h456v-121h-652v103l445 476h-416v121h611v-103z" />
    <glyph glyph-name="zdotaccent" unicode="&#x17c;" horiz-adv-x="584" 
d="M367 728v-132h-149v132h149zM206 110h355v-110h-541v97l344 317h-321v110h508v-97z" />
    <glyph glyph-name="Zcaron" unicode="&#x17d;" horiz-adv-x="696" 
d="M428 759h-158l-118 121h104l93 -82l93 82h103zM216 121h456v-121h-652v103l445 476h-416v121h611v-103z" />
    <glyph glyph-name="zcaron" unicode="&#x17e;" horiz-adv-x="584" 
d="M366 585h-147l-111 147h98l86 -102l86 102h98zM206 110h355v-110h-541v97l344 317h-321v110h508v-97z" />
    <glyph glyph-name="Scommaaccent" unicode="&#x218;" horiz-adv-x="722" 
d="M169 233c3.33301 -40 20.9971 -71.9951 52.9971 -95.9951s80.333 -36 145 -36c30.667 0 58.334 2.5 83.001 7.5s45.834 14 63.501 27s26.5 29.5 26.5 49.5c0 20.667 -9 37.5 -27 50.5s-47.333 25.167 -88 36.5l-190 52c-116.667 31.333 -175 93.666 -175 186.999
c0 67.333 27.167 117.666 81.5 150.999s122.833 50 205.5 50c88.667 0 161.5 -19.167 218.5 -57.5s88.833 -92.5 95.5 -162.5l-139 -7c-4 33.333 -20.833 60.666 -50.5 81.999s-72.167 32 -127.5 32c-42.667 0 -76.167 -6.83301 -100.5 -20.5s-36.5 -32.834 -36.5 -57.501
c0 -36.667 34 -64.334 102 -83.001l183 -49c65.333 -17.333 114.166 -40.833 146.499 -70.5s48.5 -70.167 48.5 -121.5c0 -70 -28.667 -122.333 -86 -157s-135.666 -52 -234.999 -52c-106 0 -187.167 20.5 -243.5 61.5s-87.166 100.833 -92.499 179.5zM300.997 -232.995v183
h123v-77l-66 -106h-57z" />
    <glyph glyph-name="scommaaccent" unicode="&#x219;" horiz-adv-x="599" 
d="M425 365c-5.33301 23.333 -20.835 41.332 -46.502 53.999s-58.5 19 -98.5 19c-65.333 0 -98 -17 -98 -51c0 -26 25.333 -45 76 -57l147 -32c110 -24.667 165 -75.334 165 -152.001c0 -53.333 -24.5 -93 -73.5 -119s-115.5 -39 -199.5 -39c-171.333 0 -263 57 -275 171
l130 5c9.33301 -52 60 -78 152 -78c84.667 0 127 17.667 127 53c0 24.667 -29.667 44.334 -89 59.001l-151 33c-99.333 24 -149 74.333 -149 151c0 36 11.333 65.833 34 89.5s51.334 40.334 86.001 50.001s75 14.5 121 14.5c74.667 0 136.834 -13.5 186.501 -40.5
s78.167 -68.5 85.5 -124.5zM237.998 -233.001v183h124v-77l-66 -106h-58z" />
    <glyph glyph-name="uni021A" unicode="&#x21a;" horiz-adv-x="702" 
d="M678 700v-121h-253v-579h-148v579h-253v121h654zM289 -233v183h123v-77l-65 -106h-58z" />
    <glyph glyph-name="uni021B" unicode="&#x21b;" horiz-adv-x="470" 
d="M435 418h-147v-229c0 -31.333 5.16699 -53 15.5 -65s30.5 -18 60.5 -18c15.333 0 39 2 71 6v-114c-33.333 -5.33301 -66.666 -8 -99.999 -8c-66 0 -113.833 13.5 -143.5 40.5s-44.5 72.833 -44.5 137.5v250h-128v104h94c15.333 0 26.166 2.83301 32.499 8.5
s9.5 15.167 9.5 28.5v88h133v-123h147v-106zM232 -233v183h125v-77l-67 -106h-58z" />
    <glyph glyph-name="circumflex" unicode="&#x2c6;" horiz-adv-x="448" 
d="M408 588h-98l-86 102l-86 -102h-98l111 147h146z" />
    <glyph glyph-name="caron" unicode="&#x2c7;" horiz-adv-x="448" 
d="M310 732h98l-111 -147h-146l-111 147h98l86 -102z" />
    <glyph glyph-name="breve" unicode="&#x2d8;" horiz-adv-x="438" 
d="M219 586c-58 0 -102 13.833 -132 41.5s-45.667 64.5 -47 110.5h81c4 -46.667 36.667 -70 98 -70s94 23.333 98 70h81c-1.33301 -46 -17 -82.833 -47 -110.5s-74 -41.5 -132 -41.5z" />
    <glyph glyph-name="dotaccent" unicode="&#x2d9;" horiz-adv-x="229" 
d="M40 596v132h149v-132h-149z" />
    <glyph glyph-name="ring" unicode="&#x2da;" horiz-adv-x="335" 
d="M167 582c-36 0 -66.167 9 -90.5 27s-36.5 44 -36.5 78c0 33.333 12.167 59 36.5 77s54.5 27 90.5 27s66.333 -9 91 -27s37 -43.667 37 -77c0 -34 -12.333 -60 -37 -78s-55 -27 -91 -27zM167 639c17.333 0 31.666 4.33301 42.999 13s17 20.334 17 35.001
s-5.66699 26.167 -17 34.5s-25.666 12.5 -42.999 12.5s-31.5 -4.16699 -42.5 -12.5s-16.5 -19.833 -16.5 -34.5s5.66699 -26.334 17 -35.001s25.333 -13 42 -13z" />
    <glyph glyph-name="ogonek" unicode="&#x2db;" horiz-adv-x="313" 
d="M146 -204c-31.333 0 -56.833 7.16699 -76.5 21.5s-29.5 34.5 -29.5 60.5c0 51.333 46 92 138 122h78c-40 -20.667 -71.167 -40 -93.5 -58s-33.5 -37 -33.5 -57c0 -22 12.667 -33 38 -33c27.333 0 45 15.333 53 46l53 -14c-7.33301 -27.333 -22 -48.833 -44 -64.5
s-49.667 -23.5 -83 -23.5z" />
    <glyph glyph-name="tilde" unicode="&#x2dc;" horiz-adv-x="459" 
d="M40 595c0 78.667 35.001 118 105.001 118c29.333 0 60.166 -8.66699 92.499 -26s54.5 -26 66.5 -26c26.667 0 40 14.333 40 43h75c0 -78.667 -34.667 -118 -104 -118c-30 0 -61.167 8.83301 -93.5 26.5s-54.833 26.5 -67.5 26.5c-25.333 0 -38 -14.667 -38 -44h-76z" />
    <glyph glyph-name="hungarumlaut" unicode="&#x2dd;" horiz-adv-x="456" 
d="M40 588l84 147h109l-92 -147h-101zM223 588l83 147h110l-93 -147h-100z" />
    <glyph glyph-name="pi" unicode="&#x3c0;" horiz-adv-x="735" 
d="M697 418l-93 0.000976562v-248c0 -22.667 4.16699 -38.334 12.5 -47.001s20.5 -13 36.5 -13c5.33301 0 19.333 0.666992 42 2v-114c-37.333 -2.66699 -63.666 -4 -78.999 -4c-52.667 0 -90.334 11 -113.001 33s-34 57.667 -34 107v284h-213v-418h-139v418h-90v106h670
v-106z" />
    <glyph glyph-name="uni0401" unicode="&#x401;" horiz-adv-x="726" 
d="M316 873v-112h-140v112h140zM551 873v-112h-140v112h140zM232 116h450v-116h-598v700h581v-116h-433v-173h341v-110h-341v-185z" />
    <glyph glyph-name="uni0404" unicode="&#x404;" horiz-adv-x="798" 
d="M621 239l143 -7.99902c-12.667 -76.667 -48.334 -136.334 -107.001 -179.001s-137 -64 -235 -64c-119.333 0 -212.166 32.667 -278.499 98s-99.5 153.333 -99.5 264s32.333 198.667 97 264s155 98 271 98c93.333 0 170 -20.5 230 -61.5s97.333 -97.167 112 -168.5
l-143 -11c-10.667 36.667 -34.167 66 -70.5 88s-79.166 33 -128.499 33c-60 0 -108.167 -16.667 -144.5 -50s-59.833 -77 -70.5 -131h289v-110h-291c8.66699 -58.667 32.667 -105.5 72 -140.5s91 -52.5 155 -52.5c53.333 0 97.166 12.167 131.499 36.5
s56.833 55.833 67.5 94.5z" />
    <glyph glyph-name="uni0406" unicode="&#x406;" horiz-adv-x="316" 
d="M84 0v700h148v-700h-148z" />
    <glyph glyph-name="uni0407" unicode="&#x407;" horiz-adv-x="315" 
d="M-7 761v112h127v-112h-127zM195 761v112h127v-112h-127zM83 0v700h148v-700h-148z" />
    <glyph glyph-name="uni040E" unicode="&#x40e;" horiz-adv-x="773" 
d="M386 756c-118.667 0 -180.333 48.333 -185 145h93c5.33301 -44.667 36 -67 92 -67c55.333 0 85.666 22.333 90.999 67h93c-3.33301 -96.667 -64.666 -145 -183.999 -145zM597.001 700h161.001l-231 -504c-34 -75.333 -68.833 -127.833 -104.5 -157.5
s-83.5 -44.5 -143.5 -44.5c-35.333 0 -71.333 2.33301 -108 7v115c40 -3.33301 67.667 -5 83 -5c26 0 48.167 5 66.5 15s34.166 29 47.499 57l6 15h-65l-290 502h166l233 -434z" />
    <glyph glyph-name="uni0410" unicode="&#x410;" horiz-adv-x="800" 
d="M634 0l-60 160h-353l-60 -160h-146l274 700h221l276 -700h-152zM264 272h268l-134 357z" />
    <glyph glyph-name="uni0411" unicode="&#x411;" horiz-adv-x="761" 
d="M461 425c78.667 0 142.5 -17.332 191.5 -51.999s73.5 -88 73.5 -160c0 -72.667 -24.5 -126.334 -73.5 -161.001s-112.833 -52 -191.5 -52h-377v700h580v-114h-432v-161h229zM448 114.001c86.667 0 130 33 130 99s-43.333 99 -130 99h-216v-198h216z" />
    <glyph glyph-name="uni0412" unicode="&#x412;" horiz-adv-x="783" 
d="M527 359c68 -5.33301 121.167 -21.999 159.5 -49.999s57.5 -68.333 57.5 -121c0 -60 -24.5 -106.333 -73.5 -139s-115.5 -49 -199.5 -49h-387v700h383c76 0 137 -15.5 183 -46.5s69 -75.5 69 -133.5c0 -94.667 -64 -148.334 -192 -161.001zM572 498.001
c0 27.333 -10.167 48.833 -30.5 64.5s-48.833 23.5 -85.5 23.5h-224v-176h224c36 0 64.333 7.83301 85 23.5s31 37.167 31 64.5zM457 114.001c92.667 0 139 31.333 139 94c0 62 -43.667 93 -131 93h-233v-187h225z" />
    <glyph glyph-name="uni0413" unicode="&#x413;" horiz-adv-x="651" 
d="M621 700v-121h-389v-579h-148v700h537z" />
    <glyph glyph-name="uni0414" unicode="&#x414;" horiz-adv-x="797" 
d="M706 121h76v-283h-138v162h-497v-162h-138v283h62c49.333 78 79 271 89 579h546v-579zM257 272c-12.667 -62 -28 -112.334 -46 -151.001h347v458h-265c-8 -121.333 -20 -223.666 -36 -306.999z" />
    <glyph glyph-name="uni0415" unicode="&#x415;" horiz-adv-x="726" 
d="M232 116h450v-116h-598v700h581v-116h-433v-173h341v-110h-341v-185z" />
    <glyph glyph-name="uni0416" unicode="&#x416;" horiz-adv-x="1199" 
d="M1001 0l-237 296h-93v-296h-143v296h-92l-238 -296h-180l304 361l-291 339h173l231 -291h93v291h143v-291h93l231 291h174l-291 -339l303 -361h-180z" />
    <glyph glyph-name="uni0417" unicode="&#x417;" horiz-adv-x="726" 
d="M438 361c165.333 -11.333 248 -70.334 248 -177.001c0 -65.333 -29.167 -114.333 -87.5 -147s-136.5 -49 -234.5 -49c-205.333 0 -317.333 76 -336 228l141 6c12.667 -80 77.667 -120 195 -120c56 0 99 9 129 27s45 42.667 45 74c0 65.333 -58.667 98 -176 98h-94v110h85
c53.333 0 93.5 8.33301 120.5 25s40.5 39.334 40.5 68.001c0 29.333 -13.333 52.333 -40 69s-63.334 25 -110.001 25c-47.333 0 -87 -8.83301 -119 -26.5s-51.333 -45.5 -58 -83.5l-140 9c9.33301 72 41.833 125.833 97.5 161.5s128.834 53.5 219.501 53.5
c87.333 0 158.833 -15 214.5 -45s83.5 -76 83.5 -138c0 -102 -74.667 -158 -224 -168z" />
    <glyph glyph-name="uni0418" unicode="&#x418;" horiz-adv-x="859" 
d="M547 700h228v-700h-143v596l-318 -596h-230v700h144v-598z" />
    <glyph glyph-name="uni0419" unicode="&#x419;" horiz-adv-x="859" 
d="M429 756c-119.333 0 -180.665 48.333 -183.998 145h93c5.33301 -44.667 35.666 -67 90.999 -67c56 0 86.667 22.333 92 67h93c-4.66699 -96.667 -66.334 -145 -185.001 -145zM547.001 700h228v-700h-143v596l-318 -596h-230v700h144v-598z" />
    <glyph glyph-name="uni041A" unicode="&#x41a;" horiz-adv-x="792" 
d="M592 0l-257 296h-103v-296h-148v700h148v-291h100l242 291h175l-301 -339l326 -361h-182z" />
    <glyph glyph-name="uni041B" unicode="&#x41b;" horiz-adv-x="830" 
d="M178 700l567 0.00195312v-700h-148v579h-285c-8.66699 -182 -13.667 -280.333 -15 -295c-10 -118 -33 -197.667 -69 -239c-29.333 -33.333 -71.666 -50 -126.999 -50c-27.333 0 -54.666 1.33301 -81.999 4v120c19.333 -2 35 -3 47 -3s22.667 2.5 32 7.5
s17.5 13.5 24.5 25.5s12.833 24.667 17.5 38s8.66699 31.666 12 54.999s6.16602 45.5 8.49902 66.5s4.16602 48.167 5.49902 81.5s2.5 63.666 3.5 90.999l4 105z" />
    <glyph glyph-name="uni041C" unicode="&#x41c;" horiz-adv-x="1068" 
d="M728 700h256l-1 -700h-141l1 620l-209 -620h-201l-208 618v-618h-141v700h258l194 -617z" />
    <glyph glyph-name="uni041D" unicode="&#x41d;" horiz-adv-x="839" 
d="M607 700h148v-700h-148v296h-375v-296h-148v700h148v-283h375v283z" />
    <glyph glyph-name="uni041E" unicode="&#x41e;" horiz-adv-x="852" 
d="M44 350c0 111.333 33.333 199.5 100 264.5s160.667 97.5 282 97.5s215.5 -32.5 282.5 -97.5s100.5 -153.167 100.5 -264.5s-33.5 -199.5 -100.5 -264.5s-161.167 -97.5 -282.5 -97.5s-215.333 32.5 -282 97.5s-100 153.167 -100 264.5zM192 350
c0 -72 20.5 -130.333 61.5 -175s98.5 -67 172.5 -67s131.667 22.333 173 67s62 103 62 175s-20.667 130.333 -62 175s-99 67 -173 67s-131.5 -22.333 -172.5 -67s-61.5 -103 -61.5 -175z" />
    <glyph glyph-name="uni041F" unicode="&#x41f;" horiz-adv-x="834" 
d="M84 700h666v-700h-148v579h-370v-579h-148v700z" />
    <glyph glyph-name="uni0420" unicode="&#x420;" horiz-adv-x="757" 
d="M458 700c76 0 138.667 -18.499 188 -55.499s74 -93.167 74 -168.5c0 -74.667 -23.833 -129.334 -71.5 -164.001s-110.5 -52 -188.5 -52h-228v-260h-148v700h374zM445 373.001c40 0 71.167 8.66699 93.5 26s33.5 43 33.5 77c0 34.667 -11.167 60.5 -33.5 77.5
s-53.5 25.5 -93.5 25.5h-213v-206h213z" />
    <glyph glyph-name="uni0421" unicode="&#x421;" horiz-adv-x="796" 
d="M44 350c0 110.667 32.167 198.667 96.5 264s154.5 98 270.5 98c94.667 0 172 -21.5 232 -64.5s96 -101.167 108 -174.5l-142 -11c-8.66699 39.333 -31.167 70.833 -67.5 94.5s-79.833 35.5 -130.5 35.5c-71.333 0 -125.666 -22.833 -162.999 -68.5s-56 -103.5 -56 -173.5
c0 -72 20 -130.333 60 -175s96 -67 168 -67c55.333 0 100.166 13.167 134.499 39.5s55.833 60.166 64.5 101.499l143 -9c-12 -79.333 -47 -141.166 -105 -185.499s-137 -66.5 -237 -66.5c-119.333 0 -211.833 32.667 -277.5 98s-98.5 153.333 -98.5 264z" />
    <glyph glyph-name="uni0422" unicode="&#x422;" horiz-adv-x="702" 
d="M678 700v-121h-253v-579h-148v579h-253v121h654z" />
    <glyph glyph-name="uni0423" unicode="&#x423;" horiz-adv-x="773" 
d="M597 700h161.001l-231 -504c-34 -75.333 -68.833 -127.833 -104.5 -157.5s-83.5 -44.5 -143.5 -44.5c-35.333 0 -71.333 2.33301 -108 7v115c40 -3.33301 67.667 -5 83 -5c26 0 48.167 5 66.5 15s34.166 29 47.499 57l6 15h-65l-290 502h166l233 -434z" />
    <glyph glyph-name="uni0424" unicode="&#x424;" horiz-adv-x="996" 
d="M610 651c110.667 0 195.834 -24.6689 255.501 -74.002s89.5 -119.666 89.5 -210.999s-29.833 -161.666 -89.5 -210.999s-144.834 -74 -255.501 -74h-41v-81h-142v81h-41c-110 0 -195.167 24.667 -255.5 74s-90.5 119.666 -90.5 210.999
c0 90.667 30.167 160.834 90.5 210.501s145.5 74.5 255.5 74.5h41v61h142v-61h41zM395 194.998l32 -0.00195312v342h-32c-66 0 -117 -14.667 -153 -44s-54 -71.666 -54 -126.999s18 -97.666 54 -126.999s87 -44 153 -44zM601 194.996c66 0 116.833 14.6689 152.5 44.002
s53.5 71.666 53.5 126.999s-17.833 97.666 -53.5 126.999s-86.5 44 -152.5 44h-32v-342h32z" />
    <glyph glyph-name="uni0425" unicode="&#x425;" horiz-adv-x="773" 
d="M750 0h-172l-196 259l-196 -259h-165l279 357l-258 343h173l171 -241l174 241h165l-255 -338z" />
    <glyph glyph-name="uni0426" unicode="&#x426;" horiz-adv-x="842" 
d="M750 121h76v-283h-138v162h-604v700h148v-579h370v579h148v-579z" />
    <glyph glyph-name="uni0427" unicode="&#x427;" horiz-adv-x="784" 
d="M552 700h148v-700h-148v279c-76 -17.333 -149.333 -26 -220 -26c-181.333 0 -272 73.667 -272 221v226h148v-199c0 -47.333 13.5 -80.333 40.5 -99s69.167 -28 126.5 -28c62 0 121 8.33301 177 25v301z" />
    <glyph glyph-name="uni0428" unicode="&#x428;" horiz-adv-x="1147" 
d="M918 700h145v-700h-979v700h145v-579h272v579h145v-579h272v579z" />
    <glyph glyph-name="uni0429" unicode="&#x429;" horiz-adv-x="1154" 
d="M1063 121h76v-283h-138v162h-917v700h145v-579h272v579h145v-579h272v579h145v-579z" />
    <glyph glyph-name="uni042A" unicode="&#x42a;" horiz-adv-x="862" 
d="M567 439c78 0 141.167 -18 189.5 -54s72.5 -91 72.5 -165c0 -74.667 -24.333 -130 -73 -166s-111.667 -54 -189 -54h-365v579h-180v121h327v-261h218zM555 121c39.333 0 70.167 8.33301 92.5 25s33.5 41.667 33.5 75c0 66.667 -42 100 -126 100h-206v-200h206z" />
    <glyph glyph-name="uni042B" unicode="&#x42b;" horiz-adv-x="1023" 
d="M434 439c77.333 0 140.166 -18 188.499 -54s72.5 -91 72.5 -165c0 -74.667 -24.167 -130 -72.5 -166s-111.166 -54 -188.499 -54h-350v700h148v-261h202zM791 700h148v-700h-148v700zM421 121c40 0 71.167 8.33301 93.5 25s33.5 41.667 33.5 75s-11.167 58.333 -33.5 75
s-53.5 25 -93.5 25h-189v-200h189z" />
    <glyph glyph-name="uni042C" unicode="&#x42c;" horiz-adv-x="745" 
d="M450 439c77.333 0 140.333 -18 189 -54s73 -91 73 -165c0 -74.667 -24.333 -130 -73 -166s-111.667 -54 -189 -54h-366v700h148v-261h218zM437 121c40 0 71.167 8.33301 93.5 25s33.5 41.667 33.5 75s-11.167 58.333 -33.5 75s-53.5 25 -93.5 25h-205v-200h205z" />
    <glyph glyph-name="uni042D" unicode="&#x42d;" horiz-adv-x="798" 
d="M386 712c116 0 206.5 -32.834 271.5 -98.501s97.5 -153.5 97.5 -263.5c0 -110.667 -33.167 -198.667 -99.5 -264s-159.166 -98 -278.499 -98c-98.667 0 -177.334 21.333 -236.001 64s-94.334 102.334 -107.001 179.001l143 8c10.667 -38.667 33.334 -70.167 68.001 -94.5
s78.667 -36.5 132 -36.5c63.333 0 114.666 17.5 153.999 52.5s63.333 81.833 72 140.5h-290v110h288c-10 54 -33.333 97.667 -70 131s-85 50 -145 50c-49.333 0 -92.166 -11 -128.499 -33s-59.833 -51.333 -70.5 -88l-142 11c14.667 71.333 52 127.5 112 168.5
s136.333 61.5 229 61.5z" />
    <glyph glyph-name="uni042E" unicode="&#x42e;" horiz-adv-x="1145" 
d="M731 712c120 0 211.833 -32.333 275.5 -97s95.5 -153 95.5 -265s-32 -200.333 -96 -265s-155.667 -97 -275 -97c-109.333 0 -195.5 27.167 -258.5 81.5s-99.5 129.833 -109.5 226.5h-131v-296h-148v700h148v-284h132c12 92.667 49.5 165.167 112.5 217.5
s147.833 78.5 254.5 78.5zM731 108c72 0 127.167 22 165.5 66s57.5 102.667 57.5 176s-19.167 132 -57.5 176s-93.5 66 -165.5 66s-127.167 -22.167 -165.5 -66.5s-57.5 -102.833 -57.5 -175.5s19.167 -131.167 57.5 -175.5s93.5 -66.5 165.5 -66.5z" />
    <glyph glyph-name="uni042F" unicode="&#x42f;" horiz-adv-x="783" 
d="M305 700h394.001v-700h-148v268h-153l-197 -268h-181l221 272c-60.667 8 -108.834 29 -144.501 63s-53.5 82.333 -53.5 145c0 73.333 24.667 128.333 74 165s112 55 188 55zM318.001 379l233 0.000976562v203h-233c-39.333 0 -70.333 -8.83301 -93 -26.5
s-34 -42.834 -34 -75.501s11.333 -57.667 34 -75s53.667 -26 93 -26z" />
    <glyph glyph-name="uni0430" unicode="&#x430;" horiz-adv-x="658" 
d="M333 536c86 0 151.832 -18.835 197.499 -56.502s68.5 -94.167 68.5 -169.5v-310h-132v101c-45.333 -75.333 -120.666 -113 -225.999 -113c-66 0 -116 14.333 -150 43s-51 66.334 -51 113.001c0 51.333 21.167 90 63.5 116s105.166 42.333 188.499 49l166 13v18
c0 29.333 -10.333 52.833 -31 70.5s-52 26.834 -94 27.501c-77.333 0 -120.333 -25.333 -129 -76h-131c2.66699 42 16.834 76.333 42.501 103s56.5 45.167 92.5 55.5s77.667 15.5 125 15.5zM282.999 85.998c52.667 0 95 12.667 127 38s48 56.666 48 93.999v21l-148 -12
c-86.667 -7.33301 -130 -32.666 -130 -75.999c0 -20 8.66699 -35.833 26 -47.5s43 -17.5 77 -17.5z" />
    <glyph glyph-name="uni0431" unicode="&#x431;" horiz-adv-x="697" 
d="M380 504c82 0 148.833 -23.333 200.5 -70s77.5 -109 77.5 -187c0 -80 -27.333 -143.167 -82 -189.5s-129.667 -69.5 -225 -69.5c-94.667 0 -169.5 27 -224.5 81s-82.5 141 -82.5 261c0 108.667 19.167 192.667 57.5 252s100.166 98.333 185.499 117
c26.667 6 83.667 14 171 24c58.667 7.33301 104.667 15.666 138 24.999v-110c-22 -11.333 -63 -20.666 -123 -27.999c-65.333 -6 -103.666 -9.66699 -114.999 -11c-30 -3.33301 -55.333 -8.5 -76 -15.5s-41 -18.5 -61 -34.5s-36 -39.333 -48 -70s-20.333 -69 -25 -115
c17.333 44 45.833 78.333 85.5 103s88.5 37 146.5 37zM351 97c52 0 93 13.5 123 40.5s45 63.5 45 109.5c0 45.333 -15 81.5 -45 108.5s-71 40.5 -123 40.5c-51.333 0 -92 -13.5 -122 -40.5s-45 -63.167 -45 -108.5c0 -46 14.833 -82.5 44.5 -109.5s70.5 -40.5 122.5 -40.5z
" />
    <glyph glyph-name="uni0432" unicode="&#x432;" horiz-adv-x="643" 
d="M439 272c113.333 -10 170 -52.334 170 -127.001c0 -40.667 -17 -75 -51 -103s-91.667 -42 -173 -42h-321v524h305c74.667 0 129.667 -12.167 165 -36.5s53 -56.166 53 -95.499c0 -66 -49.333 -106 -148 -120zM446 366.999c0 36.667 -32 55 -96 55h-145v-111h151
c60 0 90 18.667 90 56zM368 101.999c66 0 99 20.333 99 61c0 40 -34.667 60 -104 60h-158v-121h163z" />
    <glyph glyph-name="uni0433" unicode="&#x433;" horiz-adv-x="529" 
d="M504 524v-116h-299v-408h-141v524h440z" />
    <glyph glyph-name="uni0434" unicode="&#x434;" horiz-adv-x="687" 
d="M592 116l76 -0.00292969v-255h-134v139h-387v-139h-134v255h49c16 30.667 27.5 71.5 34.5 122.5s14.167 131.167 21.5 240.5c0.666992 6.66699 1 11.834 1 15.501s0.166992 8.33398 0.5 14.001s0.833008 10.834 1.5 15.501h471v-408zM240 407.997
c-6.66699 -82.667 -12.833 -143.668 -18.5 -183.001s-14.5 -75.666 -26.5 -108.999h255v292h-210z" />
    <glyph glyph-name="uni0435" unicode="&#x435;" horiz-adv-x="674" 
d="M638 236l-0.00195312 -16h-458c13.333 -89.333 71 -134 173 -134c66 0 112.667 21.333 140 64l137 -7c-16.667 -49.333 -48.667 -87.5 -96 -114.5s-107.666 -40.5 -180.999 -40.5c-97.333 0 -174.166 22.833 -230.499 68.5s-84.5 114.167 -84.5 205.5
c0 90.667 27.833 159 83.5 205s130.5 69 224.5 69c194.667 0 292 -100 292 -300zM345.998 438c-44.667 0 -81.5 -10.668 -110.5 -32.001s-47.167 -53.666 -54.5 -96.999h318c-3.33301 40 -18.333 71.5 -45 94.5s-62.667 34.5 -108 34.5z" />
    <glyph glyph-name="uni0436" unicode="&#x436;" horiz-adv-x="978" 
d="M791 0l-172 209h-61v-209h-137v209h-61l-173 -209h-177l248 276l-237 248h168l169 -205h63v205h137v-205h63l168 205h169l-237 -248l247 -276h-177z" />
    <glyph glyph-name="uni0437" unicode="&#x437;" horiz-adv-x="623" 
d="M413 272c116.667 -11.333 175.002 -54.667 175.002 -130c0 -20.667 -4.33301 -39.5 -13 -56.5s-22.834 -33.167 -42.501 -48.5s-48.167 -27.333 -85.5 -36s-82 -13 -134 -13c-181.333 0 -277 60.333 -287 181l136 5c10 -54 60.333 -81 151 -81c89.333 0 134 22 134 66
c0 42.667 -48.333 64 -145 64h-67v88h61c87.333 0 131 20 131 60c0 18.667 -10.5 33.334 -31.5 44.001s-48.167 16 -81.5 16c-78.667 0 -122.334 -25.333 -131.001 -76l-137 6c6 59.333 33.333 103.333 82 132s110.667 43 186 43c84.667 0 148.167 -12.333 190.5 -37
s63.5 -58.334 63.5 -101.001c0 -68.667 -51.667 -110.667 -155 -126z" />
    <glyph glyph-name="uni0438" unicode="&#x438;" horiz-adv-x="709" 
d="M437 524h208v-524h-136v424l-237 -424h-208v524h135v-424z" />
    <glyph glyph-name="uni0439" unicode="&#x439;" horiz-adv-x="709" 
d="M355 587c-58 0 -102 13.5 -132 40.5s-46 64.167 -48 111.5h94c2 -20 9.66699 -37.333 23 -52s34.333 -22 63 -22c51.333 0 80 24.667 86 74h93c-2 -47.333 -17.833 -84.5 -47.5 -111.5s-73.5 -40.5 -131.5 -40.5zM437 524h208v-524h-136v424l-237 -424h-208v524h135v-424
z" />
    <glyph glyph-name="uni043A" unicode="&#x43a;" horiz-adv-x="653" 
d="M462 0l-187 209h-70v-209h-141v524h141v-205h70l181 205h171l-252 -248l268 -276h-181z" />
    <glyph glyph-name="uni043B" unicode="&#x43b;" horiz-adv-x="674" 
d="M142 524l468 0.000976562v-524h-142v408h-203c-10.667 -136.667 -17.667 -216 -21 -238c-12 -79.333 -36 -131 -72 -155c-22.667 -14.667 -52.667 -22 -90 -22c-22 0 -42.333 1.33301 -61 4v115c14.667 -1.33301 24 -2 28 -2c32 0 53 23 63 69s18.333 130.667 25 254
c2 39.333 3.66699 69.666 5 90.999z" />
    <glyph glyph-name="uni043C" unicode="&#x43c;" horiz-adv-x="905" 
d="M609 524h232v-524h-135v433l-165 -433h-177l-165 433v-433h-135v524h235l155 -445z" />
    <glyph glyph-name="uni043D" unicode="&#x43d;" horiz-adv-x="684" 
d="M479 524h141v-524h-141v209h-274v-209h-141v524h141v-198h274v198z" />
    <glyph glyph-name="uni043E" unicode="&#x43e;" horiz-adv-x="690" 
d="M38 262c0 85.333 27.667 152.333 83 201s130 73 224 73s168.5 -24.333 223.5 -73s82.5 -115.667 82.5 -201s-27.5 -152.333 -82.5 -201s-129.5 -73 -223.5 -73s-168.667 24.333 -224 73s-83 115.667 -83 201zM178 262c0 -48.667 15 -88.334 45 -119.001
s70.667 -46 122 -46s92 15.333 122 46s45 70.334 45 119.001s-15 88.334 -45 119.001s-70.667 46 -122 46s-92 -15.333 -122 -46s-45 -70.334 -45 -119.001z" />
    <glyph glyph-name="uni043F" unicode="&#x43f;" horiz-adv-x="677" 
d="M64 524h549v-524h-141v408h-267v-408h-141v524z" />
    <glyph glyph-name="uni0440" unicode="&#x440;" horiz-adv-x="702" 
d="M404 536c76.667 0 138.999 -24.5 186.999 -73.5s72 -115.833 72 -200.5s-24 -151.5 -72 -200.5s-110 -73.5 -186 -73.5c-89.333 0 -156 32.333 -200 97v-285h-141v724h131v-98c42.667 73.333 112.334 110 209.001 110zM360.999 97c50 0 89.667 15 119 45s44 70 44 120
s-14.667 90 -44 120s-69 45 -119 45s-89.5 -15 -118.5 -45s-43.5 -70 -43.5 -120s14.5 -90 43.5 -120s68.5 -45 118.5 -45z" />
    <glyph glyph-name="uni0441" unicode="&#x441;" horiz-adv-x="656" 
d="M624 189c-9.33301 -64 -39.8311 -113.5 -91.498 -148.5s-116.167 -52.5 -193.5 -52.5c-93.333 0 -166.833 23.667 -220.5 71s-80.5 115 -80.5 203c0 87.333 26.667 154.833 80 202.5s125.666 71.5 216.999 71.5c75.333 0 138.666 -17 189.999 -51
s81.666 -81.667 90.999 -143l-136 -10c-8 30.667 -25.167 54.167 -51.5 70.5s-57.5 24.5 -93.5 24.5c-47.333 0 -85.333 -14.833 -114 -44.5s-43 -69.834 -43 -120.501c0 -51.333 14.5 -91.666 43.5 -120.999s68.167 -44 117.5 -44c38.667 0 70.834 8.66699 96.501 26
s42.5 42.333 50.5 75z" />
    <glyph glyph-name="uni0442" unicode="&#x442;" horiz-adv-x="596" 
d="M573 524v-116h-204v-408h-142v408h-205v116h551z" />
    <glyph glyph-name="uni0443" unicode="&#x443;" horiz-adv-x="662" 
d="M493 524h151.999l-206 -564c-23.333 -66 -52.166 -111.167 -86.499 -135.5s-85.5 -36.5 -153.5 -36.5c-26.667 0 -53.334 1.33301 -80.001 4v109c24.667 -2 48.334 -3 71.001 -3c33.333 0 58.333 5.16699 75 15.5s30.667 30.833 42 61.5l9 25h-74l-224 524h153l178 -459z
" />
    <glyph glyph-name="uni0444" unicode="&#x444;" horiz-adv-x="883" 
d="M528 536c102 0 180.333 -24.333 235 -73s82 -115.667 82 -201s-27.333 -152.333 -82 -201s-133 -73 -235 -73h-17v-188h-138v188h-18c-102 0 -180.333 24.333 -235 73s-82 115.667 -82 201s27.333 152.333 82 201s133 73 235 73h18v200h138v-200h17zM360 97
l13 -0.00195312v330h-13c-59.333 0 -104.833 -14.667 -136.5 -44s-47.5 -69.666 -47.5 -120.999s15.833 -91.666 47.5 -120.999s77.167 -44 136.5 -44zM524 96.998c59.333 0 104.666 14.6689 135.999 44.002s47 69.666 47 120.999s-15.667 91.666 -47 120.999
s-76.666 44 -135.999 44h-13v-330h13z" />
    <glyph glyph-name="uni0445" unicode="&#x445;" horiz-adv-x="669" 
d="M649 0h-170l-147 181l-147 -181h-165l229 267l-217 257h171l132 -170l133 170h165l-216 -254z" />
    <glyph glyph-name="uni0446" unicode="&#x446;" horiz-adv-x="708" 
d="M613 116h76v-255h-133v139h-492v524h141v-408h267v408h141v-408z" />
    <glyph glyph-name="uni0447" unicode="&#x447;" horiz-adv-x="650" 
d="M445 524h141v-524h-141v197c-70.667 -12.667 -131 -19 -181 -19c-70.667 0 -124.5 15.167 -161.5 45.5s-55.5 79.833 -55.5 148.5v152h141v-136c0 -34.667 9.5 -59 28.5 -73s50.167 -21 93.5 -21c40.667 0 85.667 6 135 18v212z" />
    <glyph glyph-name="uni0448" unicode="&#x448;" horiz-adv-x="982" 
d="M779 524h139v-524h-854v524h138v-408h220v408h138v-408h219v408z" />
    <glyph glyph-name="uni0449" unicode="&#x449;" horiz-adv-x="1013" 
d="M918 116h76v-255h-134v139h-796v524h138v-408h220v408h138v-408h219v408h139v-408z" />
    <glyph glyph-name="uni044A" unicode="&#x44a;" horiz-adv-x="730" 
d="M457 344c159.333 0 239 -57 239 -171c0 -115.333 -79.667 -173 -239 -173h-294v408h-141v116h282v-180h153zM448 105c71.333 0 107 23 107 69s-35.667 69 -107 69h-144v-138h144z" />
    <glyph glyph-name="uni044B" unicode="&#x44b;" horiz-adv-x="870" 
d="M344 344c158.667 0 238 -57 238 -171c0 -115.333 -79.333 -173 -238 -173h-280v524h141v-180h139zM665 524h141v-524h-141v524zM334 105c72 0 108 23 108 69s-36 69 -108 69h-129v-138h129z" />
    <glyph glyph-name="uni044C" unicode="&#x44c;" horiz-adv-x="630" 
d="M359 344c158.667 0 238 -57 238 -171c0 -115.333 -79.333 -173 -238 -173h-295v524h141v-180h154zM348 105c72 0 108 23 108 69s-36 69 -108 69h-143v-138h143z" />
    <glyph glyph-name="uni044D" unicode="&#x44d;" horiz-adv-x="654" 
d="M319 536c91.333 0 163.67 -23.832 217.003 -71.499s80 -115.167 80 -202.5c0 -88 -26.833 -155.667 -80.5 -203s-127.5 -71 -221.5 -71c-74.667 0 -137.667 16.667 -189 50s-82.333 80.666 -93 141.999l139 6c9.33301 -28.667 26.666 -51 51.999 -67
s55.666 -24 90.999 -24c42.667 0 78 11.167 106 33.5s45.667 53.5 53 93.5h-208v90h206c-8.66699 36.667 -26.334 65.334 -53.001 86.001s-59.667 31 -99 31c-34 0 -63.5 -7.5 -88.5 -22.5s-42.5 -36.5 -52.5 -64.5l-138 8c10.667 59.333 41.5 105.166 92.5 137.499
s113.167 48.5 186.5 48.5z" />
    <glyph glyph-name="uni044E" unicode="&#x44e;" horiz-adv-x="946" 
d="M608 536c92 0 164.833 -24.167 218.5 -72.5s80.5 -115.5 80.5 -201.5s-26.833 -153.167 -80.5 -201.5s-126.5 -72.5 -218.5 -72.5c-82 0 -149 19.333 -201 58s-83.333 93 -94 163h-108v-209h-141v524h141v-199h110c12.667 66.667 44.667 118.5 96 155.5
s117 55.5 197 55.5zM608 97c50 0 89 14.833 117 44.5s42 69.834 42 120.501s-14 90.834 -42 120.501s-67 44.5 -117 44.5s-89 -14.833 -117 -44.5s-42 -69.834 -42 -120.501s14 -90.834 42 -120.501s67 -44.5 117 -44.5z" />
    <glyph glyph-name="uni044F" unicode="&#x44f;" horiz-adv-x="647" 
d="M283 524h300v-524h-141v192h-109l-138 -192h-169l168 200c-96.667 19.333 -145 72 -145 158c0 110.667 78 166 234 166zM298 282h144v137h-144c-72 0 -108 -22.667 -108 -68c0 -46 36 -69 108 -69z" />
    <glyph glyph-name="uni0451" unicode="&#x451;" horiz-adv-x="674" 
d="M294 716v-118h-126v118h126zM505 716v-118h-126v118h126zM638 236l-0.00195312 -16h-458c13.333 -89.333 71 -134 173 -134c66 0 112.667 21.333 140 64l137 -7c-16.667 -49.333 -48.667 -87.5 -96 -114.5s-107.666 -40.5 -180.999 -40.5
c-97.333 0 -174.166 22.833 -230.499 68.5s-84.5 114.167 -84.5 205.5c0 90.667 27.833 159 83.5 205s130.5 69 224.5 69c194.667 0 292 -100 292 -300zM345.998 438c-44.667 0 -81.5 -10.668 -110.5 -32.001s-47.167 -53.666 -54.5 -96.999h318
c-3.33301 40 -18.333 71.5 -45 94.5s-62.667 34.5 -108 34.5z" />
    <glyph glyph-name="uni0454" unicode="&#x454;" horiz-adv-x="654" 
d="M484 186l138 -6.00098c-10.667 -61.333 -41.5 -108.666 -92.5 -141.999s-114.167 -50 -189.5 -50c-94 0 -167.833 23.667 -221.5 71s-80.5 115 -80.5 203c0 87.333 26.667 154.833 80 202.5s126 71.5 218 71.5c73.333 0 135.333 -16.167 186 -48.5
s81.667 -78.166 93 -137.499l-139 -8c-10 28 -27.333 49.5 -52 64.5s-54 22.5 -88 22.5c-39.333 0 -72.333 -10.333 -99 -31s-44.334 -49.334 -53.001 -86.001h206v-90h-208c7.33301 -40 24.833 -71.167 52.5 -93.5s62.834 -33.5 105.501 -33.5c36 0 66.5 8 91.5 24
s42.5 38.333 52.5 67z" />
    <glyph glyph-name="uni0456" unicode="&#x456;" horiz-adv-x="269" 
d="M59 596v132h151v-132h-151zM64 0v524h141v-524h-141z" />
    <glyph glyph-name="uni0457" unicode="&#x457;" horiz-adv-x="271" 
d="M-17 598v118h120v-118h-120zM169 598v118h120v-118h-120zM63 0v524h141v-524h-141z" />
    <glyph glyph-name="uni045E" unicode="&#x45e;" horiz-adv-x="662" 
d="M329 587c-58 0 -101.833 13.5 -131.5 40.5s-45.5 64.167 -47.5 111.5h93c2 -20 9.66699 -37.333 23 -52s34.333 -22 63 -22s49.667 7.33301 63 22s21 32 23 52h94c-2 -47.333 -18 -84.5 -48 -111.5s-74 -40.5 -132 -40.5zM493 524h151.999l-206 -564
c-23.333 -66 -52.166 -111.167 -86.499 -135.5s-85.5 -36.5 -153.5 -36.5c-26.667 0 -53.334 1.33301 -80.001 4v109c24.667 -2 48.334 -3 71.001 -3c33.333 0 58.333 5.16699 75 15.5s30.667 30.833 42 61.5l9 25h-74l-224 524h153l178 -459z" />
    <glyph glyph-name="uni0490" unicode="&#x490;" horiz-adv-x="657" 
d="M621 867v-288h-389v-579h-148v700h399v167h138z" />
    <glyph glyph-name="uni0491" unicode="&#x491;" horiz-adv-x="533" 
d="M504 668v-260h-299v-408h-141v524h306v144h134z" />
    <glyph glyph-name="uni04C1" unicode="&#x4c1;" horiz-adv-x="1199" 
d="M599 756c-118.667 0 -180.332 48.333 -184.999 145h94c4 -44.667 34.333 -67 91 -67s87 22.333 91 67h94c-4.66699 -96.667 -66.334 -145 -185.001 -145zM1001 0l-237 296h-93v-296h-143v296h-92l-238 -296h-180l304 361l-291 339h173l231 -291h93v291h143v-291h93
l231 291h174l-291 -339l303 -361h-180z" />
    <glyph glyph-name="uni04C2" unicode="&#x4c2;" horiz-adv-x="978" 
d="M490 587c-58 0 -102 13.5 -132 40.5s-46 64.167 -48 111.5h94c2 -20 9.66699 -37.333 23 -52s34.333 -22 63 -22c51.333 0 80 24.667 86 74h93c-2 -47.333 -17.833 -84.5 -47.5 -111.5s-73.5 -40.5 -131.5 -40.5zM791 0l-172 209h-61v-209h-137v209h-61l-173 -209h-177
l248 276l-237 248h168l169 -205h63v205h137v-205h63l168 205h169l-237 -248l247 -276h-177z" />
    <glyph glyph-name="Wgrave" unicode="&#x1e80;" horiz-adv-x="1143" 
d="M641 760h-109l-136 122h145zM966 700h154l-190 -700h-219l-139 598l-143 -598h-221l-185 700h158l144 -595l144 595h208l141 -596z" />
    <glyph glyph-name="wgrave" unicode="&#x1e81;" horiz-adv-x="1012" 
d="M584 588h-109l-126 147h146zM838 524h152l-174 -524h-199l-109 450l-112 -450h-203l-171 524h155l124 -427l110 427h197l107 -417z" />
    <glyph glyph-name="Wacute" unicode="&#x1e82;" horiz-adv-x="1143" 
d="M747 882l-136 -122h-110l101 122h145zM966 700h154l-190 -700h-219l-139 598l-143 -598h-221l-185 700h158l144 -595l144 595h208l141 -596z" />
    <glyph glyph-name="wacute" unicode="&#x1e83;" horiz-adv-x="1012" 
d="M663 735l-126 -147h-109l89 147h146zM838 524h152l-174 -524h-199l-109 450l-112 -450h-203l-171 524h155l124 -427l110 427h197l107 -417z" />
    <glyph glyph-name="Wdieresis" unicode="&#x1e84;" horiz-adv-x="1143" 
d="M524 873v-112h-140v112h140zM759 873v-112h-140v112h140zM966 700h154l-190 -700h-219l-139 598l-143 -598h-221l-185 700h158l144 -595l144 595h208l141 -596z" />
    <glyph glyph-name="wdieresis" unicode="&#x1e85;" horiz-adv-x="1012" 
d="M464 716v-118h-126v118h126zM675 716v-118h-126v118h126zM838 524h152l-174 -524h-199l-109 450l-112 -450h-203l-171 524h155l124 -427l110 427h197l107 -417z" />
    <glyph glyph-name="uni1E9E" unicode="&#x1e9e;" horiz-adv-x="774" 
d="M482 405c76.667 -5.33301 138.167 -25.498 184.5 -60.498s69.5 -84.5 69.5 -148.5c0 -66.667 -25.333 -117.334 -76 -152.001s-118 -52 -202 -52c-31.333 0 -63.666 2.66699 -96.999 8v112c23.333 -3.33301 46 -5 68 -5c49.333 0 88.166 9.16699 116.499 27.5
s42.5 44.833 42.5 79.5c0 33.333 -13.667 58.666 -41 75.999s-65.333 26 -114 26c-24.667 0 -52 -2.66699 -82 -8v109l149 168h-139c-92.667 0 -139 -43.333 -139 -130v-455h-148v474c0 81.333 25.333 139.333 76 174s124.667 52 222 52h301v-96z" />
    <glyph glyph-name="Ygrave" unicode="&#x1ef2;" horiz-adv-x="789" 
d="M464 760h-109l-136 122h144zM775 700l-307 -427v-273h-147v273l-307 427h172l210 -313l213 313h166z" />
    <glyph glyph-name="ygrave" unicode="&#x1ef3;" horiz-adv-x="662" 
d="M408 588h-109l-126 147h145zM493 524h151.999l-206 -564c-23.333 -66 -52.166 -111.167 -86.499 -135.5s-85.5 -36.5 -153.5 -36.5c-26.667 0 -53.334 1.33301 -80.001 4v109c24.667 -2 48.334 -3 71.001 -3c33.333 0 58.333 5.16699 75 15.5s30.667 30.833 42 61.5l9 25
h-74l-224 524h153l178 -459z" />
    <glyph glyph-name="endash" unicode="&#x2013;" horiz-adv-x="635" 
d="M55 353h524v-109h-524v109z" />
    <glyph glyph-name="emdash" unicode="&#x2014;" horiz-adv-x="785" 
d="M55 353h675v-109h-675v109z" />
    <glyph glyph-name="quoteleft" unicode="&#x2018;" horiz-adv-x="252" 
d="M190 712v-252h-138v88l78 164h60z" />
    <glyph glyph-name="quoteright" unicode="&#x2019;" horiz-adv-x="252" 
d="M62 448v252h138v-88l-78 -164h-60z" />
    <glyph glyph-name="quotesinglbase" unicode="&#x201a;" horiz-adv-x="252" 
d="M62 -98v252h138v-88l-78 -164h-60z" />
    <glyph glyph-name="quotedblleft" unicode="&#x201c;" horiz-adv-x="458" 
d="M190 712v-252h-138v88l78 164h60zM396 712v-252h-138v88l78 164h60z" />
    <glyph glyph-name="quotedblright" unicode="&#x201d;" horiz-adv-x="458" 
d="M62 448v252h138v-88l-78 -164h-60zM268 448v252h138v-88l-78 -164h-60z" />
    <glyph glyph-name="quotedblbase" unicode="&#x201e;" horiz-adv-x="458" 
d="M62 -98v252h138v-88l-78 -164h-60zM268 -98v252h138v-88l-78 -164h-60z" />
    <glyph glyph-name="dagger" unicode="&#x2020;" horiz-adv-x="474" 
d="M430 524v-104h-127v-483h-131v483h-128v104h128v176h131v-176h127z" />
    <glyph glyph-name="daggerdbl" unicode="&#x2021;" horiz-adv-x="482" 
d="M434 420h-127v-194h127v-103h-127v-186h-131v186h-128v103h128v194h-128v104h128v176h131v-176h127v-104z" />
    <glyph glyph-name="bullet" unicode="&#x2022;" horiz-adv-x="421" 
d="M338 315c0 -36.667 -12 -66.667 -36 -90s-54.667 -35 -92 -35c-36.667 0 -66.834 11.667 -90.501 35s-35.5 53.333 -35.5 90c0 36 11.833 65.833 35.5 89.5s53.834 35.5 90.501 35.5s67.167 -12 91.5 -36s36.5 -53.667 36.5 -89z" />
    <glyph glyph-name="ellipsis" unicode="&#x2026;" horiz-adv-x="789" 
d="M64 0v154h157v-154h-157zM316 0v154h157v-154h-157zM568 0v154h158v-154h-158z" />
    <glyph glyph-name="perthousand" unicode="&#x2030;" horiz-adv-x="1395" 
d="M30 531c0 54 18 96.667 54 128s84.333 47 145 47c61.333 0 109.833 -15.667 145.5 -47s53.5 -74 53.5 -128s-17.833 -96.833 -53.5 -128.5s-84.167 -47.5 -145.5 -47.5c-60.667 0 -109 15.833 -145 47.5s-54 74.5 -54 128.5zM147 0l565 700h92l-564 -700h-93zM130 531
c0 -30 8.99902 -53.501 26.999 -70.501s42 -25.5 72 -25.5s54 8.33301 72 25s27 40.334 27 71.001c0 30 -9 53.5 -27 70.5s-42 25.5 -72 25.5c-29.333 0 -53.166 -8.5 -71.499 -25.5s-27.5 -40.5 -27.5 -70.5zM523.999 169.999c0 53.333 17.833 95.833 53.5 127.5
s83.834 47.5 144.501 47.5c61.333 0 109.833 -15.833 145.5 -47.5s53.5 -74.167 53.5 -127.5c0 -54 -17.833 -96.833 -53.5 -128.5s-84.167 -47.5 -145.5 -47.5c-60.667 0 -108.834 15.833 -144.501 47.5s-53.5 74.5 -53.5 128.5zM973.999 169.999
c0 53.333 18 95.833 54 127.5s84.667 47.5 146 47.5c60.667 0 109 -15.833 145 -47.5s54 -74.167 54 -127.5c0 -54 -17.833 -96.833 -53.5 -128.5s-84.167 -47.5 -145.5 -47.5s-110 15.833 -146 47.5s-54 74.5 -54 128.5zM621.999 169.999c0 -30 9.16699 -53.667 27.5 -71
s42.5 -26 72.5 -26s54.167 8.5 72.5 25.5s27.5 40.833 27.5 71.5c0 30 -9.16699 53.5 -27.5 70.5s-42.5 25.5 -72.5 25.5s-54.167 -8.5 -72.5 -25.5s-27.5 -40.5 -27.5 -70.5zM1074 169.999c0 -30.667 9.16699 -54.5 27.5 -71.5s42.5 -25.5 72.5 -25.5
c29.333 0 53 8.5 71 25.5s27 40.833 27 71.5c0 30 -9 53.5 -27 70.5s-41.667 25.5 -71 25.5c-30 0 -54.167 -8.5 -72.5 -25.5s-27.5 -40.5 -27.5 -70.5z" />
    <glyph glyph-name="guilsinglleft" unicode="&#x2039;" horiz-adv-x="350" 
d="M310 465l-172 -185l172 -185h-136l-146 159v52l146 159h136z" />
    <glyph glyph-name="guilsinglright" unicode="&#x203a;" horiz-adv-x="350" 
d="M176 465l146 -159v-52l-146 -159h-136l172 185l-172 185h136z" />
    <glyph glyph-name="fraction" unicode="&#x2044;" horiz-adv-x="181" 
d="M-222 0l524 700h101l-524 -700h-101z" />
    <glyph glyph-name="uni2070" unicode="&#x2070;" horiz-adv-x="506" 
d="M44 549c0 70 18.5 125 55.5 165s88.167 60 153.5 60s116.5 -20 153.5 -60s55.5 -95 55.5 -165s-18.333 -125 -55 -165s-88 -60 -154 -60s-117.333 20 -154 60s-55 95 -55 165zM153 549c0 -44.667 9 -78.834 27 -102.501s42.333 -35.5 73 -35.5s55 11.833 73 35.5
s27 57.834 27 102.501c0 44 -9 77.833 -27 101.5s-42.333 35.5 -73 35.5s-55 -11.833 -73 -35.5s-27 -57.5 -27 -101.5z" />
    <glyph glyph-name="uni2074" unicode="&#x2074;" horiz-adv-x="491" 
d="M468 510v-88h-81v-89h-109v89h-258v81l196 261h171v-254h81zM126 510h152v201z" />
    <glyph glyph-name="uni2075" unicode="&#x2075;" horiz-adv-x="458" 
d="M259 613c50 0 89.835 -11.002 119.502 -33.002s44.5 -55.667 44.5 -101c0 -49.333 -18.167 -87.166 -54.5 -113.499s-83.5 -39.5 -141.5 -39.5c-52 0 -96.333 11 -133 33s-58.334 54 -65.001 96l106 6c4.66699 -16 15.667 -28.167 33 -36.5s37 -12.5 59 -12.5
c26.667 0 48 6 64 18s24 28.333 24 49s-8.5 36.834 -25.5 48.501s-38.833 17.5 -65.5 17.5c-38.667 0 -67.334 -11 -86.001 -33l-96 9l21 243h331v-88h-251l-9 -101c29.333 25.333 71 38 125 38z" />
    <glyph glyph-name="uni2076" unicode="&#x2076;" horiz-adv-x="490" 
d="M287 608c48 0 87.5 -11.3311 118.5 -33.998s46.5 -56.334 46.5 -101.001c0 -46.667 -17.667 -83.167 -53 -109.5s-83 -39.5 -143 -39.5c-141.333 0 -212 73.333 -212 220c0 76.667 18.5 134.167 55.5 172.5s89.5 57.5 157.5 57.5c49.333 0 90 -10.667 122 -32
s50.667 -52.333 56 -93l-105 -7c-2.66699 13.333 -10.5 24.333 -23.5 33s-29.5 13 -49.5 13c-39.333 0 -67.333 -15.333 -84 -46c-12 -22.667 -18 -50.334 -18 -83.001c28 32.667 72 49 132 49zM256 410.002c27.333 0 48.833 5.66699 64.5 17s23.5 26.666 23.5 45.999
s-8 34.666 -24 45.999s-37.333 17 -64 17c-28 0 -50 -5.66699 -66 -17s-24 -26.666 -24 -45.999s8 -34.666 24 -45.999s38 -17 66 -17z" />
    <glyph glyph-name="uni2077" unicode="&#x2077;" horiz-adv-x="407" 
d="M20 764h372v-73c-96 -118 -156.333 -237.333 -181 -358h-115c26 114.667 88.667 229 188 343h-264v88z" />
    <glyph glyph-name="uni2078" unicode="&#x2078;" horiz-adv-x="483" 
d="M332 560c35.333 -8.66699 63.333 -22.332 84 -40.999s31 -42.334 31 -71.001c0 -40.667 -19.833 -71.5 -59.5 -92.5s-88.5 -31.5 -146.5 -31.5c-56.667 0 -105 10.5 -145 31.5s-60 51.833 -60 92.5c0 56 38.667 93.333 116 112c-68 16 -102 49.333 -102 100
c0 36.667 18.333 64.834 55 84.501s82 29.5 136 29.5s99.5 -9.83301 136.5 -29.5s55.5 -47.834 55.5 -84.501c0 -50.667 -33.667 -84 -101 -100zM241 694.002c-26.667 0 -47.667 -4.33301 -63 -13s-23 -20.667 -23 -36c0 -16 7.66699 -28.333 23 -37s36.333 -13 63 -13
c57.333 0 86 16.667 86 50c0 15.333 -7.5 27.333 -22.5 36s-36.167 13 -63.5 13zM241 404.002c66.667 0 100 18.667 100 56c0 18 -8.83301 32 -26.5 42s-42.167 15 -73.5 15c-30.667 0 -54.834 -5 -72.501 -15s-26.5 -24 -26.5 -42s8.83301 -31.833 26.5 -41.5
s41.834 -14.5 72.501 -14.5z" />
    <glyph glyph-name="uni2079" unicode="&#x2079;" horiz-adv-x="489" 
d="M235 774c140 0 210 -73.334 210 -220.001c0 -77.333 -18.333 -135 -55 -173s-88.667 -57 -156 -57c-50.667 0 -91.834 10.5 -123.501 31.5s-50.167 52.167 -55.5 93.5l105 7c3.33301 -13.333 11.333 -24.333 24 -33s29.334 -13 50.001 -13c40 0 68.667 16.667 86 50
c9.33301 18.667 14.666 45.334 15.999 80.001c-29.333 -32.667 -73.666 -49 -132.999 -49c-48 0 -87.5 11.333 -118.5 34s-46.5 56 -46.5 100c0 46.667 17.667 83.167 53 109.5s83.333 39.5 144 39.5zM235 562.999c27.333 0 49 5.66699 65 17s24 26.333 24 45
c0 19.333 -8.16699 34.666 -24.5 45.999s-37.833 17 -64.5 17s-48.167 -5.66699 -64.5 -17s-24.5 -26.666 -24.5 -45.999c0 -18.667 8 -33.667 24 -45s37.667 -17 65 -17z" />
    <glyph glyph-name="uni2080" unicode="&#x2080;" horiz-adv-x="506" 
d="M44 99c0 70 18.5 125 55.5 165s88.167 60 153.5 60s116.5 -20 153.5 -60s55.5 -95 55.5 -165s-18.333 -125 -55 -165s-88 -60 -154 -60s-117.333 20 -154 60s-55 95 -55 165zM153 99c0 -44.667 9 -78.834 27 -102.501s42.333 -35.5 73 -35.5s55 11.833 73 35.5
s27 57.834 27 102.501c0 44 -9 77.833 -27 101.5s-42.333 35.5 -73 35.5s-55 -11.833 -73 -35.5s-27 -57.5 -27 -101.5z" />
    <glyph glyph-name="uni2081" unicode="&#x2081;" horiz-adv-x="326" 
d="M147 315h90v-431h-109v314l-91 -65v106z" />
    <glyph glyph-name="uni2082" unicode="&#x2082;" horiz-adv-x="419" 
d="M173 -31h220.999v-88h-376v80l162 119c32.667 24 56.167 43.667 70.5 59s21.5 31.333 21.5 48c0 15.333 -5.5 27.333 -16.5 36s-25.5 13 -43.5 13c-44 0 -69.333 -26.333 -76 -79l-105 8c4 54 22.333 94 55 120s74.667 39 126 39c48 0 88 -11.333 120 -34
s48 -55.667 48 -99c0 -25.333 -7.66699 -49.333 -23 -72s-42.666 -48 -81.999 -76z" />
    <glyph glyph-name="uni2083" unicode="&#x2083;" horiz-adv-x="436" 
d="M254 148c100.667 -8 150.999 -51 150.999 -129c0 -48 -18.833 -83.667 -56.5 -107s-85.167 -35 -142.5 -35c-54 0 -98.333 11.667 -133 35s-55 57.666 -61 102.999l106 7c6.66699 -38 36 -57 88 -57c28 0 50 5.16699 66 15.5s24 24.833 24 43.5
c0 16.667 -7.5 30.334 -22.5 41.001s-37.167 16 -66.5 16c-23.333 0 -48.666 -2.33301 -75.999 -7v67l120 86h-212v88h351v-78z" />
    <glyph glyph-name="uni2084" unicode="&#x2084;" horiz-adv-x="491" 
d="M468 61v-88h-81v-89h-109v89h-258v81l196 261h171v-254h81zM126 61h152v201z" />
    <glyph glyph-name="uni2085" unicode="&#x2085;" horiz-adv-x="458" 
d="M259 164c50 0 89.835 -11.002 119.502 -33.002s44.5 -55.667 44.5 -101c0 -49.333 -18.167 -87.166 -54.5 -113.499s-83.5 -39.5 -141.5 -39.5c-52 0 -96.333 11 -133 33s-58.334 54 -65.001 96l106 6c4.66699 -16 15.667 -28.167 33 -36.5s37 -12.5 59 -12.5
c26.667 0 48 6 64 18s24 28.333 24 49s-8.5 36.834 -25.5 48.501s-38.833 17.5 -65.5 17.5c-38.667 0 -67.334 -11 -86.001 -33l-96 9l21 243h331v-88h-251l-9 -101c29.333 25.333 71 38 125 38z" />
    <glyph glyph-name="uni2086" unicode="&#x2086;" horiz-adv-x="490" 
d="M287 158c48 0 87.5 -11.3311 118.5 -33.998s46.5 -56.334 46.5 -101.001c0 -46.667 -17.667 -83.167 -53 -109.5s-83 -39.5 -143 -39.5c-141.333 0 -212 73.333 -212 220c0 76.667 18.5 134.167 55.5 172.5s89.5 57.5 157.5 57.5c49.333 0 90 -10.667 122 -32
s50.667 -52.333 56 -93l-105 -7c-2.66699 13.333 -10.5 24.333 -23.5 33s-29.5 13 -49.5 13c-39.333 0 -67.333 -15.333 -84 -46c-12 -22.667 -18 -50.334 -18 -83.001c28 32.667 72 49 132 49zM256 -39.998c27.333 0 48.833 5.66699 64.5 17s23.5 26.666 23.5 45.999
s-8 34.666 -24 45.999s-37.333 17 -64 17c-28 0 -50 -5.66699 -66 -17s-24 -26.666 -24 -45.999s8 -34.666 24 -45.999s38 -17 66 -17z" />
    <glyph glyph-name="uni2087" unicode="&#x2087;" horiz-adv-x="407" 
d="M20 315h372v-73c-96 -118 -156.333 -237.333 -181 -358h-115c26 114.667 88.667 229 188 343h-264v88z" />
    <glyph glyph-name="uni2088" unicode="&#x2088;" horiz-adv-x="483" 
d="M332 110c35.333 -8.66699 63.333 -22.332 84 -40.999s31 -42.334 31 -71.001c0 -40.667 -19.833 -71.5 -59.5 -92.5s-88.5 -31.5 -146.5 -31.5c-56.667 0 -105 10.5 -145 31.5s-60 51.833 -60 92.5c0 56 38.667 93.333 116 112c-68 16 -102 49.333 -102 100
c0 36.667 18.333 64.834 55 84.501s82 29.5 136 29.5s99.5 -9.83301 136.5 -29.5s55.5 -47.834 55.5 -84.501c0 -50.667 -33.667 -84 -101 -100zM241 244.002c-26.667 0 -47.667 -4.33301 -63 -13s-23 -20.667 -23 -36c0 -16 7.66699 -28.333 23 -37s36.333 -13 63 -13
c57.333 0 86 16.667 86 50c0 15.333 -7.5 27.333 -22.5 36s-36.167 13 -63.5 13zM241 -45.998c66.667 0 100 18.667 100 56c0 18 -8.83301 32 -26.5 42s-42.167 15 -73.5 15c-30.667 0 -54.834 -5 -72.501 -15s-26.5 -24 -26.5 -42s8.83301 -31.833 26.5 -41.5
s41.834 -14.5 72.501 -14.5z" />
    <glyph glyph-name="uni2089" unicode="&#x2089;" horiz-adv-x="489" 
d="M235 324c140 0 210 -73.334 210 -220.001c0 -77.333 -18.333 -135 -55 -173s-88.667 -57 -156 -57c-50.667 0 -91.834 10.5 -123.501 31.5s-50.167 52.167 -55.5 93.5l105 7c3.33301 -13.333 11.333 -24.333 24 -33s29.334 -13 50.001 -13c40 0 68.667 16.667 86 50
c9.33301 18.667 14.666 45.334 15.999 80.001c-29.333 -32.667 -73.666 -49 -132.999 -49c-48 0 -87.5 11.333 -118.5 34s-46.5 56 -46.5 100c0 46.667 17.667 83.167 53 109.5s83.333 39.5 144 39.5zM235 112.999c27.333 0 49 5.66699 65 17s24 26.333 24 45
c0 19.333 -8.16699 34.666 -24.5 45.999s-37.833 17 -64.5 17s-48.167 -5.66699 -64.5 -17s-24.5 -26.666 -24.5 -45.999c0 -18.667 8 -33.667 24 -45s37.667 -17 65 -17z" />
    <glyph glyph-name="Euro" unicode="&#x20ac;" horiz-adv-x="772" 
d="M608 219l134 -4.00098c-14.667 -70.667 -48.667 -126.167 -102 -166.5s-124 -60.5 -212 -60.5c-93.333 0 -169.833 23.167 -229.5 69.5s-97.834 110.166 -114.501 191.499h-74v66h66c-0.666992 6.66699 -1 16.334 -1 29.001s0.333008 22.334 1 29.001h-62v66h70
c16.667 80.667 53.834 144.334 111.501 191.001s131.834 70 222.501 70c82 0 149.833 -18 203.5 -54s89.167 -85.333 106.5 -148l-135 -7c-12 28.667 -33.167 51.334 -63.5 68.001s-65.833 25 -106.5 25c-49.333 0 -90.166 -13.167 -122.499 -39.5s-55.5 -61.5 -69.5 -105.5
h277v-66h-289c-0.666992 -6.66699 -1 -16.334 -1 -29.001s0.333008 -22.334 1 -29.001h286v-66h-273c14.667 -44.667 39.167 -80 73.5 -106s76.166 -39 125.499 -39c46 0 84.167 10.667 114.5 32s51.166 49 62.499 83z" />
    <glyph glyph-name="uni20B4" unicode="&#x20b4;" horiz-adv-x="664" 
d="M526 383c-17.333 -12 -41.3281 -24.6689 -71.9951 -38.002l-50 -20h236v-53h-362c-52 -26.667 -78 -57.667 -78 -93c0 -28 12.5 -48.5 37.5 -61.5s56.833 -19.5 95.5 -19.5c43.333 0 79.333 8 108 24s44 40.667 46 74l134 -5c-11.333 -135.333 -107 -203 -287 -203
c-84.667 0 -152 15.833 -202 47.5s-75 76.834 -75 135.501c0 37.333 11.667 71 35 101h-62v53h126c23.333 12.667 45.666 23.334 66.999 32.001l63 26h-256v53h377c34.667 20 52 45.333 52 76c0 24 -10.167 43 -30.5 57s-48.5 21 -84.5 21c-18 0 -35.333 -2 -52 -6
s-32.334 -12 -47.001 -24s-23.334 -27.667 -26.001 -47l-133 8c3.33301 34 13.666 63.333 30.999 88s39.166 43.167 65.499 55.5s53 21.333 80 27s55.167 8.5 84.5 8.5c74 0 135 -15 183 -45s72 -75 72 -135c0 -33.333 -7.66699 -61.333 -23 -84h61v-53h-114z" />
    <glyph glyph-name="uni20BD" unicode="&#x20bd;" horiz-adv-x="728" 
d="M439 269h-192v-56h247v-82h-247v-131h-143v131h-78v82h78v56h-78v104h78v315h332c75.333 0 136.5 -17.667 183.5 -53s70.5 -89 70.5 -161c0 -136.667 -83.667 -205 -251 -205zM247 571v-198h176c40 0 70.833 8.66699 92.5 26s32.5 42.333 32.5 75
c0 64.667 -41.667 97 -125 97h-176z" />
    <glyph glyph-name="uni2116" unicode="&#x2116;" horiz-adv-x="1371" 
d="M1097 334c-68.667 0 -123 17 -163 51s-60 80 -60 138s20 104 60 138s94.333 51 163 51c68 0 122 -17 162 -51s60 -80 60 -138s-20 -104 -60 -138s-94 -51 -162 -51zM630 86v614h141v-700h-249l-297 614v-614h-141v700h250zM1097 622c-32.667 0 -58 -9.16699 -76 -27.5
s-27 -42.166 -27 -71.499s9 -53.166 27 -71.499s43.333 -27.5 76 -27.5s58 9.16699 76 27.5s27 42.166 27 71.499s-9 53.166 -27 71.499s-43.333 27.5 -76 27.5zM891 186v93h411v-93h-411z" />
    <glyph glyph-name="trademark" unicode="&#x2122;" horiz-adv-x="884" 
d="M18 640v60h319v-60h-122v-309h-75v309h-122zM704 700h129v-369h-73v321l-95 -321h-103l-94 317v-317h-73v369h129l90 -326z" />
    <glyph glyph-name="oneeighth" unicode="&#x215b;" horiz-adv-x="881" 
d="M117 340v257l-87 -48v93l105 58h74v-360h-92zM584 700h101l-523 -700h-101zM749 186c66.667 -14.667 99.998 -46 99.998 -94c0 -33.333 -17.167 -59 -51.5 -77s-76.166 -27 -125.499 -27c-48.667 0 -90.167 9 -124.5 27s-51.5 43.667 -51.5 77c0 48 33.333 79.333 100 94
c-58.667 14 -88 41.667 -88 83c0 32 15.667 56.167 47 72.5s70.333 24.5 117 24.5s85.834 -8.33301 117.501 -25s47.5 -40.667 47.5 -72c0 -41.333 -29.333 -69 -88 -83zM671.998 297c-22.667 0 -40.834 -3.5 -54.501 -10.5s-20.5 -17.167 -20.5 -30.5
s6.83301 -23.666 20.5 -30.999s31.834 -11 54.501 -11s40.834 3.66699 54.501 11s20.5 17.666 20.5 30.999s-6.83301 23.5 -20.5 30.5s-31.834 10.5 -54.501 10.5zM671.998 57c26 0 47 4 63 12s24 19.667 24 35s-8 27.166 -24 35.499s-37 12.5 -63 12.5
c-26.667 0 -47.667 -4.16699 -63 -12.5s-23 -20.166 -23 -35.499c0 -31.333 28.667 -47 86 -47z" />
    <glyph glyph-name="threeeighths" unicode="&#x215c;" horiz-adv-x="986" 
d="M366 451c0 -42 -16.6689 -73 -50.002 -93s-75.666 -30 -126.999 -30c-104.667 0 -161.667 39 -171 117l91 6c4.66699 -34 31.334 -51 80.001 -51c26 0 46.667 4.5 62 13.5s23 21.5 23 37.5c0 14.667 -7 26.5 -21 35.5s-34.667 13.5 -62 13.5c-20 0 -43.333 -2 -70 -6v60
l114 74h-194v72h312v-65l-125 -74c92 -8 138 -44.667 138 -110zM687.998 700h102l-524 -700h-101zM852.998 186c66.667 -14.667 100 -46 100 -94c0 -33.333 -17 -59 -51 -77s-75.667 -27 -125 -27c-48.667 0 -90.167 9 -124.5 27s-51.5 43.667 -51.5 77
c0 48 33.333 79.333 100 94c-58.667 14 -88 41.667 -88 83c0 32 15.667 56.167 47 72.5s70.333 24.5 117 24.5s85.667 -8.16699 117 -24.5s47 -40.5 47 -72.5c0 -41.333 -29.333 -69 -88 -83zM776.998 297c-50 0 -75.001 -13.667 -75.001 -41
c0 -13.333 6.83301 -23.666 20.5 -30.999s31.834 -11 54.501 -11s40.834 3.66699 54.501 11s20.5 17.666 20.5 30.999s-6.83301 23.5 -20.5 30.5s-31.834 10.5 -54.501 10.5zM776.997 57c26 0 46.833 4 62.5 12s23.5 19.667 23.5 35s-7.83301 27.166 -23.5 35.499
s-36.5 12.5 -62.5 12.5c-26.667 0 -47.667 -4.16699 -63 -12.5s-23 -20.166 -23 -35.499c0 -31.333 28.667 -47 86 -47z" />
    <glyph glyph-name="fiveeighths" unicode="&#x215d;" horiz-adv-x="995" 
d="M370 458c0 -42 -16.001 -74.168 -48.001 -96.501s-73.667 -33.5 -125 -33.5c-46 0 -85 9.33301 -117 28s-51 45.667 -57 81l88 7c8.66699 -30 37.334 -45 86.001 -45c54 0 81 19.333 81 58s-27.333 58 -82 58c-36.667 0 -64 -9.33301 -82 -28l-79 6l18 207h291v-71h-224
l-9 -87c26.667 24 64.667 36 114 36c43.333 0 78.333 -10.167 105 -30.5s40 -50.166 40 -89.499zM697.999 699.999h101l-523 -700h-101zM862.999 185.999c66.667 -14.667 99.998 -46 99.998 -94c0 -33.333 -17.167 -59 -51.5 -77s-75.833 -27 -124.5 -27
c-49.333 0 -91.166 9 -125.499 27s-51.5 43.667 -51.5 77c0 48 33.333 79.333 100 94c-58.667 14 -88 41.667 -88 83c0 32 15.833 56.167 47.5 72.5s70.834 24.5 117.501 24.5s85.667 -8.16699 117 -24.5s47 -40.5 47 -72.5c0 -41.333 -29.333 -69 -88 -83zM786.997 296.999
c-50.667 0 -76 -13.667 -76 -41c0 -13.333 7 -23.666 21 -30.999s32.333 -11 55 -11s40.834 3.66699 54.501 11s20.5 17.666 20.5 30.999s-6.83301 23.5 -20.5 30.5s-31.834 10.5 -54.501 10.5zM786.997 56.999c26 0 46.833 4 62.5 12s23.5 19.667 23.5 35
s-7.83301 27.166 -23.5 35.499s-36.5 12.5 -62.5 12.5c-26.667 0 -47.834 -4.16699 -63.501 -12.5s-23.5 -20.166 -23.5 -35.499s7.83301 -27 23.5 -35s36.834 -12 63.501 -12z" />
    <glyph glyph-name="seveneighths" unicode="&#x215e;" horiz-adv-x="938" 
d="M182 340h-97.001c22.667 98 75.334 193.333 158.001 286h-224v74h322v-62c-84 -98 -137 -197.333 -159 -298zM640.999 700h101l-524 -700h-101zM805.999 186c66 -15.333 99 -46.667 99 -94c0 -33.333 -17 -59 -51 -77s-75.667 -27 -125 -27
c-48.667 0 -90.167 9 -124.5 27s-51.5 43.667 -51.5 77c0 48 33.333 79.333 100 94c-58.667 14 -88 41.667 -88 83c0 32 15.667 56.167 47 72.5s70.333 24.5 117 24.5s85.667 -8.16699 117 -24.5s47 -40.5 47 -72.5c0 -41.333 -29 -69 -87 -83zM728.999 296.999
c-22.667 0 -40.834 -3.5 -54.501 -10.5s-20.5 -17.167 -20.5 -30.5s6.83301 -23.666 20.5 -30.999s31.834 -11 54.501 -11s40.834 3.66699 54.501 11s20.5 17.666 20.5 30.999s-6.83301 23.5 -20.5 30.5s-31.834 10.5 -54.501 10.5zM728.999 56.999c26 0 47 4 63 12
s24 19.667 24 35s-8 27.166 -24 35.499s-37 12.5 -63 12.5c-26.667 0 -47.667 -4.16699 -63 -12.5s-23 -20.166 -23 -35.499c0 -31.333 28.667 -47 86 -47z" />
    <glyph glyph-name="arrowleft" unicode="&#x2190;" horiz-adv-x="798" 
d="M741 409v-106h-481l230 -224h-156l-277 277l277 277h156l-230 -224h481z" />
    <glyph glyph-name="arrowup" unicode="&#x2191;" horiz-adv-x="669" 
d="M612 484v-161l-222 229v-561h-111v560l-222 -228l1 161l277 276z" />
    <glyph glyph-name="arrowright" unicode="&#x2192;" horiz-adv-x="798" 
d="M465 633l276 -277l-276 -277h-157l231 224h-482v106h482l-231 224h157z" />
    <glyph glyph-name="arrowdown" unicode="&#x2193;" horiz-adv-x="669" 
d="M390 148l222 229v-161l-277 -276l-277 276l-1 161l222 -228v560h111v-561z" />
    <glyph glyph-name="arrowboth" unicode="&#x2194;" horiz-adv-x="1089" 
d="M788 600l244 -244l-244 -244h-155l196 191h-569l197 -191h-156l-244 244l244 244h156l-197 -191h569l-196 191h155z" />
    <glyph glyph-name="arrowupdn" unicode="&#x2195;" horiz-adv-x="599" 
d="M542 420l-188 196v-534l188 195v-160l-244 -244l-241 241v160l185 -192v533l-185 -191v160l241 240l244 -244v-160z" />
    <glyph glyph-name="uni2196" unicode="&#x2196;" horiz-adv-x="663" 
d="M606 148l-76 -76l-360 360l4 -323l-117 111v392h392l111 -108l-315 4z" />
    <glyph glyph-name="uni2197" unicode="&#x2197;" horiz-adv-x="663" 
d="M214 612h392v-392l-117 -111l4 323l-360 -360l-76 76l361 360l-315 -4z" />
    <glyph glyph-name="uni2198" unicode="&#x2198;" horiz-adv-x="663" 
d="M489 591l117 -111v-392h-392l-111 108l315 -4l-361 361l76 75l360 -360z" />
    <glyph glyph-name="uni2199" unicode="&#x2199;" horiz-adv-x="663" 
d="M606 553l-361 -361l315 4l-111 -108h-392v392l117 111l-4 -323l360 360z" />
    <glyph glyph-name="partialdiff" unicode="&#x2202;" horiz-adv-x="624" 
d="M279 756c197.333 0 295.998 -131.667 295.998 -395c0 -129.333 -25.167 -223.833 -75.5 -283.5s-118.5 -89.5 -204.5 -89.5c-79.333 0 -142 22 -188 66s-69 104.667 -69 182c0 73.333 22.667 133 68 179s103.333 69 174 69c61.333 0 112.333 -18.333 153 -55
c-12.667 147.333 -67 221 -163 221c-51.333 0 -98.666 -21 -141.999 -63l-70 88c58.667 54 132.334 81 221.001 81zM289.998 98c86 0 134 65.6689 144 197.002c-24.667 52.667 -66.334 79 -125.001 79c-41.333 0 -73.666 -12.833 -96.999 -38.5s-35 -58.834 -35 -99.501
c0 -44.667 10.333 -78.834 31 -102.501s48 -35.5 82 -35.5z" />
    <glyph glyph-name="emptyset" unicode="&#x2205;" horiz-adv-x="620" 
d="M586 524l-72 -68.001c32.667 -41.333 49 -92 49 -152c0 -73.333 -23.5 -131.5 -70.5 -174.5s-107.833 -64.5 -182.5 -64.5c-64 0 -117.667 15.667 -161 47l-73 -70l-42 42l72 68c-33.333 40.667 -50 91.334 -50 152.001c0 74 23.5 132.333 70.5 175s108.167 64 183.5 64
c62.667 0 116 -15.333 160 -46l73 70zM174 303.999c0 -26.667 5.66699 -50.333 17 -71l194 184c-21.333 11.333 -46.333 17 -75 17c-42.667 0 -76 -11.667 -100 -35s-36 -55 -36 -95zM446 304c0 28 -5.99902 51.668 -17.999 71.001l-194 -183
c21.333 -11.333 46.666 -17 75.999 -17c42 0 75.167 11.667 99.5 35s36.5 54.666 36.5 93.999z" />
    <glyph glyph-name="product" unicode="&#x220f;" horiz-adv-x="744" 
d="M660 700v-800h-137v688h-302v-688h-137v800h576z" />
    <glyph glyph-name="summation" unicode="&#x2211;" horiz-adv-x="597" 
d="M208 12h364v-112h-536v99l261 315l-247 286v100h511v-112h-337l231 -274z" />
    <glyph glyph-name="minus" unicode="&#x2212;" horiz-adv-x="533" 
d="M55 380h422v-100h-422v100z" />
    <glyph glyph-name="radical" unicode="&#x221a;" horiz-adv-x="644" 
d="M500 712h115l-238 -818h-155l-120 395h-79v101h167l110 -399z" />
    <glyph glyph-name="infinity" unicode="&#x221e;" horiz-adv-x="668" 
d="M486 480c48 0 86.166 -13.333 114.499 -40s42.5 -65.334 42.5 -116.001c0 -51.333 -14.167 -90.5 -42.5 -117.5s-66.5 -40.5 -114.5 -40.5c-30 0 -57 6.33301 -81 19s-47.667 35 -71 67c-23.333 -32 -47 -54.333 -71 -67s-51.333 -19 -82 -19
c-47.333 0 -85.166 13.5 -113.499 40.5s-42.5 66.167 -42.5 117.5c0 50.667 14.167 89.334 42.5 116.001s66.166 40 113.499 40c61.333 0 112.333 -28.333 153 -85c23.333 31.333 46.833 53.333 70.5 66s50.834 19 81.501 19zM189.999 247c36 0 70 25.332 102 75.999
c-31.333 50.667 -65.333 76 -102 76c-20.667 0 -37.667 -6.16699 -51 -18.5s-20 -31.166 -20 -56.499s6.83301 -44.5 20.5 -57.5s30.5 -19.5 50.5 -19.5zM477.999 246.999c20 0 36.833 6.50098 50.5 19.501s20.5 32.167 20.5 57.5s-6.66699 44.166 -20 56.499
s-30.333 18.5 -51 18.5c-36.667 0 -71 -25.333 -103 -76c32.667 -50.667 67 -76 103 -76z" />
    <glyph glyph-name="integral" unicode="&#x222b;" horiz-adv-x="439" 
d="M306 736c22 0 43.667 -2 65 -6v-93c-14 2 -27 3 -39 3c-19.333 0 -33.333 -5 -42 -15s-13 -27.667 -13 -53v-529c0 -99.333 -49.667 -149 -149 -149c-26 0 -48 1.66699 -66 5v94c18 -2 31.333 -3 40 -3c18.667 0 32.5 5 41.5 15s13.5 27.667 13.5 53v528
c0 100 49.667 150 149 150z" />
    <glyph glyph-name="approxequal" unicode="&#x2248;" horiz-adv-x="579" 
d="M196 406c-16.667 0 -29.501 -6 -38.501 -18s-13.5 -28 -13.5 -48h-77c0 42.667 9.33301 78 28 106s49.334 42 92.001 42c22 0 43.167 -4.33301 63.5 -13s36.833 -18 49.5 -28s26.5 -19.333 41.5 -28s28.833 -13 41.5 -13c16.667 0 29.5 6.16699 38.5 18.5
s13.5 28.5 13.5 48.5h76c0 -42.667 -9.16699 -78 -27.5 -106s-48.833 -42 -91.5 -42c-28 0 -54.167 6.83301 -78.5 20.5s-46 27.167 -65 40.5s-36.5 20 -52.5 20zM382.999 229c16.667 0 29.499 6.16504 38.499 18.498s13.5 28.5 13.5 48.5h76
c0 -43.333 -9.16699 -79 -27.5 -107s-48.833 -42 -91.5 -42c-28 0 -54.167 6.83301 -78.5 20.5s-46 27.167 -65 40.5s-36.5 20 -52.5 20c-16.667 0 -29.5 -6 -38.5 -18s-13.5 -28 -13.5 -48h-77c0 42 9.33301 77.167 28 105.5s49.334 42.5 92.001 42.5
c22 0 43.167 -4.16699 63.5 -12.5s36.833 -17.666 49.5 -27.999s26.5 -19.666 41.5 -27.999s28.833 -12.5 41.5 -12.5z" />
    <glyph glyph-name="notequal" unicode="&#x2260;" horiz-adv-x="547" 
d="M484 364h-152l-38 -83h190v-94h-232l-38 -85h-83l39 85h-108v94h150l37 83h-187v94h230l39 86h82l-39 -86h110v-94z" />
    <glyph glyph-name="lessequal" unicode="&#x2264;" horiz-adv-x="525" 
d="M455 580v-114l-284 -90l284 -69v-115l-398 121v119zM57 57v94h398v-94h-398z" />
    <glyph glyph-name="greaterequal" unicode="&#x2265;" horiz-adv-x="524" 
d="M70 580l398 -148v-119l-398 -121v115l283 69l-283 90v114zM70 57v94h398v-94h-398z" />
    <glyph glyph-name="uni2460" unicode="&#x2460;" 
d="M404 -12c-105.333 0 -191.666 33.167 -258.999 99.5s-101 153.833 -101 262.5s33.667 196.167 101 262.5s153.666 99.5 258.999 99.5s191.666 -33.167 258.999 -99.5s101 -153.833 101 -262.5s-33.667 -196.167 -101 -262.5s-153.666 -99.5 -258.999 -99.5zM404 42
c89.333 0 162 28.167 218 84.5s84 130.833 84 223.5s-28 167.167 -84 223.5s-128.667 84.5 -218 84.5s-162.166 -28.167 -218.499 -84.5s-84.5 -130.833 -84.5 -223.5s28.167 -167.167 84.5 -223.5s129.166 -84.5 218.499 -84.5zM302 398v80l86 50h67v-356h-82v267z" />
    <glyph glyph-name="uni2461" unicode="&#x2461;" 
d="M404 -12c-105.333 0 -191.666 33.167 -258.999 99.5s-101 153.833 -101 262.5s33.667 196.167 101 262.5s153.666 99.5 258.999 99.5s191.666 -33.167 258.999 -99.5s101 -153.833 101 -262.5s-33.667 -196.167 -101 -262.5s-153.666 -99.5 -258.999 -99.5zM404 42
c89.333 0 162 28.167 218 84.5s84 130.833 84 223.5s-28 167.167 -84 223.5s-128.667 84.5 -218 84.5s-162.166 -28.167 -218.499 -84.5s-84.5 -130.833 -84.5 -223.5s28.167 -167.167 84.5 -223.5s129.166 -84.5 218.499 -84.5zM267 173l0.000976562 61.9971l113 95
c18 14.667 31.167 26 39.5 34s16.333 17.833 24 29.5s11.5 22.834 11.5 33.501c0 12 -4 21.833 -12 29.5s-18.333 11.5 -31 11.5c-32.667 0 -51 -23 -55 -69l-80 7c3.33301 43.333 17.166 75.666 41.499 96.999s55.5 32 93.5 32c35.333 0 65 -9.16699 89 -27.5
s36 -45.166 36 -80.499c0 -21.333 -5.66699 -41.166 -17 -59.499s-31.333 -39.166 -60 -62.499l-76 -65h164v-67h-281z" />
    <glyph glyph-name="uni2462" unicode="&#x2462;" 
d="M404 -12c-105.333 0 -191.666 33.167 -258.999 99.5s-101 153.833 -101 262.5s33.667 196.167 101 262.5s153.666 99.5 258.999 99.5s191.666 -33.167 258.999 -99.5s101 -153.833 101 -262.5s-33.667 -196.167 -101 -262.5s-153.666 -99.5 -258.999 -99.5zM404 42
c89.333 0 162 28.167 218 84.5s84 130.833 84 223.5s-28 167.167 -84 223.5s-128.667 84.5 -218 84.5s-162.166 -28.167 -218.499 -84.5s-84.5 -130.833 -84.5 -223.5s28.167 -167.167 84.5 -223.5s129.166 -84.5 218.499 -84.5zM258 279l80 5c6 -34 27.333 -51 64 -51
c20.667 0 36.834 4.5 48.501 13.5s17.5 21.833 17.5 38.5c0 34 -21.333 51 -64 51c-16 0 -35.333 -2 -58 -6v56l87 75h-156v67h262v-60l-98 -77c72.667 -6.66699 109 -42 109 -106c0 -40 -14 -69.833 -42 -89.5s-63.333 -29.5 -106 -29.5
c-40.667 0 -73.834 9.5 -99.501 28.5s-40.5 47.167 -44.5 84.5z" />
    <glyph glyph-name="uni2463" unicode="&#x2463;" 
d="M404 -12c-105.333 0 -191.666 33.167 -258.999 99.5s-101 153.833 -101 262.5s33.667 196.167 101 262.5s153.666 99.5 258.999 99.5s191.666 -33.167 258.999 -99.5s101 -153.833 101 -262.5s-33.667 -196.167 -101 -262.5s-153.666 -99.5 -258.999 -99.5zM404 42
c89.333 0 162 28.167 218 84.5s84 130.833 84 223.5s-28 167.167 -84 223.5s-128.667 84.5 -218 84.5s-162.166 -28.167 -218.499 -84.5s-84.5 -130.833 -84.5 -223.5s28.167 -167.167 84.5 -223.5s129.166 -84.5 218.499 -84.5zM233 247v62l139 219h135v-214h59v-67h-59
v-75h-83v75h-191zM313 314h111v172z" />
    <glyph glyph-name="uni2464" unicode="&#x2464;" 
d="M404 -12c-105.333 0 -191.666 33.167 -258.999 99.5s-101 153.833 -101 262.5s33.667 196.167 101 262.5s153.666 99.5 258.999 99.5s191.666 -33.167 258.999 -99.5s101 -153.833 101 -262.5s-33.667 -196.167 -101 -262.5s-153.666 -99.5 -258.999 -99.5zM404 42
c89.333 0 162 28.167 218 84.5s84 130.833 84 223.5s-28 167.167 -84 223.5s-128.667 84.5 -218 84.5s-162.166 -28.167 -218.499 -84.5s-84.5 -130.833 -84.5 -223.5s28.167 -167.167 84.5 -223.5s129.166 -84.5 218.499 -84.5zM258 272l79.9971 5.00098
c3.33301 -14.667 11.333 -25.667 24 -33s27 -11 43 -11c20 0 35.833 5.33301 47.5 16s17.5 25 17.5 43c0 18.667 -6.16699 33.167 -18.5 43.5s-28.166 15.5 -47.499 15.5c-28.667 0 -50 -9.66699 -64 -29l-73 6l16 200h248v-67h-187l-6 -84
c22.667 20.667 53.334 31 92.001 31c36.667 0 66.334 -9.83301 89.001 -29.5s34 -48.5 34 -86.5c0 -40.667 -13.667 -71.834 -41 -93.501s-63 -32.5 -107 -32.5c-38.667 0 -71.5 9 -98.5 27s-43.167 44.333 -48.5 79z" />
    <glyph glyph-name="uni2465" unicode="&#x2465;" 
d="M404 -12c-105.333 0 -191.666 33.167 -258.999 99.5s-101 153.833 -101 262.5s33.667 196.167 101 262.5s153.666 99.5 258.999 99.5s191.666 -33.167 258.999 -99.5s101 -153.833 101 -262.5s-33.667 -196.167 -101 -262.5s-153.666 -99.5 -258.999 -99.5zM404 42
c89.333 0 162 28.167 218 84.5s84 130.833 84 223.5s-28 167.167 -84 223.5s-128.667 84.5 -218 84.5s-162.166 -28.167 -218.499 -84.5s-84.5 -130.833 -84.5 -223.5s28.167 -167.167 84.5 -223.5s129.166 -84.5 218.499 -84.5zM251 347
c0 62.667 14.3311 109.667 42.998 141s67.334 47 116.001 47c38 0 68.833 -8.83301 92.5 -26.5s37.167 -43.167 40.5 -76.5l-79 -5c-4.66699 27.333 -22.667 41 -54 41c-47.333 0 -72.666 -35.667 -75.999 -107c21.333 26 53.333 39 96 39c38 0 68.5 -9.5 91.5 -28.5
s34.5 -46.833 34.5 -83.5c0 -38 -13.333 -67.833 -40 -89.5s-62.667 -32.5 -108 -32.5c-49.333 0 -87.833 15 -115.5 45s-41.5 75.333 -41.5 136zM342.998 288c0 -16.667 5.83398 -30.167 17.501 -40.5s27.5 -15.5 47.5 -15.5c19.333 0 35.166 5.16699 47.499 15.5
s18.5 23.833 18.5 40.5s-6 30 -18 40s-28 15 -48 15s-35.833 -5 -47.5 -15s-17.5 -23.333 -17.5 -40z" />
    <glyph glyph-name="uni2466" unicode="&#x2466;" 
d="M404 -12c-105.333 0 -191.666 33.167 -258.999 99.5s-101 153.833 -101 262.5s33.667 196.167 101 262.5s153.666 99.5 258.999 99.5s191.666 -33.167 258.999 -99.5s101 -153.833 101 -262.5s-33.667 -196.167 -101 -262.5s-153.666 -99.5 -258.999 -99.5zM404 42
c89.333 0 162 28.167 218 84.5s84 130.833 84 223.5s-28 167.167 -84 223.5s-128.667 84.5 -218 84.5s-162.166 -28.167 -218.499 -84.5s-84.5 -130.833 -84.5 -223.5s28.167 -167.167 84.5 -223.5s129.166 -84.5 218.499 -84.5zM268 461l0.000976562 67h278v-56
c-70.667 -100 -115.334 -200 -134.001 -300h-88c19.333 96.667 66 193 140 289h-196z" />
    <glyph glyph-name="uni2467" unicode="&#x2467;" 
d="M404 -12c-105.333 0 -191.666 33.167 -258.999 99.5s-101 153.833 -101 262.5s33.667 196.167 101 262.5s153.666 99.5 258.999 99.5s191.666 -33.167 258.999 -99.5s101 -153.833 101 -262.5s-33.667 -196.167 -101 -262.5s-153.666 -99.5 -258.999 -99.5zM405 42
c89.333 0 162 28.167 218 84.5s84 130.833 84 223.5s-28 167.167 -84 223.5s-128.667 84.5 -218 84.5s-162 -28.167 -218 -84.5s-84 -130.833 -84 -223.5s28 -167.167 84 -223.5s128.667 -84.5 218 -84.5zM250 267c0 46.667 28.999 77.335 86.999 92.002
c-51.333 13.333 -77 40.666 -77 81.999c0 30.667 13.833 54 41.5 70s61.834 24 102.501 24c40 0 73.833 -8 101.5 -24s41.5 -39.333 41.5 -70c0 -42 -25.667 -69.333 -77 -82c58.667 -14.667 88 -45.334 88 -92.001c0 -32.667 -15 -57.667 -45 -75s-66.333 -26 -109 -26
s-79 8.66699 -109 26s-45 42.333 -45 75zM339.999 429.001c0 -12.667 5.66699 -22.667 17 -30s27 -11 47 -11s35.5 3.66699 46.5 11s16.5 17.333 16.5 30c0 27.333 -21 41 -63 41c-42.667 0 -64 -13.667 -64 -41zM329.999 278.001c0 -15.333 7 -27.166 21 -35.499
s31.667 -12.5 53 -12.5s39 4.16699 53 12.5s21 20.166 21 35.499c0 14.667 -7 26 -21 34s-31.667 12 -53 12s-39 -4 -53 -12s-21 -19.333 -21 -34z" />
    <glyph glyph-name="uni2468" unicode="&#x2468;" 
d="M404 -12c-105.333 0 -191.666 33.167 -258.999 99.5s-101 153.833 -101 262.5s33.667 196.167 101 262.5s153.666 99.5 258.999 99.5s191.666 -33.167 258.999 -99.5s101 -153.833 101 -262.5s-33.667 -196.167 -101 -262.5s-153.666 -99.5 -258.999 -99.5zM406 42
c89.333 0 162 28.167 218 84.5s84 130.833 84 223.5s-28 167.167 -84 223.5s-128.667 84.5 -218 84.5s-162.166 -28.167 -218.499 -84.5s-84.5 -130.833 -84.5 -223.5s28.167 -167.167 84.5 -223.5s129.166 -84.5 218.499 -84.5zM251 414
c0 37.333 13.332 66.834 39.999 88.501s62.334 32.5 107.001 32.5c50.667 0 89.834 -15 117.501 -45s41.5 -75.333 41.5 -136c0 -62.667 -14.333 -109.667 -43 -141s-67 -47 -115 -47c-38 0 -68.833 8.66699 -92.5 26s-37.834 42.666 -42.501 75.999l80 5
c2 -12 7.83301 -21.833 17.5 -29.5s22.167 -11.5 37.5 -11.5c48 0 73 37.333 75 112c-20 -27.333 -52 -41 -96 -41c-38 0 -68.667 9.5 -92 28.5s-35 46.5 -35 82.5zM333.999 414.001c0 -16.667 6 -29.834 18 -39.501s28 -14.5 48 -14.5c19.333 0 35 4.83301 47 14.5
s18 22.834 18 39.501c0 16 -6 29 -18 39s-27.667 15 -47 15c-20 0 -36 -5 -48 -15s-18 -23 -18 -39z" />
    <glyph glyph-name="uni24EA" unicode="&#x24ea;" 
d="M404 -12c-105.333 0 -191.666 33.167 -258.999 99.5s-101 153.833 -101 262.5s33.667 196.167 101 262.5s153.666 99.5 258.999 99.5s191.666 -33.167 258.999 -99.5s101 -153.833 101 -262.5s-33.667 -196.167 -101 -262.5s-153.666 -99.5 -258.999 -99.5zM404 42
c89.333 0 162 28.167 218 84.5s84 130.833 84 223.5s-28 167.167 -84 223.5s-128.667 84.5 -218 84.5s-162.166 -28.167 -218.499 -84.5s-84.5 -130.833 -84.5 -223.5s28.167 -167.167 84.5 -223.5s129.166 -84.5 218.499 -84.5zM248 350c0 58 13.5 103.333 40.5 136
s65.5 49 115.5 49c49.333 0 87.666 -16.5 114.999 -49.5s41 -78.167 41 -135.5s-13.667 -102.333 -41 -135s-65.666 -49 -114.999 -49c-50 0 -88.5 16.333 -115.5 49s-40.5 77.667 -40.5 135zM330 350c0 -38.667 6.66699 -67.834 20 -87.501s31.333 -29.5 54 -29.5
s40.5 9.83301 53.5 29.5s19.5 48.834 19.5 87.501s-6.66699 68 -20 88s-31 30 -53 30c-22.667 0 -40.667 -10 -54 -30s-20 -49.333 -20 -88z" />
    <glyph glyph-name="uni24FF" unicode="&#x24ff;" 
d="M404 -12c-105.333 0 -191.666 33.167 -258.999 99.5s-101 153.833 -101 262.5s33.667 196.167 101 262.5s153.666 99.5 258.999 99.5s191.666 -33.167 258.999 -99.5s101 -153.833 101 -262.5s-33.667 -196.167 -101 -262.5s-153.666 -99.5 -258.999 -99.5zM248 350
c0 -57.333 13.5 -102.333 40.5 -135s65.5 -49 115.5 -49c49.333 0 87.666 16.333 114.999 49s41 77.667 41 135s-13.667 102.5 -41 135.5s-65.666 49.5 -114.999 49.5c-50 0 -88.5 -16.333 -115.5 -49s-40.5 -78 -40.5 -136zM330 350c0 38.667 6.66699 68 20 88
s31.333 30 54 30c22 0 39.667 -10 53 -30s20 -49.333 20 -88s-6.5 -67.834 -19.5 -87.501s-30.833 -29.5 -53.5 -29.5s-40.667 9.83301 -54 29.5s-20 48.834 -20 87.501z" />
    <glyph glyph-name="lozenge" unicode="&#x25ca;" horiz-adv-x="551" 
d="M345 700l172 -350l-172 -350h-139l-172 350l172 350h139zM276 75l128 275l-128 275l-130 -275z" />
    <glyph glyph-name="uni2776" unicode="&#x2776;" 
d="M404 -12c-105.333 0 -191.666 33.167 -258.999 99.5s-101 153.833 -101 262.5s33.667 196.167 101 262.5s153.666 99.5 258.999 99.5s191.666 -33.167 258.999 -99.5s101 -153.833 101 -262.5s-33.667 -196.167 -101 -262.5s-153.666 -99.5 -258.999 -99.5zM302 398
l71 41v-267h82v356h-67l-86 -50v-80z" />
    <glyph glyph-name="uni2777" unicode="&#x2777;" 
d="M404 -12c-105.333 0 -191.666 33.167 -258.999 99.5s-101 153.833 -101 262.5s33.667 196.167 101 262.5s153.666 99.5 258.999 99.5s191.666 -33.167 258.999 -99.5s101 -153.833 101 -262.5s-33.667 -196.167 -101 -262.5s-153.666 -99.5 -258.999 -99.5zM267 173
l280.999 0.00292969v67h-164l76 65c28.667 23.333 48.667 44.166 60 62.499s17 38.166 17 59.499c0 35.333 -12 62.166 -36 80.499s-53.667 27.5 -89 27.5c-38 0 -69.167 -10.667 -93.5 -32s-38.166 -53.666 -41.499 -96.999l80 -7c4 46 22.333 69 55 69
c12.667 0 23 -3.83301 31 -11.5s12 -17.5 12 -29.5c0 -10.667 -3.83301 -21.834 -11.5 -33.501s-15.667 -21.5 -24 -29.5s-21.5 -19.333 -39.5 -34l-113 -95v-62z" />
    <glyph glyph-name="uni2778" unicode="&#x2778;" 
d="M404 -12c-105.333 0 -191.666 33.167 -258.999 99.5s-101 153.833 -101 262.5s33.667 196.167 101 262.5s153.666 99.5 258.999 99.5s191.666 -33.167 258.999 -99.5s101 -153.833 101 -262.5s-33.667 -196.167 -101 -262.5s-153.666 -99.5 -258.999 -99.5zM258 279
c4 -37.333 18.833 -65.5 44.5 -84.5s58.834 -28.5 99.501 -28.5c42.667 0 78 9.83301 106 29.5s42 49.5 42 89.5c0 64 -36.333 99.333 -109 106l98 77v60h-262v-67h156l-87 -75v-56c22.667 4 42 6 58 6c42.667 0 64 -17 64 -51c0 -16.667 -5.83301 -29.5 -17.5 -38.5
s-27.834 -13.5 -48.501 -13.5c-36.667 0 -58 17 -64 51z" />
    <glyph glyph-name="uni2779" unicode="&#x2779;" 
d="M404 -12c-105.333 0 -191.666 33.167 -258.999 99.5s-101 153.833 -101 262.5s33.667 196.167 101 262.5s153.666 99.5 258.999 99.5s191.666 -33.167 258.999 -99.5s101 -153.833 101 -262.5s-33.667 -196.167 -101 -262.5s-153.666 -99.5 -258.999 -99.5zM233 247h191
v-75h83v75h59v67h-59v214h-135l-139 -219v-62zM313 314l111 172v-172h-111z" />
    <glyph glyph-name="uni277A" unicode="&#x277a;" 
d="M404 -12c-105.333 0 -191.666 33.167 -258.999 99.5s-101 153.833 -101 262.5s33.667 196.167 101 262.5s153.666 99.5 258.999 99.5s191.666 -33.167 258.999 -99.5s101 -153.833 101 -262.5s-33.667 -196.167 -101 -262.5s-153.666 -99.5 -258.999 -99.5zM258 272
c5.33301 -34.667 21.5029 -61.001 48.5029 -79.001s59.833 -27 98.5 -27c44 0 79.667 10.833 107 32.5s41 52.834 41 93.501c0 38 -11.333 66.833 -34 86.5s-52.334 29.5 -89.001 29.5c-38.667 0 -69.334 -10.333 -92.001 -31l6 84h187v67h-248l-16 -200l73 -6
c14 19.333 35.333 29 64 29c19.333 0 35.166 -5.16699 47.499 -15.5s18.5 -24.833 18.5 -43.5c0 -18 -5.83301 -32.333 -17.5 -43s-27.5 -16 -47.5 -16c-16 0 -30.333 3.66699 -43 11s-20.667 18.333 -24 33z" />
    <glyph glyph-name="uni277B" unicode="&#x277b;" 
d="M404 -12c-105.333 0 -191.666 33.167 -258.999 99.5s-101 153.833 -101 262.5s33.667 196.167 101 262.5s153.666 99.5 258.999 99.5s191.666 -33.167 258.999 -99.5s101 -153.833 101 -262.5s-33.667 -196.167 -101 -262.5s-153.666 -99.5 -258.999 -99.5zM251 347
c0 -60.667 13.835 -106 41.502 -136s66.167 -45 115.5 -45c45.333 0 81.333 10.833 108 32.5s40 51.5 40 89.5c0 36.667 -11.5 64.5 -34.5 83.5s-53.5 28.5 -91.5 28.5c-42.667 0 -74.667 -13 -96 -39c3.33301 71.333 28.666 107 75.999 107c31.333 0 49.333 -13.667 54 -41
l79 5c-3.33301 33.333 -16.833 58.833 -40.5 76.5s-54.5 26.5 -92.5 26.5c-48.667 0 -87.334 -15.667 -116.001 -47s-43 -78.333 -43 -141zM343.002 288c0 16.667 5.83203 30 17.499 40s27.5 15 47.5 15s36 -5 48 -15s18 -23.333 18 -40s-6.16699 -30.167 -18.5 -40.5
s-28.166 -15.5 -47.499 -15.5c-20 0 -35.833 5.16699 -47.5 15.5s-17.5 23.833 -17.5 40.5z" />
    <glyph glyph-name="uni277C" unicode="&#x277c;" 
d="M404 -12c-105.333 0 -191.666 33.167 -258.999 99.5s-101 153.833 -101 262.5s33.667 196.167 101 262.5s153.666 99.5 258.999 99.5s191.666 -33.167 258.999 -99.5s101 -153.833 101 -262.5s-33.667 -196.167 -101 -262.5s-153.666 -99.5 -258.999 -99.5zM268 461
h195.999c-74 -96 -120.667 -192.333 -140 -289h88c18.667 100 63.334 200 134.001 300v56h-278v-67z" />
    <glyph glyph-name="uni277D" unicode="&#x277d;" 
d="M404 -12c-105.333 0 -191.666 33.167 -258.999 99.5s-101 153.833 -101 262.5s33.667 196.167 101 262.5s153.666 99.5 258.999 99.5s191.666 -33.167 258.999 -99.5s101 -153.833 101 -262.5s-33.667 -196.167 -101 -262.5s-153.666 -99.5 -258.999 -99.5zM250 267
c0 -32.667 15.001 -57.668 45.001 -75.001s66.333 -26 109 -26s79 8.66699 109 26s45 42.333 45 75c0 46.667 -29.333 77.334 -88 92.001c51.333 12.667 77 40 77 82c0 30.667 -13.833 54 -41.5 70s-61.5 24 -101.5 24c-40.667 0 -74.834 -8 -102.501 -24
s-41.5 -39.333 -41.5 -70c0 -41.333 25.667 -68.666 77 -81.999c-58 -14.667 -87 -45.334 -87 -92.001zM340.001 428.999c0 27.333 21.333 41 64 41c42 0 63 -13.667 63 -41c0 -12.667 -5.5 -22.667 -16.5 -30s-26.5 -11 -46.5 -11s-35.667 3.66699 -47 11
s-17 17.333 -17 30zM330.001 277.999c0 14.667 7 26 21 34s31.667 12 53 12s39 -4 53 -12s21 -19.333 21 -34c0 -15.333 -7 -27.166 -21 -35.499s-31.667 -12.5 -53 -12.5s-39 4.16699 -53 12.5s-21 20.166 -21 35.499z" />
    <glyph glyph-name="uni277E" unicode="&#x277e;" 
d="M404 -12c-105.333 0 -191.666 33.167 -258.999 99.5s-101 153.833 -101 262.5s33.667 196.167 101 262.5s153.666 99.5 258.999 99.5s191.666 -33.167 258.999 -99.5s101 -153.833 101 -262.5s-33.667 -196.167 -101 -262.5s-153.666 -99.5 -258.999 -99.5zM251 414
c0 -36 11.668 -63.501 35.001 -82.501s54 -28.5 92 -28.5c44 0 76 13.667 96 41c-2 -74.667 -27 -112 -75 -112c-15.333 0 -27.833 3.83301 -37.5 11.5s-15.5 17.5 -17.5 29.5l-80 -5c4.66699 -33.333 18.834 -58.666 42.501 -75.999s54.5 -26 92.5 -26
c48 0 86.333 15.667 115 47s43 78.333 43 141c0 60.667 -13.833 106 -41.5 136s-66.834 45 -117.501 45c-44.667 0 -80.334 -10.833 -107.001 -32.5s-40 -51.167 -40 -88.5zM334.001 413.999c0 16 6 29 18 39s28 15 48 15c19.333 0 35 -5 47 -15s18 -23 18 -39
c0 -16.667 -6 -29.834 -18 -39.501s-27.667 -14.5 -47 -14.5c-20 0 -36 4.83301 -48 14.5s-18 22.834 -18 39.501z" />
    <glyph glyph-name=".null" horiz-adv-x="0" 
 />
    <glyph glyph-name="nonmarkingreturn" horiz-adv-x="333" 
 />
    <glyph glyph-name="i.loclTRK" horiz-adv-x="269" 
d="M60 596v132h149v-132h-149zM64 0v524h141v-524h-141z" />
    <glyph glyph-name="zero.osf" horiz-adv-x="721" 
d="M44 283c0 90.667 28 162.167 84 214.5s133.667 78.5 233 78.5s176.833 -26 232.5 -78s83.5 -123.667 83.5 -215s-27.833 -163 -83.5 -215s-133.167 -78 -232.5 -78s-177 26.167 -233 78.5s-84 123.833 -84 214.5zM184 283c0 -57.333 15.833 -101.666 47.5 -132.999
s74.834 -47 129.501 -47s97.667 15.667 129 47s47 75.666 47 132.999s-15.667 101.666 -47 132.999s-74.333 47 -129 47s-97.834 -15.667 -129.501 -47s-47.5 -75.666 -47.5 -132.999z" />
    <glyph glyph-name="one.osf" horiz-adv-x="581" 
d="M387 113h172v-113h-514v113h202v308l-173 -79v134l200 90h113v-453z" />
    <glyph glyph-name="two.osf" horiz-adv-x="631" 
d="M242 113l365.005 -0.000976562v-113h-588v103l298 169c22.667 13.333 39.167 23.333 49.5 30s23.166 16 38.499 28s26.166 23.333 32.499 34s9.5 21.667 9.5 33c0 20.667 -11 36.834 -33 48.501s-52.333 17.5 -91 17.5c-90 0 -139.667 -34.667 -149 -104l-135 11
c7.33301 68.667 36.666 120.167 87.999 154.5s116.666 51.5 195.999 51.5c77.333 0 140.666 -14.667 189.999 -44s74 -72 74 -128c0 -34.667 -12.333 -66.667 -37 -96s-67 -60.333 -127 -93z" />
    <glyph glyph-name="three.osf" horiz-adv-x="664" 
d="M377 300c77.333 -4 138.834 -22.499 184.501 -55.499s68.5 -82.5 68.5 -148.5c0 -51.333 -14.333 -94.5 -43 -129.5s-65.5 -60 -110.5 -75s-96.5 -22.5 -154.5 -22.5c-86 0 -155.667 17.833 -209 53.5s-84 89.167 -92 160.5l138 10
c11.333 -73.333 65.666 -110 162.999 -110c52 0 92.667 9.83301 122 29.5s44 47.5 44 83.5c0 33.333 -13.5 59.666 -40.5 78.999s-67.833 29 -122.5 29c-35.333 0 -76 -3.66699 -122 -11v97l208 162h-349v114h544v-102z" />
    <glyph glyph-name="four.osf" horiz-adv-x="716" 
d="M689 125v-114h-123v-132h-140v132h-404v104l313 451h231v-441h123zM169 125h257v371z" />
    <glyph glyph-name="five.osf" horiz-adv-x="672" 
d="M374 341c78 0 141.168 -20.335 189.501 -61.002s72.5 -97.667 72.5 -171c0 -77.333 -28.167 -136.666 -84.5 -177.999s-129.833 -62 -220.5 -62c-81.333 0 -149.833 16.833 -205.5 50.5s-89.167 83.167 -100.5 148.5l139 10c7.33301 -30.667 26.5 -54.167 57.5 -70.5
s67.5 -24.5 109.5 -24.5c49.333 0 89 11 119 33s45 53 45 93c0 40.667 -15.333 71.834 -46 93.501s-70.334 32.5 -119.001 32.5c-71.333 0 -124 -20.667 -158 -62l-126 11l33 382h510v-114h-403l-16 -180c50 46 118 69 204 69z" />
    <glyph glyph-name="six.osf" horiz-adv-x="710" 
d="M406 460c78 0 142 -20.667 192 -62s75 -98.333 75 -171c0 -74.667 -27.167 -133.167 -81.5 -175.5s-127.833 -63.5 -220.5 -63.5c-215.333 0 -323 117.333 -323 352c0 123.333 28.5 216.166 85.5 278.499s136.833 93.5 239.5 93.5c78 0 141 -17.167 189 -51.5
s75.333 -83.166 82 -146.499l-137 -9c-4 26.667 -17.833 48.5 -41.5 65.5s-54.5 25.5 -92.5 25.5c-55.333 0 -99 -19.5 -131 -58.5s-49 -96.167 -51 -171.5c43.333 62.667 115 94 215 94zM370 104c48.667 0 87.667 11.167 117 33.5s44 52.166 44 89.499s-14.667 67 -44 89
s-68.333 33 -117 33s-87.334 -11 -116.001 -33s-43 -51.667 -43 -89s14.333 -67.166 43 -89.499s67.334 -33.5 116.001 -33.5z" />
    <glyph glyph-name="seven.osf" horiz-adv-x="644" 
d="M30 566h587v-96c-158 -190.667 -261 -387.667 -309 -591h-150c49.333 195.333 155 386.333 317 573h-445v114z" />
    <glyph glyph-name="eight.osf" horiz-adv-x="705" 
d="M483 366c56.667 -12.667 101.333 -34.333 134 -65s49 -69 49 -115c0 -42.667 -14.833 -79.334 -44.5 -110.001s-67.667 -53 -114 -67s-98.166 -21 -155.499 -21s-109.166 7 -155.499 21s-84.333 36.333 -114 67s-44.5 67.334 -44.5 110.001
c0 46.667 16.667 85.167 50 115.5s78.666 51.833 135.999 64.5c-52.667 12 -93.334 31.833 -122.001 59.5s-43 62.167 -43 103.5c0 59.333 27.833 104.666 83.5 135.999s125.5 47 209.5 47s154 -15.667 210 -47s84 -76.666 84 -135.999c0 -82.667 -54.333 -137 -163 -163z
M196.999 509.001c0 -28.667 14 -51.167 42 -67.5s65.667 -24.5 113 -24.5s85 8.16699 113 24.5s42 38.833 42 67.5c0 28 -14 50.167 -42 66.5s-65.667 24.5 -113 24.5c-46.667 0 -84.167 -8.16699 -112.5 -24.5s-42.5 -38.5 -42.5 -66.5zM351.999 100.001
c51.333 0 93.5 9.16699 126.5 27.5s49.5 43.833 49.5 76.5s-16.5 58 -49.5 76s-75.167 27 -126.5 27s-93.333 -9 -126 -27s-49 -43.333 -49 -76s16.333 -58.167 49 -76.5s74.667 -27.5 126 -27.5z" />
    <glyph glyph-name="nine.osf" horiz-adv-x="710" 
d="M338 576c216 0 324.001 -114.667 324.001 -344c0 -122 -27.833 -213 -83.5 -273s-135.5 -90 -239.5 -90c-78 0 -141 16.667 -189 50s-76 81 -84 143l137 9c6 -26 20.667 -47.167 44 -63.5s54 -24.5 92 -24.5c55.333 0 99 19.5 131 58.5s48.333 95.5 49 169.5
c-42 -59.333 -113.667 -89 -215 -89c-78.667 0 -142.834 19.833 -192.501 59.5s-74.5 94.167 -74.5 163.5c0 72 27.167 128.5 81.5 169.5s127.5 61.5 219.5 61.5zM341.001 231c49.333 0 88.333 10.5 117 31.5s43 48.833 43 83.5c0 35.333 -14.333 63.5 -43 84.5
s-67.667 31.5 -117 31.5s-88.5 -10.5 -117.5 -31.5s-43.5 -49.167 -43.5 -84.5c0 -34 14.5 -61.667 43.5 -83s68.167 -32 117.5 -32z" />
    <glyph glyph-name="zero.subs" horiz-adv-x="506" 
d="M44 99c0 70 18.5 125 55.5 165s88.167 60 153.5 60s116.5 -20 153.5 -60s55.5 -95 55.5 -165s-18.333 -125 -55 -165s-88 -60 -154 -60s-117.333 20 -154 60s-55 95 -55 165zM153 99c0 -44.667 9 -78.834 27 -102.501s42.333 -35.5 73 -35.5s55 11.833 73 35.5
s27 57.834 27 102.501c0 44 -9 77.833 -27 101.5s-42.333 35.5 -73 35.5s-55 -11.833 -73 -35.5s-27 -57.5 -27 -101.5z" />
    <glyph glyph-name="one.subs" horiz-adv-x="326" 
d="M147 315h90v-431h-109v314l-91 -65v106z" />
    <glyph glyph-name="two.subs" horiz-adv-x="419" 
d="M173 -31h220.999v-88h-376v80l162 119c32.667 24 56.167 43.667 70.5 59s21.5 31.333 21.5 48c0 15.333 -5.5 27.333 -16.5 36s-25.5 13 -43.5 13c-44 0 -69.333 -26.333 -76 -79l-105 8c4 54 22.333 94 55 120s74.667 39 126 39c48 0 88 -11.333 120 -34
s48 -55.667 48 -99c0 -25.333 -7.66699 -49.333 -23 -72s-42.666 -48 -81.999 -76z" />
    <glyph glyph-name="three.subs" horiz-adv-x="436" 
d="M254 148c100.667 -8 150.999 -51 150.999 -129c0 -48 -18.833 -83.667 -56.5 -107s-85.167 -35 -142.5 -35c-54 0 -98.333 11.667 -133 35s-55 57.666 -61 102.999l106 7c6.66699 -38 36 -57 88 -57c28 0 50 5.16699 66 15.5s24 24.833 24 43.5
c0 16.667 -7.5 30.334 -22.5 41.001s-37.167 16 -66.5 16c-23.333 0 -48.666 -2.33301 -75.999 -7v67l120 86h-212v88h351v-78z" />
    <glyph glyph-name="four.subs" horiz-adv-x="491" 
d="M468 61v-88h-81v-89h-109v89h-258v81l196 261h171v-254h81zM126 61h152v201z" />
    <glyph glyph-name="five.subs" horiz-adv-x="458" 
d="M259 164c50 0 89.835 -11.002 119.502 -33.002s44.5 -55.667 44.5 -101c0 -49.333 -18.167 -87.166 -54.5 -113.499s-83.5 -39.5 -141.5 -39.5c-52 0 -96.333 11 -133 33s-58.334 54 -65.001 96l106 6c4.66699 -16 15.667 -28.167 33 -36.5s37 -12.5 59 -12.5
c26.667 0 48 6 64 18s24 28.333 24 49s-8.5 36.834 -25.5 48.501s-38.833 17.5 -65.5 17.5c-38.667 0 -67.334 -11 -86.001 -33l-96 9l21 243h331v-88h-251l-9 -101c29.333 25.333 71 38 125 38z" />
    <glyph glyph-name="six.subs" horiz-adv-x="490" 
d="M287 158c48 0 87.5 -11.3311 118.5 -33.998s46.5 -56.334 46.5 -101.001c0 -46.667 -17.667 -83.167 -53 -109.5s-83 -39.5 -143 -39.5c-141.333 0 -212 73.333 -212 220c0 76.667 18.5 134.167 55.5 172.5s89.5 57.5 157.5 57.5c49.333 0 90 -10.667 122 -32
s50.667 -52.333 56 -93l-105 -7c-2.66699 13.333 -10.5 24.333 -23.5 33s-29.5 13 -49.5 13c-39.333 0 -67.333 -15.333 -84 -46c-12 -22.667 -18 -50.334 -18 -83.001c28 32.667 72 49 132 49zM256 -39.998c27.333 0 48.833 5.66699 64.5 17s23.5 26.666 23.5 45.999
s-8 34.666 -24 45.999s-37.333 17 -64 17c-28 0 -50 -5.66699 -66 -17s-24 -26.666 -24 -45.999s8 -34.666 24 -45.999s38 -17 66 -17z" />
    <glyph glyph-name="seven.subs" horiz-adv-x="407" 
d="M20 315h372v-73c-96 -118 -156.333 -237.333 -181 -358h-115c26 114.667 88.667 229 188 343h-264v88z" />
    <glyph glyph-name="eight.subs" horiz-adv-x="483" 
d="M332 110c35.333 -8.66699 63.333 -22.332 84 -40.999s31 -42.334 31 -71.001c0 -40.667 -19.833 -71.5 -59.5 -92.5s-88.5 -31.5 -146.5 -31.5c-56.667 0 -105 10.5 -145 31.5s-60 51.833 -60 92.5c0 56 38.667 93.333 116 112c-68 16 -102 49.333 -102 100
c0 36.667 18.333 64.834 55 84.501s82 29.5 136 29.5s99.5 -9.83301 136.5 -29.5s55.5 -47.834 55.5 -84.501c0 -50.667 -33.667 -84 -101 -100zM241 244.002c-26.667 0 -47.667 -4.33301 -63 -13s-23 -20.667 -23 -36c0 -16 7.66699 -28.333 23 -37s36.333 -13 63 -13
c57.333 0 86 16.667 86 50c0 15.333 -7.5 27.333 -22.5 36s-36.167 13 -63.5 13zM241 -45.998c66.667 0 100 18.667 100 56c0 18 -8.83301 32 -26.5 42s-42.167 15 -73.5 15c-30.667 0 -54.834 -5 -72.501 -15s-26.5 -24 -26.5 -42s8.83301 -31.833 26.5 -41.5
s41.834 -14.5 72.501 -14.5z" />
    <glyph glyph-name="nine.subs" horiz-adv-x="489" 
d="M235 324c140 0 210 -73.334 210 -220.001c0 -77.333 -18.333 -135 -55 -173s-88.667 -57 -156 -57c-50.667 0 -91.834 10.5 -123.501 31.5s-50.167 52.167 -55.5 93.5l105 7c3.33301 -13.333 11.333 -24.333 24 -33s29.334 -13 50.001 -13c40 0 68.667 16.667 86 50
c9.33301 18.667 14.666 45.334 15.999 80.001c-29.333 -32.667 -73.666 -49 -132.999 -49c-48 0 -87.5 11.333 -118.5 34s-46.5 56 -46.5 100c0 46.667 17.667 83.167 53 109.5s83.333 39.5 144 39.5zM235 112.999c27.333 0 49 5.66699 65 17s24 26.333 24 45
c0 19.333 -8.16699 34.666 -24.5 45.999s-37.833 17 -64.5 17s-48.167 -5.66699 -64.5 -17s-24.5 -26.666 -24.5 -45.999c0 -18.667 8 -33.667 24 -45s37.667 -17 65 -17z" />
    <glyph glyph-name="zero.tf" horiz-adv-x="694" 
d="M50 350c0 112.667 26.167 201.167 78.5 265.5s125.166 96.5 218.499 96.5s166.166 -32.167 218.499 -96.5s78.5 -152.833 78.5 -265.5s-26.167 -201.167 -78.5 -265.5s-125.166 -96.5 -218.499 -96.5s-166.166 32.167 -218.499 96.5s-78.5 152.833 -78.5 265.5zM189 350
c0 -78 14.333 -138.833 43 -182.5s67 -65.5 115 -65.5s86.333 21.833 115 65.5s43 104.5 43 182.5s-14.333 138.833 -43 182.5s-67 65.5 -115 65.5s-86.333 -21.833 -115 -65.5s-43 -104.5 -43 -182.5z" />
    <glyph glyph-name="one.tf" horiz-adv-x="694" 
d="M449 116h196v-116h-570v116h232v431l-205 -114v138l233 129h114v-584z" />
    <glyph glyph-name="two.tf" horiz-adv-x="694" 
d="M262 116l358.001 -0.000976562v-116h-559v107l275 224c41.333 34 72.333 64.167 93 90.5s31 54.833 31 85.5c0 29.333 -10 51.833 -30 67.5s-46.333 23.5 -79 23.5c-80.667 0 -126.334 -48 -137.001 -144l-135 10c6.66699 83.333 34.5 145.5 83.5 186.5
s111.5 61.5 187.5 61.5c72.667 0 132.5 -17.167 179.5 -51.5s70.5 -84.166 70.5 -149.499c0 -41.333 -11.5 -79.833 -34.5 -115.5s-63.167 -77.5 -120.5 -125.5z" />
    <glyph glyph-name="three.tf" horiz-adv-x="694" 
d="M388 430c77.333 -5.33301 135.167 -26.167 173.5 -62.5s57.5 -85.833 57.5 -148.5c0 -76 -27.667 -133.5 -83 -172.5s-125.666 -58.5 -210.999 -58.5c-80 0 -145.333 18.167 -196 54.5s-80 90.5 -88 162.5l138 9c11.333 -73.333 60 -110 146 -110c46 0 82.667 10 110 30
s41 48.333 41 85c0 34.667 -12.333 62.167 -37 82.5s-61.334 30.5 -110.001 30.5c-33.333 0 -72 -4.33301 -116 -13v97l194 168h-328v116h518v-104z" />
    <glyph glyph-name="four.tf" horiz-adv-x="694" 
d="M665 266v-113h-117v-153h-139v153h-377v104l281 443h235v-434h117zM176 266h233v367z" />
    <glyph glyph-name="five.tf" horiz-adv-x="694" 
d="M392 470c73.333 0 133 -20.832 179 -62.499s69 -99.5 69 -173.5c0 -78.667 -26.667 -139.334 -80 -182.001s-123.333 -64 -210 -64c-76.667 0 -141.667 17.5 -195 52.5s-85.333 84.833 -96 149.5l140 9c8 -31.333 25.667 -55 53 -71s59.333 -24 96 -24
c44.667 0 80.834 11.5 108.501 34.5s41.5 54.833 41.5 95.5c0 42 -14 74 -42 96s-64 33 -108 33c-65.333 0 -113 -21.333 -143 -64l-127 11l32 390h486v-116h-380l-17 -187c47.333 48.667 111.666 73 192.999 73z" />
    <glyph glyph-name="six.tf" horiz-adv-x="694" 
d="M399 459c73.333 0 133.667 -20.667 181 -62s71 -98.333 71 -171c0 -74 -25.833 -132.167 -77.5 -174.5s-121.167 -63.5 -208.5 -63.5c-204 0 -306 117.333 -306 352c0 122.667 27.167 215.334 81.5 278.001s129.833 94 226.5 94c73.333 0 132.833 -17.333 178.5 -52
s71.834 -83.334 78.501 -146.001l-135 -8c-4 27.333 -16.833 49.5 -38.5 66.5s-49.5 25.5 -83.5 25.5c-50.667 0 -90.834 -19.5 -120.501 -58.5s-45.5 -96.167 -47.5 -171.5c41.333 60.667 108 91 200 91zM363.001 102c45.333 0 81.333 11.167 108 33.5s40 52.5 40 90.5
c0 38.667 -13.333 69.167 -40 91.5s-62.667 33.5 -108 33.5c-44.667 0 -80.167 -11.167 -106.5 -33.5s-39.5 -52.833 -39.5 -91.5c0 -38 13.167 -68.167 39.5 -90.5s61.833 -33.5 106.5 -33.5z" />
    <glyph glyph-name="seven.tf" horiz-adv-x="694" 
d="M66 700h558v-98c-148.667 -197.333 -244 -398 -286 -602h-154c46.667 201.333 144.667 396 294 584h-412v116z" />
    <glyph glyph-name="eight.tf" horiz-adv-x="694" 
d="M469 366c54 -13.333 96.667 -35.168 128 -65.501s47 -68.5 47 -114.5c0 -63.333 -28.5 -112.166 -85.5 -146.499s-127.5 -51.5 -211.5 -51.5c-54 0 -103 7 -147 21s-80 36.333 -108 67s-42 67.334 -42 110.001c0 46 15.667 84.167 47 114.5s74 52.166 128 65.499
c-104 24.667 -156 79 -156 163c0 59.333 26.5 104.666 79.5 135.999s119.167 47 198.5 47c78.667 0 144.5 -15.667 197.5 -47s79.5 -76.666 79.5 -135.999c0 -41.333 -13.5 -75.833 -40.5 -103.5s-65.167 -47.5 -114.5 -59.5zM347 602.998
c-44 0 -78.667 -8.16699 -104 -24.5s-38 -39.5 -38 -69.5c0 -28.667 12.667 -51.334 38 -68.001s60 -25 104 -25c43.333 0 77.666 8.33301 102.999 25s38 39.334 38 68.001c0 30 -12.667 53.167 -38 69.5s-59.666 24.5 -102.999 24.5zM347 96.998
c47.333 0 86 9.16699 116 27.5s45 44.5 45 78.5c0 33.333 -15.167 59.166 -45.5 77.499s-68.833 27.5 -115.5 27.5c-47.333 0 -86.333 -9.16699 -117 -27.5s-46 -44.166 -46 -77.499c0 -34 15.333 -60.167 46 -78.5s69.667 -27.5 117 -27.5z" />
    <glyph glyph-name="nine.tf" horiz-adv-x="694" 
d="M327 712c102.667 0 179.5 -28.832 230.5 -86.499s76.5 -146.167 76.5 -265.5c0 -124.667 -26.333 -217.834 -79 -279.501s-128 -92.5 -226 -92.5c-74.667 0 -134.667 17 -180 51s-71.666 82.667 -78.999 146l135 9c4.66699 -28 17.667 -50.333 39 -67
s49.666 -25 84.999 -25c50.667 0 90.667 20 120 60s44.333 98.333 45 175c-40 -60 -106.667 -90 -200 -90c-73.333 0 -133.5 20.5 -180.5 61.5s-70.5 97.167 -70.5 168.5c0 72.667 26 130 78 172s120.667 63 206 63zM331 355.001c44 0 79.167 11 105.5 33
s39.5 51.667 39.5 89c0 36.667 -13.167 66 -39.5 88s-61.5 33 -105.5 33c-44.667 0 -80.667 -11 -108 -33s-41 -51.333 -41 -88c0 -37.333 13.5 -67 40.5 -89s63.167 -33 108.5 -33z" />
    <glyph glyph-name="zero.tosf" horiz-adv-x="694" 
d="M50 283c0 90.667 26.167 162.167 78.5 214.5s125.166 78.5 218.499 78.5c92.667 0 165.334 -26.167 218.001 -78.5s79 -123.833 79 -214.5s-26.333 -162.167 -79 -214.5s-125.334 -78.5 -218.001 -78.5c-93.333 0 -166.166 26.167 -218.499 78.5
s-78.5 123.833 -78.5 214.5zM188 283c0 -57.333 14.333 -102 43 -134s67.334 -48 116.001 -48s87.334 16 116.001 48s43 76.667 43 134s-14.333 102 -43 134s-67.334 48 -116.001 48s-87.334 -16 -116.001 -48s-43 -76.667 -43 -134z" />
    <glyph glyph-name="one.tosf" horiz-adv-x="694" 
d="M449 113h190v-113h-550v113h220v310l-189 -80v133l217 90h112v-453z" />
    <glyph glyph-name="two.tosf" horiz-adv-x="694" 
d="M282 113l335.001 -0.00195312v-113h-554v103l280 172c24.667 16 43.334 28.5 56.001 37.5s25.667 21.667 39 38s20 31.833 20 46.5c0 20.667 -9.66699 36.834 -29 48.501s-46 17.5 -80 17.5c-78.667 0 -122.667 -34.667 -132 -104l-135 11
c7.33301 68.667 35.166 120.167 83.499 154.5s109.5 51.5 183.5 51.5c72.667 0 132.167 -14.667 178.5 -44s69.5 -72 69.5 -128c0 -34.667 -11.333 -66.667 -34 -96s-62.334 -60.666 -119.001 -93.999z" />
    <glyph glyph-name="three.tosf" horiz-adv-x="694" 
d="M380 300c158.667 -10.667 238 -79.332 238 -205.999c0 -74.667 -27.833 -130.834 -83.5 -168.501s-126.5 -56.5 -212.5 -56.5c-82.667 0 -149.5 17.667 -200.5 53s-80.5 88.666 -88.5 159.999l138 10c10.667 -72.667 61 -109 151 -109c48.667 0 86.5 9.83301 113.5 29.5
s40.5 46.834 40.5 81.501c0 33.333 -12.667 60 -38 80s-63.333 30 -114 30c-34 0 -72.333 -4 -115 -12v97l194 163h-331v114h524v-102z" />
    <glyph glyph-name="four.tosf" horiz-adv-x="694" 
d="M661 128v-114h-116v-135h-141v135h-376v104l285 448h232v-438h116zM176 128h228v358z" />
    <glyph glyph-name="five.tosf" horiz-adv-x="694" 
d="M393 339c73.333 0 132.666 -20.332 177.999 -60.999s68 -97 68 -169c0 -76.667 -26.667 -135.834 -80 -177.501s-122.666 -62.5 -207.999 -62.5c-78 0 -143.5 16.833 -196.5 50.5s-84.5 83.167 -94.5 148.5l138 9c7.33301 -30.667 25.166 -54 53.499 -70
s61.5 -24 99.5 -24c44.667 0 80.334 10.833 107.001 32.5s40 52.5 40 92.5c0 40.667 -13.667 71.667 -41 93s-63.333 32 -108 32c-65.333 0 -113 -20.333 -143 -61l-127 11l32 383h484v-114h-378l-16 -182c46 46 110 69 192 69z" />
    </font>
</defs>
</svg>
