<svg width="10" height="15" viewBox="0 0 10 15" fill="none" xmlns="http://www.w3.org/2000/svg">
<path d="M5.23255 2.79068C6.00001 2.79068 6.62791 2.16278 6.62791 1.39533C6.62788 0.627907 5.99997 0 5.23255 0C4.46513 0 3.8372 0.627907 3.8372 1.39536C3.8372 2.16281 4.4651 2.79068 5.23255 2.79068Z" fill="#C9C9C9"/>
<path d="M9.06975 8.02324V6.62788C7.77904 6.62788 6.66278 5.93022 6.03487 4.91857L5.37207 3.8023C5.1279 3.38373 4.6744 3.13953 4.18604 3.13953C4.01164 3.13953 3.8372 3.17443 3.66279 3.24418L0 4.74419V8.02327H1.39536V5.68605L2.61628 5.1628L0.697663 15H2.16278L3.3837 9.4186L4.88371 10.814V15H6.27906V9.73255L4.84884 8.30233L5.26745 6.20931C6.17441 7.32558 7.53488 8.02324 9.06975 8.02324Z" fill="#C9C9C9"/>
</svg>
