<svg>

	<symbol id="icon-1" viewBox="0 0 32 32" xmlns="http://www.w3.org/2000/svg">

		<g><path d="M16,2A14,14,0,1,0,30,16,14,14,0,0,0,16,2Zm0,26A12,12,0,1,1,28,16,12,12,0,0,1,16,28Z"/><path d="M17,7H15v8.52a2,2,0,0,0,.75,1.56l4.63,3.7,1.24-1.56L17,15.52Z"/></g>

	</symbol>

	<symbol id="icon-2" viewBox="0 0 32 32" xmlns="http://www.w3.org/2000/svg">

		<g><polygon points="28.71 4.71 27.29 3.29 16 14.59 4.71 3.29 3.29 4.71 14.59 16 3.29 27.29 4.71 28.71 16 17.41 27.29 28.71 28.71 27.29 17.41 16 28.71 4.71"/></g>

	</symbol>

	<symbol id="icon-3" viewBox="0 0 32 32" xmlns="http://www.w3.org/2000/svg">

		<g><path d="M16,2,3,6.28V12C3,26.61,15.63,29.94,15.76,30L16,30l.24-.06c.13,0,12.76-3.36,12.76-18V6.28ZM27,12c0,12.1-9.31,15.45-11,16C14.31,27.45,5,24.1,5,12V7.72L16,4.05,27,7.72Z"/><path d="M11.59,15l-1.42,1.41,2.29,2.29a2,2,0,0,0,1.42.59,2,2,0,0,0,1.41-.59l6.54-6.53-1.42-1.42-6.53,6.54Z"/></g>

	</symbol>


<symbol id="needle" xmlns="http://www.w3.org/2000/svg"  viewBox="0 0 61.000000 61.000000" preserveAspectRatio="xMidYMid meet">

<g transform="translate(0.000000,61.000000) scale(0.100000,-0.100000)">
<path d="M322 598 c3 -7 15 -14 29 -16 116 -13 120 -18 68 -88 -23 -33 -106
-127 -183 -209 -224 -239 -260 -285 -222 -285 14 0 75 53 291 255 133 125 221
195 244 195 14 0 14 -56 0 -83 -7 -12 -36 -48 -66 -79 -89 -94 -103 -161 -47
-228 34 -40 174 -81 174 -51 0 12 -25 21 -58 21 -29 0 -89 32 -109 59 -7 9
-13 35 -13 59 0 38 6 49 59 106 85 91 93 106 90 169 -2 37 3 61 14 78 23 31
21 65 -3 89 -24 24 -57 26 -88 5 -19 -14 -27 -14 -74 0 -64 19 -111 20 -106 3z
m258 -46 c0 -37 -13 -52 -85 -102 -33 -22 -109 -87 -170 -143 -60 -57 -135
-125 -165 -152 l-55 -50 50 55 c27 30 96 105 153 167 57 61 119 134 138 162
33 48 54 58 54 25 0 -21 38 -17 49 5 8 14 7 22 -3 30 -7 6 -16 8 -19 5 -3 -3
-11 -3 -17 1 -17 11 8 25 43 25 23 0 27 -4 27 -28z"/>
</g>
</symbol>








</svg>







