<svg width="92" height="97" viewBox="0 0 92 97" fill="none" xmlns="http://www.w3.org/2000/svg">
<g filter="url(#filter0_d)">
<path fill-rule="evenodd" clip-rule="evenodd" d="M49.8302 60.5065C56.2591 58.8137 61 52.9605 61 46C61 37.7157 54.2843 31 46 31C37.7157 31 31 37.7157 31 46C31 53.3712 36.3169 59.5005 43.3247 60.7621L45.6449 64.5894C46.0341 65.2315 46.9659 65.2315 47.3551 64.5894L49.8302 60.5065Z" fill="#F05650"/>
</g>
<path d="M52.5863 39.4136C50.7015 37.5288 47.6348 37.5288 45.7499 39.4136C44.4625 40.7011 44.0153 42.5984 44.5728 44.3197L39.1288 49.7638C39.0463 49.8462 39 49.9577 39 50.0745V52.5605C39 52.8034 39.1966 53 39.4395 53H41.9255C42.0422 53 42.1538 52.9537 42.2362 52.8712L42.8576 52.2494C42.9525 52.1546 42.9988 52.0215 42.9834 51.888L42.9061 51.2203L43.8314 51.1331C44.0417 51.1134 44.2077 50.9473 44.2275 50.737L44.3146 49.8118L44.9824 49.8894C45.1064 49.9062 45.2313 49.8645 45.3253 49.7813C45.4188 49.6976 45.4725 49.5783 45.4725 49.453V48.6348H46.2758C46.3926 48.6348 46.5041 48.5884 46.5865 48.506L47.7135 47.394C49.4344 47.9519 51.2989 47.5384 52.5863 46.25C54.4711 44.3652 54.4711 41.2985 52.5863 39.4136ZM51.3431 42.5211C50.829 43.0353 49.993 43.0353 49.4789 42.5211C48.9647 42.007 48.9647 41.171 49.4789 40.6569C49.993 40.1428 50.829 40.1428 51.3431 40.6569C51.8572 41.171 51.8572 42.007 51.3431 42.5211Z" fill="white"/>
<defs>
<filter id="filter0_d" x="0" y="0" width="92" height="96.071" filterUnits="userSpaceOnUse" color-interpolation-filters="sRGB">
<feFlood flood-opacity="0" result="BackgroundImageFix"/>
<feColorMatrix in="SourceAlpha" type="matrix" values="0 0 0 0 0 0 0 0 0 0 0 0 0 0 0 0 0 0 127 0"/>
<feMorphology radius="1" operator="dilate" in="SourceAlpha" result="effect1_dropShadow"/>
<feOffset/>
<feGaussianBlur stdDeviation="15"/>
<feColorMatrix type="matrix" values="0 0 0 0 0 0 0 0 0 0 0 0 0 0 0 0 0 0 0.08 0"/>
<feBlend mode="normal" in2="BackgroundImageFix" result="effect1_dropShadow"/>
<feBlend mode="normal" in="SourceGraphic" in2="effect1_dropShadow" result="shape"/>
</filter>
</defs>
</svg>
