<svg width="18" height="16" viewBox="0 0 18 16" fill="none" xmlns="http://www.w3.org/2000/svg">
<path d="M0.75 1.75C0.75 1.46896 0.974883 1.25 1.24138 1.25H16.7586C17.0251 1.25 17.25 1.46896 17.25 1.75V5.5C17.25 5.78104 17.0251 6 16.7586 6H1.24138C0.974883 6 0.75 5.78104 0.75 5.5V1.75ZM0.75 10.5C0.75 10.219 0.974883 10 1.24138 10H16.7586C17.0251 10 17.25 10.219 17.25 10.5V14.25C17.25 14.531 17.0251 14.75 16.7586 14.75H1.24138C0.974883 14.75 0.75 14.531 0.75 14.25V10.5Z" stroke="#181818" stroke-width="1.5"/>
</svg>
