<svg width="15" height="20" viewBox="0 0 15 20" fill="none" xmlns="http://www.w3.org/2000/svg">
<path d="M15 8.33325C15 14.1666 7.5 19.1666 7.5 19.1666C7.5 19.1666 0 14.1666 0 8.33325C2.96403e-08 6.34413 0.790176 4.43647 2.1967 3.02995C3.60322 1.62343 5.51088 0.833252 7.5 0.833252C9.48912 0.833252 11.3968 1.62343 12.8033 3.02995C14.2098 4.43647 15 6.34413 15 8.33325Z" fill="#9E9E9E"/>
<path d="M7.5 11.2495C8.88071 11.2495 10 10.1302 10 8.74951C10 7.3688 8.88071 6.24951 7.5 6.24951C6.11929 6.24951 5 7.3688 5 8.74951C5 10.1302 6.11929 11.2495 7.5 11.2495Z" fill="#F8F8F8"/>
</svg>
