<svg width="71" height="71" viewBox="0 0 71 71" fill="none" xmlns="http://www.w3.org/2000/svg">
<path fill-rule="evenodd" clip-rule="evenodd" d="M41.8624 43.5586C43.6735 44.1236 45.6161 44.4302 47.6372 44.4302C49.616 44.4302 51.5195 44.1363 53.2981 43.5938C54.7706 44.2245 56.5964 44.9692 58.1262 45.4792C59.6678 45.993 61.0834 46.1292 62.1264 46.1345C62.9246 46.1385 63.2657 45.2549 62.7586 44.6384C62.1831 43.9389 61.4868 43.0799 60.9136 42.3357C60.4369 41.7168 59.9857 40.9366 59.6134 40.2173C63.2093 37.243 65.4675 32.9485 65.4675 28.1731C65.4675 19.1946 57.4846 11.916 47.6372 11.916C38.5214 11.916 31.0034 18.1531 29.9365 26.2022C36.966 29.0094 41.8771 35.4085 41.8771 42.8535C41.8771 43.0896 41.8722 43.3247 41.8624 43.5586ZM42.3948 28.6975C42.3948 29.8561 41.4556 30.7952 40.2971 30.7952C39.1386 30.7952 38.1994 29.8561 38.1994 28.6975C38.1994 27.539 39.1386 26.5999 40.2971 26.5999C41.4556 26.5999 42.3948 27.539 42.3948 28.6975ZM54.9807 30.7952C56.1392 30.7952 57.0784 29.8561 57.0784 28.6975C57.0784 27.539 56.1392 26.5999 54.9807 26.5999C53.8222 26.5999 52.883 27.539 52.883 28.6975C52.883 29.8561 53.8222 30.7952 54.9807 30.7952ZM49.7366 28.6975C49.7366 29.8561 48.7974 30.7952 47.6389 30.7952C46.4804 30.7952 45.5412 29.8561 45.5412 28.6975C45.5412 27.539 46.4804 26.5999 47.6389 26.5999C48.7974 26.5999 49.7366 27.539 49.7366 28.6975Z" fill="#F5F5F5"/>
<path fill-rule="evenodd" clip-rule="evenodd" d="M39.7818 42.9546C39.7818 51.9332 31.7989 59.2117 21.9515 59.2117C19.9727 59.2117 18.0691 58.9178 16.2905 58.3753C14.8181 59.006 12.9923 59.7508 11.4625 60.2607C9.88003 60.7882 8.43036 60.9177 7.38016 60.9162C6.61909 60.915 6.29346 60.0716 6.77726 59.4841C7.36249 58.7734 8.08416 57.8843 8.67503 57.1172C9.15176 56.4983 9.603 55.7181 9.97526 54.9988C6.37934 52.0245 4.12109 47.73 4.12109 42.9546C4.12109 33.9761 12.104 26.6975 21.9515 26.6975C31.7989 26.6975 39.7818 33.9761 39.7818 42.9546ZM22.3522 37.428C22.1996 37.1052 21.7037 37.1052 21.5511 37.428L18.8832 43.0717L16.3914 39.334C16.1719 39.0047 15.6586 39.1601 15.6586 39.5559V47.6744L16.7074 47.6744L21.9516 47.6744H21.9517L21.9516 47.6745H28.2447V39.556C28.2447 39.1603 27.7314 39.0048 27.5119 39.3341L25.0201 43.0718L22.3522 37.428Z" fill="#F5F5F5"/>
</svg>
