<svg width="71" height="71" viewBox="0 0 71 71" fill="none" xmlns="http://www.w3.org/2000/svg">
<path fill-rule="evenodd" clip-rule="evenodd" d="M62.6592 11.916H7.65918C6.27847 11.916 5.15918 13.0353 5.15918 14.416V48.416C5.15918 49.7967 6.27847 50.916 7.65918 50.916H12.6592V49.916H7.65918C6.83075 49.916 6.15918 49.2444 6.15918 48.416V14.416C6.15918 13.5876 6.83075 12.916 7.65918 12.916L57.1144 12.916V49.916L33.6592 49.916V50.916L62.6592 50.916C64.0399 50.916 65.1592 49.7967 65.1592 48.416V14.416C65.1592 13.0353 64.0399 11.916 62.6592 11.916ZM33.6592 48.416H55.6592V14.416H7.65918V48.416H12.6592V20.416C12.6592 19.3114 13.5546 18.416 14.6592 18.416H31.6592C32.7638 18.416 33.6592 19.3114 33.6592 20.416V26.3597L39.0731 30.6309C39.5806 31.0313 39.5806 31.8007 39.0731 32.2011L33.6592 36.4723V48.416ZM59.1592 31.916C59.1592 30.8114 60.0546 29.916 61.1592 29.916C62.2637 29.916 63.1592 30.8114 63.1592 31.916C63.1592 33.0206 62.2637 33.916 61.1592 33.916C60.0546 33.916 59.1592 33.0206 59.1592 31.916Z" fill="#F5F5F5"/>
<path fill-rule="evenodd" clip-rule="evenodd" d="M12.6592 57.8158C12.6592 58.5062 13.009 59.1149 13.541 59.4743C13.6611 59.5554 13.7905 59.6239 13.9272 59.6777C14.1539 59.7669 14.4008 59.8159 14.6592 59.8159H31.7935C32.0696 59.8159 32.3327 59.7599 32.572 59.6587C33.2898 59.3551 33.7935 58.6443 33.7935 57.8159C33.7935 57.8159 33.7935 57.8159 33.7935 57.8159V20.416C33.7935 19.3114 32.8981 18.416 31.7935 18.416H14.6592C13.5546 18.416 12.6592 19.3114 12.6592 20.416V57.8158ZM32.7935 51.6956H13.6592V20.416C13.6592 19.8637 14.1069 19.416 14.6592 19.416H31.7935C32.3458 19.416 32.7935 19.8637 32.7935 20.416V51.6956ZM25.0156 55.5033C25.0156 56.456 24.227 57.2283 23.2544 57.2283C22.2817 57.2283 21.4932 56.456 21.4932 55.5033C21.4932 54.5506 22.2817 53.7783 23.2544 53.7783C24.227 53.7783 25.0156 54.5506 25.0156 55.5033Z" fill="#F5F5F5"/>
<path d="M21.4932 20.9495L25.0156 20.9495" stroke="#F5F5F5" stroke-linecap="round"/>
<path d="M26.8435 34.0382C27.3387 34.4384 27.3387 35.1934 26.8435 35.5936L21.9343 39.5617C21.2803 40.0903 20.3057 39.6248 20.3057 38.784L20.3057 30.8479C20.3057 30.007 21.2803 29.5416 21.9343 30.0701L26.8435 34.0382Z" fill="#F5F5F5"/>
</svg>
