<svg width="71" height="71" viewBox="0 0 71 71" fill="none" xmlns="http://www.w3.org/2000/svg">
<g filter="url(#filter0_d)">
<path fill-rule="evenodd" clip-rule="evenodd" d="M33.582 54.916L33.582 59.916L24.582 59.916C24.0298 59.916 23.582 60.3637 23.582 60.916C23.582 61.4683 24.0298 61.916 24.582 61.916L33.582 61.916L37.582 61.916L46.582 61.916C47.1343 61.916 47.582 61.4683 47.582 60.916C47.582 60.3637 47.1343 59.916 46.582 59.916L37.582 59.916L37.582 54.916L63.582 54.916C64.6866 54.916 65.582 54.0206 65.582 52.916L65.582 52.916L65.582 51.916L65.582 19.916C65.582 18.8114 64.6866 17.916 63.582 17.916L7.58203 17.916C6.47746 17.916 5.58203 18.8114 5.58203 19.916L5.58203 51.916L5.58203 52.916C5.58203 54.0206 6.47746 54.916 7.58203 54.916L33.582 54.916ZM64.582 51.916L6.58203 51.916L6.58203 19.916C6.58203 19.3637 7.02975 18.916 7.58203 18.916L63.582 18.916C64.1343 18.916 64.582 19.3637 64.582 19.916L64.582 51.916Z" fill="#F5F5F5"/>
<path fill-rule="evenodd" clip-rule="evenodd" d="M61.582 20.916C62.1343 20.916 62.582 21.3637 62.582 21.916L62.582 49.916L8.58203 49.916L8.58203 21.916C8.58204 21.3637 9.02975 20.916 9.58203 20.916L61.582 20.916ZM30.1819 33.7017V27.916H33.8866V42.916H30.1819V36.8732H21.2867V42.916H17.582V27.916H21.2867V33.7017H30.1819ZM36.8297 27.916H44.6461C50.1827 27.916 53.582 30.6374 53.582 35.416C53.582 40.1946 50.1827 42.916 44.6461 42.916H36.8297V27.916ZM40.5343 39.7232H44.2593C47.9843 39.7232 49.8774 38.0946 49.8774 35.416C49.8774 32.7374 47.9843 31.1089 44.2593 31.1089H40.5343V39.7232Z" fill="#F5F5F5"/>
</g>
<defs>
<filter id="filter0_d" x="-3.41797" y="0.916016" width="78" height="78" filterUnits="userSpaceOnUse" color-interpolation-filters="sRGB">
<feFlood flood-opacity="0" result="BackgroundImageFix"/>
<feColorMatrix in="SourceAlpha" type="matrix" values="0 0 0 0 0 0 0 0 0 0 0 0 0 0 0 0 0 0 127 0"/>
<feOffset dy="4"/>
<feGaussianBlur stdDeviation="2"/>
<feColorMatrix type="matrix" values="0 0 0 0 0 0 0 0 0 0 0 0 0 0 0 0 0 0 0.25 0"/>
<feBlend mode="normal" in2="BackgroundImageFix" result="effect1_dropShadow"/>
<feBlend mode="normal" in="SourceGraphic" in2="effect1_dropShadow" result="shape"/>
</filter>
</defs>
</svg>
