<svg width="21" height="20" viewBox="0 0 21 20" fill="none" xmlns="http://www.w3.org/2000/svg">
<path d="M20.8479 5.88007C20.801 4.81739 20.6292 4.08681 20.383 3.45375C20.1291 2.78177 19.7384 2.18015 19.2265 1.68002C18.7264 1.17211 18.1208 0.777437 17.4566 0.527448C16.8198 0.281275 16.0931 0.109427 15.0304 0.0625734C13.9598 0.0117516 13.6199 0 10.9045 0C8.18917 0 7.84929 0.0117516 6.78264 0.0586054C5.71997 0.105459 4.98938 0.27746 4.35648 0.52348C3.68435 0.777437 3.08273 1.16814 2.5826 1.68002C2.07469 2.18015 1.68018 2.78574 1.43003 3.44993C1.18386 4.08681 1.01201 4.81342 0.965161 5.8761C0.914339 6.94672 0.902588 7.2866 0.902588 10.002C0.902588 12.7174 0.914339 13.0572 0.961193 14.1239C1.00805 15.1866 1.18005 15.9172 1.42622 16.5502C1.68018 17.2222 2.07469 17.8238 2.5826 18.3239C3.08273 18.8319 3.68832 19.2265 4.35251 19.4765C4.98938 19.7227 5.716 19.8945 6.77883 19.9414C7.84532 19.9884 8.18535 20 10.9007 20C13.6161 20 13.956 19.9884 15.0226 19.9414C16.0853 19.8945 16.8159 19.7227 17.4488 19.4765C18.7929 18.9569 19.8556 17.8942 20.3752 16.5502C20.6213 15.9133 20.7933 15.1866 20.8401 14.1239C20.887 13.0572 20.8987 12.7174 20.8987 10.002C20.8987 7.2866 20.8947 6.94672 20.8479 5.88007ZM19.0468 14.0458C19.0038 15.0225 18.8397 15.55 18.703 15.9016C18.3669 16.7729 17.6754 17.4644 16.8041 17.8005C16.4525 17.9372 15.9212 18.1013 14.9483 18.1442C13.8934 18.1912 13.577 18.2028 10.9085 18.2028C8.23999 18.2028 7.91964 18.1912 6.86857 18.1442C5.89181 18.1013 5.36437 17.9372 5.01274 17.8005C4.57915 17.6402 4.18448 17.3863 3.86413 17.0542C3.53204 16.7299 3.27808 16.3391 3.11783 15.9056C2.98109 15.5539 2.81702 15.0225 2.77414 14.0497C2.72713 12.9948 2.71553 12.6783 2.71553 10.0098C2.71553 7.34124 2.72713 7.02089 2.77414 5.96996C2.81702 4.99321 2.98109 4.46576 3.11783 4.11413C3.27808 3.68039 3.53204 3.28587 3.8681 2.96537C4.19226 2.63327 4.58296 2.37932 5.0167 2.21922C5.36833 2.08247 5.89975 1.91841 6.87253 1.87537C7.92743 1.82852 8.24396 1.81677 10.9123 1.81677C13.5848 1.81677 13.9012 1.82852 14.9523 1.87537C15.929 1.91841 16.4565 2.08247 16.8081 2.21922C17.2417 2.37932 17.6364 2.63327 17.9567 2.96537C18.2888 3.28968 18.5428 3.68039 18.703 4.11413C18.8397 4.46576 19.0038 4.99702 19.0468 5.96996C19.0937 7.02486 19.1055 7.34124 19.1055 10.0098C19.1055 12.6783 19.0937 12.9909 19.0468 14.0458Z" fill="#9E9E9E"/>
<path d="M10.9043 4.86243C8.06793 4.86243 5.7666 7.1636 5.7666 10.0002C5.7666 12.8367 8.06793 15.1379 10.9043 15.1379C13.7409 15.1379 16.0421 12.8367 16.0421 10.0002C16.0421 7.1636 13.7409 4.86243 10.9043 4.86243ZM10.9043 13.3329C9.06422 13.3329 7.57162 11.8404 7.57162 10.0002C7.57162 8.15989 9.06422 6.66744 10.9043 6.66744C12.7446 6.66744 14.2371 8.15989 14.2371 10.0002C14.2371 11.8404 12.7446 13.3329 10.9043 13.3329Z" fill="#9E9E9E"/>
<path d="M17.4444 4.66269C17.4444 5.32506 16.9074 5.86212 16.2449 5.86212C15.5825 5.86212 15.0454 5.32506 15.0454 4.66269C15.0454 4.00017 15.5825 3.46326 16.2449 3.46326C16.9074 3.46326 17.4444 4.00017 17.4444 4.66269Z" fill="#9E9E9E"/>
</svg>
