<svg width="21" height="12" viewBox="0 0 21 12" fill="none" xmlns="http://www.w3.org/2000/svg">
<path d="M20.6115 10.3053C20.5872 10.2531 20.5647 10.2098 20.5437 10.1751C20.1967 9.55015 19.5336 8.78306 18.5548 7.87362L18.5341 7.85279L18.5237 7.84258L18.5133 7.83211H18.5028C18.0585 7.40863 17.7772 7.12389 17.6594 6.97811C17.4439 6.70041 17.3956 6.41932 17.5134 6.1345C17.5966 5.91932 17.9093 5.46487 18.4506 4.77054C18.7353 4.40257 18.9608 4.10766 19.1274 3.88547C20.3284 2.2887 20.8492 1.26835 20.6894 0.824008L20.6274 0.720171C20.5857 0.657657 20.4781 0.600468 20.3047 0.548313C20.131 0.496267 19.9089 0.487659 19.6381 0.522345L16.6392 0.543061C16.5906 0.525846 16.5212 0.527451 16.4308 0.548313C16.3406 0.569175 16.2954 0.579643 16.2954 0.579643L16.2432 0.605721L16.2018 0.63705C16.1671 0.657767 16.1289 0.694203 16.0872 0.746285C16.0457 0.798186 16.011 0.859094 15.9833 0.928501C15.6568 1.7685 15.2856 2.54948 14.869 3.27142C14.6121 3.7019 14.3762 4.07498 14.1608 4.39087C13.9456 4.70664 13.7651 4.9393 13.6194 5.08844C13.4735 5.23772 13.3419 5.35731 13.2236 5.44766C13.1056 5.53803 13.0155 5.57622 12.953 5.56225C12.8905 5.54828 12.8316 5.53442 12.7758 5.52056C12.6787 5.45805 12.6006 5.37303 12.5417 5.26544C12.4825 5.15785 12.4427 5.02242 12.4219 4.85928C12.4011 4.69603 12.3889 4.55561 12.3854 4.43755C12.3821 4.31964 12.3836 4.15285 12.3907 3.93766C12.3979 3.72236 12.4011 3.57669 12.4011 3.50032C12.4011 3.23648 12.4063 2.95013 12.4166 2.64121C12.4271 2.33229 12.4356 2.08752 12.4427 1.9072C12.4498 1.7267 12.4531 1.53573 12.4531 1.3344C12.4531 1.13308 12.4408 0.975186 12.4166 0.86059C12.3927 0.746139 12.356 0.635044 12.3076 0.527341C12.2589 0.419748 12.1876 0.336518 12.0941 0.277432C12.0004 0.21842 11.8839 0.171589 11.7453 0.136794C11.3773 0.0535278 10.9087 0.00848436 10.3394 0.00148165C9.0482 -0.0123779 8.21856 0.070998 7.85063 0.2515C7.70485 0.327764 7.57293 0.431966 7.45497 0.563777C7.32998 0.71656 7.31255 0.799936 7.40278 0.81365C7.81937 0.876054 8.11429 1.02534 8.28786 1.26135L8.35041 1.38641C8.39906 1.47665 8.44764 1.6364 8.49626 1.86544C8.54481 2.09449 8.57614 2.34786 8.58992 2.62542C8.62457 3.13228 8.62457 3.56615 8.58992 3.92708C8.55517 4.28816 8.52234 4.56925 8.49101 4.77058C8.45968 4.97191 8.41285 5.13505 8.35041 5.25997C8.28786 5.38492 8.24624 5.4613 8.22538 5.48901C8.20456 5.51673 8.1872 5.5342 8.17341 5.54106C8.08318 5.57564 7.98933 5.59325 7.89221 5.59325C7.79493 5.59325 7.67698 5.5446 7.53817 5.44736C7.39939 5.35013 7.25536 5.21657 7.10608 5.04646C6.9568 4.87631 6.78844 4.63855 6.60094 4.33313C6.41358 4.02771 6.21918 3.66674 6.01785 3.25023L5.85128 2.94816C5.74715 2.75384 5.60491 2.47088 5.42441 2.09956C5.2438 1.72809 5.08416 1.36876 4.94538 1.02165C4.8899 0.875872 4.80656 0.764886 4.69551 0.688513L4.64339 0.657183C4.60874 0.629464 4.55312 0.600031 4.47682 0.568664C4.40041 0.537335 4.32068 0.514867 4.2373 0.501044L1.3841 0.521761C1.09254 0.521761 0.894712 0.587812 0.790547 0.719733L0.748859 0.782137C0.728033 0.816896 0.717529 0.872407 0.717529 0.948817C0.717529 1.02519 0.738355 1.11892 0.780043 1.22991C1.19656 2.20883 1.64951 3.15292 2.1389 4.06232C2.62828 4.97173 3.05355 5.70428 3.41445 6.25931C3.77542 6.81475 4.14335 7.33897 4.51825 7.83171C4.89315 8.32464 5.14131 8.64053 5.26273 8.7793C5.38429 8.91834 5.47977 9.02228 5.54918 9.09169L5.80956 9.34156C5.97616 9.5082 6.22082 9.70778 6.54364 9.94029C6.86653 10.173 7.22399 10.402 7.61622 10.6278C8.00852 10.8532 8.4649 11.0372 8.98561 11.1795C9.50626 11.3219 10.013 11.3791 10.5059 11.3515H11.7035C11.9463 11.3305 12.1303 11.2541 12.2554 11.1223L12.2968 11.0701C12.3247 11.0287 12.3508 10.9643 12.3749 10.8777C12.3992 10.7909 12.4113 10.6953 12.4113 10.5914C12.4042 10.2929 12.4269 10.0239 12.4789 9.78445C12.5308 9.54504 12.5899 9.36454 12.6561 9.24298C12.7222 9.12152 12.7968 9.01904 12.8799 8.93595C12.9631 8.85268 13.0224 8.80224 13.0572 8.78488C13.0918 8.76741 13.1194 8.75556 13.1402 8.74845C13.3068 8.69294 13.5029 8.7467 13.7287 8.90998C13.9544 9.07312 14.166 9.27456 14.364 9.51397C14.5619 9.75359 14.7996 10.0224 15.0772 10.3209C15.3551 10.6194 15.598 10.8414 15.8061 10.9874L16.0143 11.1123C16.1534 11.1957 16.3339 11.2721 16.5561 11.3415C16.7778 11.4109 16.9722 11.4282 17.139 11.3935L19.8047 11.352C20.0683 11.352 20.2735 11.3083 20.419 11.2217C20.5648 11.1349 20.6515 11.0393 20.6794 10.9353C20.7073 10.8312 20.7088 10.7131 20.6847 10.5811C20.66 10.4494 20.6357 10.3573 20.6115 10.3053Z" fill="#9E9E9E"/>
</svg>
